<?xml version="1.0" encoding="UTF-8" standalone="no"?>
<!-- Uploaded to: SVG Repo, www.svgrepo.com, Generator: SVG Repo Mixer Tools -->

<svg
   width="800"
   height="800"
   viewBox="0 0 32 32"
   version="1.1"
   id="svg1"
   sodipodi:docname="astro.svg"
   inkscape:version="1.3.2 (1:1.3.2+202311252150+091e20ef0f)"
   xmlns:inkscape="http://www.inkscape.org/namespaces/inkscape"
   xmlns:sodipodi="http://sodipodi.sourceforge.net/DTD/sodipodi-0.dtd"
   xmlns="http://www.w3.org/2000/svg"
   xmlns:svg="http://www.w3.org/2000/svg">
  <defs
     id="defs1" />
  <sodipodi:namedview
     id="namedview1"
     pagecolor="#ffffff"
     bordercolor="#666666"
     borderopacity="1.0"
     inkscape:showpageshadow="2"
     inkscape:pageopacity="0.0"
     inkscape:pagecheckerboard="0"
     inkscape:deskcolor="#d1d1d1"
     inkscape:zoom="0.36725358"
     inkscape:cx="147.03737"
     inkscape:cy="344.44865"
     inkscape:window-width="1920"
     inkscape:window-height="1027"
     inkscape:window-x="0"
     inkscape:window-y="25"
     inkscape:window-maximized="1"
     inkscape:current-layer="layer2">
    <inkscape:page
       x="0"
       y="0"
       width="32"
       height="32"
       id="page4"
       margin="0"
       bleed="0" />
  </sodipodi:namedview>
  <title
     id="title1">file_type_astro</title>
  <g
     inkscape:groupmode="layer"
     id="layer2"
     inkscape:label="Layer 2"
     transform="translate(-42)">
    <g
       id="g4"
       transform="matrix(1.4438468,0,0,1.4438468,-28.071488,-6.8281451)">
      <path
         style="opacity:0.95;fill:#000000;fill-rule:evenodd;stroke-width:0.385078;paint-order:fill markers stroke"
         d="m 52.159888,19.493434 c 0.03913,-0.102598 3.914261,-12.7979599 3.961104,-12.9770319 0.05901,-0.2255812 0.245153,-0.635398 0.371939,-0.81887 0.156125,-0.2259272 0.500477,-0.4351828 0.802767,-0.487824 0.389281,-0.067791 4.431582,-0.0588 4.721427,0.0105 0.61692,0.1475036 0.906775,0.5249196 1.20249,1.5657484 0.07522,0.2647412 0.975147,3.2322505 1.999843,6.5944645 1.024697,3.362215 1.859015,6.113117 1.854041,6.113117 -0.005,0 -0.24922,-0.110344 -0.542768,-0.245209 -0.714046,-0.328055 -1.304333,-0.558128 -1.977768,-0.770866 -0.574415,-0.181457 -1.555806,-0.429707 -1.86778,-0.472468 -0.103088,-0.01413 -0.189881,-0.04987 -0.209077,-0.0861 -0.01805,-0.03407 -0.597701,-1.976742 -1.288108,-4.317055 -1.084421,-3.6759189 -1.26873,-4.2669077 -1.354047,-4.3417569 -0.179255,-0.1572608 -0.44026,-0.088334 -0.530162,0.1400068 -0.03014,0.076546 -0.605982,2.0279841 -1.279655,4.3365271 -0.673673,2.308544 -1.241992,4.208812 -1.26293,4.222817 -0.02094,0.01401 -0.117514,0.03685 -0.214612,0.05078 -0.62307,0.08933 -2.038664,0.497308 -2.876197,0.828923 -0.506401,0.200506 -1.286954,0.553963 -1.438082,0.651206 -0.08133,0.05233 -0.09137,0.05276 -0.07242,0.0031 z"
         id="path2" />
      <path
         style="opacity:0.95;fill:#800000;fill-rule:evenodd;stroke-width:0.385078;paint-order:fill markers stroke"
         d="m 60.047548,26.342076 c -0.303765,-0.173051 -0.72325,-0.614056 -0.891833,-0.937587 -0.220869,-0.423873 -0.265708,-0.624407 -0.301362,-1.347774 -0.02526,-0.512582 -0.04974,-0.701139 -0.112787,-0.868955 -0.12165,-0.323793 -0.301377,-0.468964 -0.666263,-0.538163 -0.553989,-0.105062 -1.129615,0.277197 -1.208383,0.802459 l -0.0262,0.17475 -0.110707,-0.131616 c -0.53991,-0.641883 -0.839789,-1.514508 -0.840799,-2.446668 -4.36e-4,-0.40276 0.07808,-1.07898 0.136194,-1.173016 0.01036,-0.01677 0.09872,0.05492 0.196357,0.159295 0.424918,0.454271 1.175153,0.778979 2.227713,0.964171 0.425884,0.07493 0.638542,0.08833 1.42479,0.08974 0.818705,0.0015 0.968967,-0.0082 1.316521,-0.08461 0.643726,-0.141552 1.342897,-0.4188 1.827316,-0.7246 l 0.145272,-0.09171 0.04108,0.143843 c 0.0226,0.07911 0.05171,0.308818 0.0647,0.510455 0.04131,0.641409 -0.119048,1.21464 -0.48982,1.750982 -0.297816,0.430805 -0.758883,0.845984 -1.331825,1.199273 -0.634291,0.391119 -1.041612,0.778204 -1.169641,1.111532 -0.15587,0.405816 -0.14686,1.087925 0.01971,1.492178 0.03887,0.09434 -0.0071,0.08442 -0.250027,-0.05399 z"
         id="path3" />
    </g>
  </g>
</svg>
