<?xml version="1.0" encoding="utf-8" ?>
<svg xmlns="http://www.w3.org/2000/svg" xmlns:xlink="http://www.w3.org/1999/xlink" width="1024" height="1024">
	<path fill="#31071F" transform="scale(1.6 1.6)" d="M156.812 164.224C162.121 163.838 167.559 164.075 172.888 164.072L224.963 164.074C235.265 164.091 237.144 164.099 246.903 167.809L270.476 176.527C283.03 180.908 286.89 179.628 300.366 179.636L467.969 179.636C486.181 179.609 484.783 180.882 484.812 197.066L484.783 220.205L512.833 220.168C514.984 220.299 516.11 221.699 517.493 223.125L518.205 223.815C519.859 225.882 519.262 231.427 519.272 234.028L519.185 253.28C521.529 253.766 524.582 253.419 526.999 253.425L544.285 253.445C549.297 253.446 554.025 252.177 557.64 256.334L557.968 256.719C560.026 259.053 559.22 263.17 559.226 266.069L559.179 436.403C558.933 445.701 552.87 455.823 545.316 460.983L544.844 461.298C539.082 465.206 532.112 467.184 525.197 467.438L482.344 467.514L238.815 467.496C237.845 467.453 237.038 467.317 236.259 466.712L234.957 465.676C231.691 462.594 232.793 456.464 232.802 452.489L232.852 433.639C230.905 433.156 228.079 433.509 226.049 433.51L113.585 433.579C104.699 433.604 101.378 433.786 93.75 428.46L92.1706 427.246C86.2801 422.06 81.6184 414.468 81.2136 406.488L81.0933 240.337C81.1012 228.245 81.0282 227.402 94.5752 227.371L112.589 227.426C112.984 226.866 112.783 225.066 112.785 224.291L112.833 214.463C112.903 201.98 118.514 203.972 128.03 203.951L151.196 203.907L151.25 173.281C151.273 168.83 152.218 165.861 156.812 164.224Z"/>
	<defs>
		<linearGradient id="gradient_0" gradientUnits="userSpaceOnUse" x1="295.01089" y1="378.88882" x2="294.40652" y2="327.84912">
			<stop offset="0" stop-color="#169E81"/>
			<stop offset="1" stop-color="#35D3CB"/>
		</linearGradient>
	</defs>
	<path fill="url(#gradient_0)" transform="scale(1.6 1.6)" d="M297.805 326.605L332.573 376.795C333.117 377.75 333.427 378.21 334.397 378.789L293.085 378.881L255.634 378.446L297.805 326.605Z"/>
	<path fill="#07894C" transform="scale(1.6 1.6)" d="M326.648 291.796C328.465 293.905 329.951 296.495 331.512 298.813L380.765 368.394C383.379 372.041 385.753 375.669 388.743 379.038L369.844 378.874L351.421 378.942C350.814 378.437 340.462 362.993 339.081 360.968L307.228 315.735C313.245 309.617 322.226 298.661 326.648 291.796Z"/>
	<path fill="#903458" transform="scale(1.6 1.6)" d="M96.2344 242.41C97.6228 242.208 99.6807 242.434 101.431 242.439L112.812 242.466L112.834 418.281L112.7 418.629C106.133 419.833 97.2464 414.671 96.3868 407.617C95.7116 402.077 96.2351 395.837 96.2394 390.214L96.2344 242.41Z"/>
	<path fill="#F5B222" transform="scale(1.6 1.6)" d="M127.922 218.999L151.071 219.073L151.196 368.419L127.897 368.296L127.922 218.999Z"/>
	<defs>
		<linearGradient id="gradient_1" gradientUnits="userSpaceOnUse" x1="403.25015" y1="461.16068" x2="389.46658" y2="278.58081">
			<stop offset="0" stop-color="#AE3B47"/>
			<stop offset="1" stop-color="#CB4D4B"/>
		</linearGradient>
	</defs>
	<path fill="url(#gradient_1)" transform="scale(1.6 1.6)" d="M519.292 268.425L544.454 268.424L544.616 419.607C544.625 424.86 545.214 430.94 544.442 436.094C542.21 450.991 531.033 452.557 519.285 452.546L272.278 452.494L247.565 452.503C247.176 451.866 247.23 433.919 247.514 432.413L511.305 432.718C522.14 432.834 519.322 414.27 519.329 407.53L519.292 268.425Z"/>
	<defs>
		<linearGradient id="gradient_2" gradientUnits="userSpaceOnUse" x1="320.46964" y1="230.73062" x2="315.33145" y2="422.81192">
			<stop offset="0" stop-color="#82A9B2"/>
			<stop offset="1" stop-color="#81CFC2"/>
		</linearGradient>
	</defs>
	<path fill="url(#gradient_2)" transform="scale(1.6 1.6)" d="M484.442 235.025L504.46 235.267L504.498 417.376C501.151 417.854 497.259 417.514 493.854 417.521L199.335 417.61C195.463 417.622 191.666 418.258 187.829 418.301L136.094 418.324L127.891 418.401L127.85 383.437L141.268 383.432C144.387 383.425 147.611 383.545 150.698 383.055L151.64 387.031C153.771 394.978 159.052 393.838 165.43 393.792L471.177 393.717C473.594 393.716 476.724 394.032 479.011 393.254L479.375 393.123C486.635 390.637 484.875 383.853 484.877 377.625L484.816 261.248C484.805 252.622 485.318 243.599 484.442 235.025Z"/>
	<path fill="white" transform="scale(1.6 1.6)" d="M407.136 378.841L406.269 378.676C405.226 377.873 404.455 376.391 403.69 375.315L363.759 320.701L406.343 267.907C412.55 260.143 402.066 250.595 395.696 257.023C393.78 258.956 392.092 261.26 390.366 263.366L364.977 295.039C361.744 299.191 358.42 303.288 355.519 307.684L336.244 280.171C333.502 276.516 330.446 271.928 325.165 273.263L324.511 273.438C320.856 274.462 318.05 279.545 315.842 282.324L244.776 367.907C242.463 370.631 239.438 373.627 237.713 376.759C235.866 380.113 231.84 378.858 228.559 378.866L165.953 378.843L166.049 179.42L227.5 179.497C235.729 179.383 241.376 181.442 249.081 184.466L266.267 191.227C273.324 193.971 273.765 194.475 281.001 194.37L469.779 194.364L469.901 273.585L469.933 378.787L407.136 378.841Z"/>
	<path fill="#31071F" transform="scale(1.6 1.6)" d="M214.685 192.618C218.025 192.409 221.517 192.187 224.844 192.62C263.878 197.711 268.004 258.518 223.418 265.901C219.159 266.214 214.993 266.171 210.781 265.42C171.726 258.453 173.027 197.996 214.685 192.618Z"/>
	<path fill="#F5B222" transform="scale(1.6 1.6)" d="M216.761 207.57C227.234 206.628 237.904 213.919 240.315 224.297L240.438 224.844C241.067 227.494 241.164 230.033 240.491 232.692L240.337 233.281C237.978 242.925 231.515 249.664 221.46 251.227C190.567 251.821 188.733 212.896 216.761 207.57Z"/>
</svg>
