<?xml version="1.0" encoding="UTF-8" standalone="no"?>
<!-- Created with Inkscape (http://www.inkscape.org/) -->

<svg
   width="1023.9999"
   height="1023.9999"
   viewBox="0 0 270.93331 270.93331"
   version="1.1"
   id="svg1"
   xml:space="preserve"
   inkscape:version="1.3.2 (1:1.3.2+202311252150+091e20ef0f)"
   sodipodi:docname="hf-tf.svg"
   xmlns:inkscape="http://www.inkscape.org/namespaces/inkscape"
   xmlns:sodipodi="http://sodipodi.sourceforge.net/DTD/sodipodi-0.dtd"
   xmlns="http://www.w3.org/2000/svg"
   xmlns:svg="http://www.w3.org/2000/svg"><sodipodi:namedview
     id="namedview1"
     pagecolor="#ffffff"
     bordercolor="#666666"
     borderopacity="1.0"
     inkscape:showpageshadow="2"
     inkscape:pageopacity="0.0"
     inkscape:pagecheckerboard="0"
     inkscape:deskcolor="#d1d1d1"
     inkscape:document-units="px"
     inkscape:zoom="0.49064976"
     inkscape:cx="721.49224"
     inkscape:cy="245.5927"
     inkscape:window-width="1920"
     inkscape:window-height="1027"
     inkscape:window-x="0"
     inkscape:window-y="25"
     inkscape:window-maximized="1"
     inkscape:current-layer="g47"><inkscape:page
       x="0"
       y="0"
       width="270.93332"
       height="270.93332"
       id="page88"
       margin="0"
       bleed="0"
       inkscape:export-filename="HF.svg"
       inkscape:export-xdpi="300"
       inkscape:export-ydpi="300" /></sodipodi:namedview><defs
     id="defs1" /><g
     inkscape:label="Layer 1"
     inkscape:groupmode="layer"
     id="layer1"
     transform="translate(-30.522744,184.96811)"><g
       id="g47"
       transform="matrix(2.9353868,0,0,2.9353868,229.40672,769.76182)"
       inkscape:label="HF"><path
         id="path72"
         style="display:inline;fill:#fed01c;stroke-width:1.01267"
         d="m -23.967604,-316.41307 c -14.054238,0.292 -26.645224,11.00791 -31.411974,24.2502 -2.18623,6.00095 -1.558389,13.1262 0.598039,19.14961 -0.06509,0.70078 0.740121,0.89089 1.287977,0.77556 2.073342,-0.12122 4.405576,0.0905 5.917101,1.68928 0.933533,0.8712 1.761051,1.95181 2.638672,2.91797 1.202703,-1.36858 2.415311,-3.2359 4.436093,-3.31039 2.089627,0.11023 3.408257,1.94927 4.437254,3.5635 1.576429,2.77259 2.806139,5.82048 4.940198,8.25758 1.968901,2.43038 3.718345,8.21974 4.225514,11.44968 -0.04187,0.4541 0.178613,1.06814 0.741853,0.95161 2.655145,0.28229 8.563267,-0.33997 11.223033,-0.29667 0.571181,-2.36307 -0.900802,-4.44039 0.837802,-6.20624 2.44445,-2.74214 4.8835221,-8.59707 6.3170867,-12.00544 0.5219211,-1.38831 0.7803548,-3.35337 1.9932544,-4.28901 1.5177742,-1.37631 4.1480806,-1.7456 5.67207968,-0.18449 0.5875696,0.56462 1.0418039,1.2476 1.47856662,1.93083 1.3206326,-0.68544 2.0673584,-2.06755 3.2310533,-2.95964 1.3439115,-1.19547 3.1773056,-1.88403 4.9779315,-1.53841 0.7024488,0.11698 2.5701488,0.64779 2.6610728,-0.1174 2.638434,-6.79732 3.276918,-16.93659 0.204435,-23.45442 -5.3593203,-11.59581 -18.4486094,-20.12699 -31.274633,-20.63728 -0.721392,-0.0356 -1.232324,-0.004 -1.954388,0.002 z m 14.2680963,19.46426 c 2.3548759,-0.0576 4.5712653,1.75666 4.9296177,4.09574 0.5024759,2.22976 -0.5174006,4.89429 -2.7479771,5.73824 -1.1624565,0.22521 -1.6719183,-1.08234 -2.383224,-1.73358 -0.7301329,-0.87194 -1.9144819,-0.37121 -2.8316199,-0.19415 -0.629129,0.094 -1.552087,0.30046 -1.802956,-0.49644 -0.865825,-1.9149 -0.448755,-4.31131 1.064233,-5.78603 0.977287,-1.00951 2.357591,-1.64091 3.7719263,-1.62378 z m -25.1152343,0.0391 c 2.41784,-0.11464 4.685765,1.77049 5.071393,4.15211 0.33299,1.18786 0.426964,2.90686 -0.879987,3.5393 -1.091041,0.46638 -2.235627,-0.18126 -3.333984,-0.18555 -0.853046,0.23906 -1.110225,1.2304 -1.72461,1.77735 -0.649676,0.72928 -1.793299,0.55835 -2.444294,-0.0788 -2.325209,-1.73316 -2.703216,-5.67732 -0.485923,-7.69479 1.008134,-0.96735 2.407094,-1.49306 3.797405,-1.5096 z m -10.201172,5.32422 c 2.235708,-0.12152 4.082189,2.42994 3.17468,4.5072 -0.700603,1.86995 -3.315831,2.82957 -4.912961,1.46936 -1.236721,-0.85792 -1.852412,-2.60979 -1.105563,-3.95753 0.508335,-1.10095 1.606507,-1.97115 2.843844,-2.01903 z m 46.671875,0.0176 c 2.229821,-0.0593 4.1447884,2.5659 3.0591635,4.62372 -0.768926,1.80812 -3.4026259,2.61356 -4.91407101,1.31955 -1.59476539,-1.10366 -1.85631579,-3.73184 -0.29352998,-4.98429 0.58208274,-0.54773 1.34110917,-0.92726 2.14843749,-0.95898 z m -11.3242187,10.87891 c 0.8617674,0.32673 0.6809541,1.47636 0.7195403,2.21601 -0.015133,5.65294 -4.0899726,11.14256 -9.6134436,12.47449 -5.277551,1.37692 -11.259318,-0.72237 -14.364162,-5.2498 -1.781075,-2.54531 -2.708293,-5.78483 -2.200919,-8.8743 0.476015,-0.92805 1.608085,-0.38837 2.356291,-0.18865 3.128486,1.10138 6.029633,2.97306 9.391756,3.30779 3.287228,0.43444 6.436105,-0.90967 9.347914,-2.26189 1.412815,-0.56332 2.799133,-1.36984 4.3354953,-1.42662 z m 16.8943535,8.69729 c -1.6409461,0.35339 -2.6894706,3.07508 -3.7427309,4.23894 -2.3465822,2.90112 -2.95791656,5.20763 -5.3138464,8.09794 -0.5349148,0.7045 0.095513,0.32942 -0.7532241,-0.32316 -0.7084351,-0.3549 -1.172892,1.05271 -0.5798076,0.33028 1.1194537,-1.91568 3.01021949,-4.23149 3.44465616,-6.52428 0.23783137,-1.20937 -0.22016957,-2.8935 -1.07617187,-3.75703 -0.65920669,-0.55893 -2.34240679,-1.37488 -2.75292009,-0.82306 -1.159613,1.60161 -3.1314258,5.42666 -4.1836977,7.10196 -1.5138321,2.59843 -3.3825813,4.96372 -5.3594533,7.22088 -1.027485,1.31994 -1.843036,5.5168 -1.104157,7.08321 0.803118,2.45166 2.413123,4.85953 4.954458,5.73233 2.6394026,1.12406 6.8457739,1.18474 9.64924335,0.77798 5.03761685,-0.60781 10.02894665,-2.35707 14.73970465,-4.2576 1.063452,-0.48983 3.46136,-2.29058 4.106918,-3.31329 0.30698,-0.80228 -0.729735,-3.32765 -1.516025,-3.08044 -1.772466,0.24539 -3.450465,0.96329 -5.041343,1.7092 -1.294248,0.55423 -3.9132088,1.79625 -3.4575171,1.42216 0.4553779,-0.41347 -0.2435989,0.37967 0.052574,-0.14237 2.4771771,-1.75525 5.5137601,-2.39219 8.1333841,-3.88394 0.58459,-0.31991 2.795933,-2.95938 2.324337,-3.68259 -0.487008,-0.85403 -1.577367,-1.89135 -2.358314,-1.6833 -2.014431,0.60062 -5.315571,1.88585 -7.146273,2.89191 -1.5257545,0.86904 -1.8962208,2.09668 -3.605956,2.55605 -0.847983,-0.0179 -0.7352715,0.10396 -0.40625,-0.40607 2.2343854,-2.91245 4.426669,-3.13744 7.485298,-5.06192 1.11803,-0.78077 3.672391,-2.59013 4.519782,-3.69168 0.563396,-0.80257 -0.405063,-3.50884 -1.406443,-3.41455 -1.449693,0.0318 -4.328828,1.45204 -5.567368,2.11171 -2.905236,1.77496 -5.3962072,4.11531 -8.0475578,6.22612 0.3062761,1.12876 -1.1963001,0.89054 -0.5422467,0.32238 1.449815,-2.28621 2.276863,-2.69302 4.0352313,-4.73192 1.0366558,-1.17538 3.7098382,-4.18543 4.3449122,-5.64047 0.218118,-0.92565 0.374545,-2.47186 -0.347074,-3.17109 z m -60.1453918,4.95373 c 1.654413,2.61156 4.098034,4.55275 6.04601,6.92011 0.957372,1.1295 0.83141,-0.30067 1.174703,1.16425 0.04908,0.59775 -2.731598,-3.36864 -4.39826,-3.86387 -2.542823,-2.00642 -5.082583,-4.16717 -8.137211,-5.34962 -0.808044,-0.32919 -2.073677,3.97866 -2.2135,5.00739 0.0145,1.02124 1.161445,1.4765 1.846187,2.02874 2.936182,2.03002 6.177938,3.63364 8.920126,5.93422 l -0.14277,-0.23289 c -3.498337,-1.41256 -6.487984,-3.96859 -10.197018,-4.86284 -0.66861,-0.15326 -1.703119,2.50326 -1.639416,3.30837 0.390547,0.98665 1.562926,2.52214 2.379346,3.05752 2.230752,1.19022 4.730182,1.85523 6.864795,3.22196 1.793722,0.79386 1.816776,0.48757 -0.396057,-0.0583 -2.584177,-0.78117 -4.800258,-2.50534 -7.441168,-3.11107 -0.634062,-0.10087 -1.382242,3.83265 -1.045588,4.54435 0.897515,1.26901 2.490116,1.71323 3.830305,2.35101 5.043192,2.00526 10.705113,3.8205 16.118725,4.33475 2.930552,0.14494 6.5172,0.0655 9.115811,-1.34881 3.977071,-2.34305 4.662424,-5.49486 4.390219,-8.00705 -0.214067,-2.60275 -2.16501,-5.41003 -3.875781,-7.22541 -2.404182,-2.76011 -3.744498,-6.21333 -5.581925,-9.33194 -0.434847,-0.65439 -1.47947,-2.06849 -2.35511,-1.56936 -2.261847,0.003 -3.082561,5.25616 -2.402688,6.68433 0.379713,1.08828 1.424516,1.73352 2.164741,2.49334 0.868294,0.99393 1.649374,0.26698 1.182394,1.61838 -0.532878,0.94375 -0.939758,-0.30514 -1.581606,-1.13284 -1.944049,-1.78441 -2.904644,-4.32097 -4.439166,-6.41985 -1.412679,-2.11248 -3.084797,-3.41822 -5.202255,-4.89808 -0.360375,-0.20138 -2.016368,0.76712 -2.436691,0.80171 z"
         sodipodi:nodetypes="ccccccccccccccccccccccccccccccccccccccccccccccccccccccccccccccccccccccccccccccccccccccccccccccccccccccccccccccccccccccccccccccc" /><path
         style="fill:#feaa02"
         d="m -41.521741,-241.69135 c -12.045937,-0.91676 -23.552844,-7.22165 -20.513623,-11.23986 0.535273,-0.70769 0.49927,-1.34301 -0.152396,-2.68917 -0.897663,-1.85432 -0.458776,-3.63871 1.152998,-4.68775 0.894045,-0.5819 0.895481,-0.6783 0.03626,-2.43449 -0.907673,-1.85522 -0.725241,-2.97389 0.720804,-4.41993 l 1.043897,-1.0439 2.138301,0.1649 2.138302,0.16489 -0.124109,-0.72157 c -0.06826,-0.39686 -0.444532,-1.79313 -0.836161,-3.10282 -6.717137,-22.4635 9.696621,-45.39649 33.181148,-46.36008 25.7553064,-1.05677 44.06213,22.8608 36.342258,47.48055 -0.720011,2.29622 -0.687381,3.17042 0.106326,2.84869 4.110093,-1.66603 7.840713,2.11882 5.375312,5.45345 -0.720929,0.97511 -0.696861,1.15162 0.248846,1.82502 1.640048,1.16782 2.023761,3.15872 1.002794,5.20301 -0.544261,1.08978 -0.554204,1.20786 -0.158395,1.88106 1.594401,2.71182 0.115167,5.03143 -4.678008,7.33565 -11.797469,5.67139 -24.005948,5.96769 -28.614186,0.69446 l -0.826096,-0.9453 -2.230344,0.32247 c -2.829728,0.40914 -6.906389,0.4155 -9.538455,0.0149 l -2.043906,-0.3111 -1.07264,1.21858 c -2.389212,2.71429 -6.564577,3.81522 -12.698923,3.34836 z m 5.819241,-1.84975 c 7.816378,-1.26812 10.340802,-8.59052 4.975027,-14.43067 -2.32385,-2.52929 -3.719214,-4.64083 -5.391057,-8.15802 -1.773824,-3.73174 -2.256723,-4.19801 -3.898973,-3.7647 -2.604924,0.6873 -2.196316,5.0995 0.744612,8.04043 1.883511,1.88351 1.865737,3.15961 -0.04093,2.93827 -0.855474,-0.0993 -1.370397,-0.75926 -4.195311,-5.37693 -3.947006,-6.45186 -6.496357,-8.60593 -8.185756,-6.91653 -1.584695,1.58469 -0.710025,3.43366 3.946867,8.3433 3.301427,3.4806 4.132578,4.59159 3.73357,4.99059 -0.299483,0.29949 -2.047799,-0.73914 -3.417089,-2.03 -5.218201,-4.91931 -10.196342,-7.48756 -11.665559,-6.01835 -1.546393,1.5464 -0.09932,3.48476 4.756173,6.37091 4.49952,2.67456 6.20111,3.87858 6.616383,4.68163 0.649655,1.25629 -0.124832,1.24262 -2.324354,-0.041 -4.211434,-2.45779 -5.157674,-2.9706 -6.612271,-3.5835 -2.554969,-1.07653 -4.17516,-0.66463 -4.17516,1.06145 0,1.6842 1.657832,2.83186 7.537383,5.21789 2.127724,0.86347 3.477131,1.8598 3.176871,2.34563 -0.325967,0.52743 -1.289251,0.22911 -4.315961,-1.33661 -3.816991,-1.97453 -4.76589,-2.17414 -5.733828,-1.20621 -3.651459,3.65146 14.989275,10.41047 24.469359,8.87243 z m 39.8213843,-0.50425 c 10.1039047,-2.09892 17.6217107,-6.77846 13.9741647,-8.69838 -0.967472,-0.50924 -1.473366,-0.36856 -5.090598,1.4156 -3.7061787,1.82803 -4.5179417,2.04583 -4.5179417,1.2122 0,-0.6781 1.0930959,-1.31309 4.8248567,-2.80281 4.95782,-1.97916 6.79458,-3.74436 5.574051,-5.35688 -1.152837,-1.52308 -3.216242,-0.90073 -9.8597691,2.97384 -2.7122828,1.58183 -3.184972,1.72456 -3.184972,0.96173 0,-0.74529 1.656304,-2.10216 5.0394081,-4.12839 6.9499,-4.16247 8.263795,-5.64315 6.589211,-7.42567 -1.409212,-1.50003 -5.765333,0.66089 -11.3037299,5.60739 -5.47715048,4.89181 -5.34385529,2.94896 0.200736,-2.92583 4.7636039,-5.04729 5.6353689,-7.33856 3.1792018,-8.35593 -2.1129611,-0.87522 -4.7788497,2.06237 -9.90982981,10.91983 -0.98449229,1.69949 -2.39749579,2.33198 -3.26708049,1.46239 -0.562172,-0.56217 -0.3483134,-1.01913 1.2615954,-2.69568 2.37106941697,-2.46922 2.99015279,-4.64704 1.92622262,-6.7761 -1.18490662,-2.37114 -3.29962782,-1.74251 -4.44932342,1.32262 -1.0039067,2.67645 -3.3334237,6.30905 -5.9742072,9.31605 -3.824593,4.35499 -4.075974,7.74789 -0.857441,11.5729 2.5488574,3.02915 8.4890684,3.92929 15.8454453,2.40112 z m -19.7068093,-3.87407 c 0.217253,-0.21743 0.179703,-0.69284 -0.14218,-1.80008 -0.861432,-2.96322 0.218428,-6.16666 3.158819,-9.37075 2.554019,-2.78307 4.2400203,-5.44899 6.051124,-9.56809 1.7885765,-4.06787 5.88476117,-4.62398 7.7330082,-1.04987 0.5677675,1.09794 0.6954387,1.04219 2.9844241,-1.30337 2.6657249,-2.73161 4.5119455,-3.31159 6.8107977,-2.13957 2.999697,1.52933 3.675303,-11.48321 1.015705,-19.56304 -13.1557671,-39.96712 -74.626245,-24.79166 -67.196531,16.58907 0.728518,4.05757 0.830452,4.18758 2.431397,3.10115 2.180539,-1.47975 5.143971,-0.42804 7.538143,2.67525 1.251826,1.6226 1.651914,1.74273 2.209971,0.66356 2.000277,-3.86811 6.336098,-2.94127 8.172341,1.74694 1.014418,2.58996 3.1832,5.97312 5.586692,8.71487 3.279132,3.74062 4.021281,6.12782 3.20836,10.32004 -0.198589,1.02412 -0.1694,1.11119 0.413449,1.23331 1.255671,0.26311 9.722867,0.0524 10.02448,-0.24942 z"
         id="path64"
         sodipodi:nodetypes="cssssscccssssssssssscsscsccssscssssssssssccsssscssssssssssssssssssssssscsssssssssssssscc" /><path
         style="fill:#383943"
         d="m -34.935283,-278.10054 c -0.0665,-2.42001 0.799287,-2.63604 4.170957,-1.03296 6.98933,3.32318 10.25173,3.34232 17.176028,0.1008 3.6117656,-1.6908 4.5189818,-1.32549 4.5106778,0.45774 -0.01307,2.80742 -1.1315858,6.19806 -3.2157808,8.25911 l -1.690036,1.67127 -1.242061,-1.18223 c -2.681646,-2.55246 -4.32929,-3.00659 -5.521138,-1.2056 -0.87649,1.32447 -1.29477,1.32104 -2.04668,-0.0168 -1.05083,-1.8697 -3.19765,-1.34271 -5.65234,1.3875 -1.42799,1.58827 -0.636019,1.60257 -2.583833,0.30495 -3.013657,-2.00769 -3.852003,-6.78484 -3.905794,-8.74378 z m -3.742526,-10.45219 c -3.312111,-4.08118 0.873581,-9.20816 5.124961,-7.93441 2.65756,0.79622 4.934664,4.60508 3.071359,6.98487 -0.23032,0.29416 -0.4267,0.32474 -1.28981,0.0661 -1.82861,-0.54786 -2.261631,-0.59262 -3.347471,0.70638 -1.219321,2.06337 -2.29816,1.73071 -3.559039,0.17706 z m 29.5711692,0.37795 c -1.0110842,-1.2766 -1.6799772,-1.47965 -3.4641822,-1.05163 -1.655465,0.39714 -1.817088,-0.48911 -1.822901,-2.58393 -0.0091,-3.29658 3.471366,-5.65815 6.5087148,-4.27935 2.850953,1.29418 3.8961683,6.08072 1.4464513,8.00766 -0.885924,0.69687 -1.7024249,1.12649 -2.6680829,-0.0927 z"
         id="path47"
         sodipodi:nodetypes="ccssscssssscsssccssscssss" /><path
         style="fill:#eb4e4c"
         d="m -25.638043,-266.12885 c -0.459776,-0.23132 -3.643895,-1.45794 -3.835736,-1.84572 -0.04023,-0.15973 1.07759,-2.41709 3.682857,-3.7643 1.22041,-0.63108 2.334451,-0.27096 3.067741,0.92036 0.36899,0.59945 0.341323,0.76954 0.700313,0.86036 0.65687,0.16617 1.093275,-0.63302 1.902377,-1.59823 0.209152,-0.24951 0.953787,-0.32802 1.26294,-0.40005 0.927403,-0.21609 4.730369,3.05758 4.31788,3.73318 -1.698608,2.78208 -7.961632,3.15536 -11.098372,2.0944 z"
         id="path58"
         sodipodi:nodetypes="sssssssss" /><circle
         style="fill:#feaa02;fill-opacity:1;fill-rule:evenodd;stroke-width:0.0901358"
         id="path89"
         cx="-44.592701"
         cy="-288.41681"
         r="3.6747417" /><circle
         style="fill:#feaa02;fill-opacity:1;fill-rule:evenodd;stroke-width:0.0901358"
         id="circle89"
         cx="1.658778"
         cy="-287.78314"
         r="3.6747417" /></g></g></svg>
