<?xml version="1.0" encoding="UTF-8" standalone="no"?>
<svg
   width="1024"
   height="1024"
   version="1.1"
   id="svg5"
   sodipodi:docname="logo-adiseniar.svg"
   xml:space="preserve"
   inkscape:version="1.3.2 (1:1.3.2+202311252150+091e20ef0f)"
   xmlns:inkscape="http://www.inkscape.org/namespaces/inkscape"
   xmlns:sodipodi="http://sodipodi.sourceforge.net/DTD/sodipodi-0.dtd"
   xmlns="http://www.w3.org/2000/svg"
   xmlns:svg="http://www.w3.org/2000/svg"><sodipodi:namedview
     id="namedview5"
     pagecolor="#ffffff"
     bordercolor="#666666"
     borderopacity="1.0"
     inkscape:showpageshadow="2"
     inkscape:pageopacity="0.0"
     inkscape:pagecheckerboard="0"
     inkscape:deskcolor="#d1d1d1"
     inkscape:zoom="0.57269162"
     inkscape:cx="441.77353"
     inkscape:cy="547.41503"
     inkscape:window-width="1920"
     inkscape:window-height="1027"
     inkscape:window-x="0"
     inkscape:window-y="25"
     inkscape:window-maximized="1"
     inkscape:current-layer="g42"
     inkscape:export-bgcolor="#ffffffff"><inkscape:page
       x="0"
       y="0"
       width="1024"
       height="1024"
       id="page40"
       margin="0"
       bleed="0"
       inkscape:export-filename="logo-adiseniar.svg"
       inkscape:export-xdpi="100"
       inkscape:export-ydpi="100" /></sodipodi:namedview><defs
     id="defs2"><filter
       inkscape:collect="always"
       style="color-interpolation-filters:sRGB"
       id="filter1"
       x="-0.19407793"
       y="-0.19458536"
       width="1.3881559"
       height="1.3891707"><feGaussianBlur
         inkscape:collect="always"
         stdDeviation="61.35477"
         id="feGaussianBlur1" /></filter></defs><defs
     id="defs4" /><g
     inkscape:groupmode="layer"
     id="layer8"
     inkscape:label="Layer 6"
     transform="translate(-2326.8673,-1224.2918)"><g
       id="g42"
       transform="matrix(1.385423,0,0,1.385423,-44.21793,1738.9864)"
       inkscape:label="Logo"><rect
         style="display:none;opacity:0.708905;mix-blend-mode:normal;fill:#cde6e6;fill-opacity:1;fill-rule:evenodd;stroke-width:7.21801;paint-order:fill markers stroke;filter:url(#filter1)"
         id="rect1"
         width="758.72333"
         height="756.74475"
         x="1706.2654"
         y="-379.75372"
         ry="1.0738666" /><path
         id="path41"
         style="display:inline;fill:#800000;fill-opacity:1;stroke-width:0.937654"
         d="m 2081.5459,-173.99242 c -22.0949,-0.28087 -44.2295,4.1203 -64.0993,13.72268 -37.5014,16.85056 -66.1075,48.97502 -80.6458,87.223752 -14.0985,37.092602 -12.7525,79.3431246 3.6273,115.500886 1.5847,3.496501 3.303,6.966326 5.274,10.263107 1.4505,2.42571 3.813,5.379797 4.6353,8.042733 0.5242,1.697144 0.2416,4.336386 0.2679,6.122616 l 0.1001,13.818548 c 0.023,3.204901 -0.1014,6.595128 0.7641,9.709076 0.6422,2.310369 1.8613,4.633303 3.2424,6.586435 7.6569,10.818637 17.4694,20.662967 26.1258,30.711797 8.3451,9.68689 16.2529,20.32727 25.3322,29.29498 l -0.2608,70.37843 0.055,22.75366 c 0.035,7.97942 0.046,15.65968 1.899,23.48533 3.0408,12.84864 10.0461,25.85556 19.3335,35.27803 14.3405,14.54955 33.0293,23.65312 53.6671,23.67 19.6916,0.015 38.9834,-8.14081 52.8578,-22.15591 9.4834,-9.57813 16.2482,-21.52206 19.545,-34.61262 1.8735,-7.4384 1.9996,-15.38667 2.0343,-23.01447 l 0.033,-22.21089 0.02,-55.04863 V 161.5084 c 0,-0.8167 -0.2926,-3.43669 0,-4.09961 0.4491,-1.01642 1.996,-2.52239 2.7405,-3.45816 l 8.0992,-9.84864 23.4641,-27.88098 c 6.3808,-7.41777 13.2678,-14.88295 19.0925,-22.731106 l 0.578,-0.755636 c 1.1027,-2.00657 0.415,-23.203636 0.4216,-26.73484 0,-1.392406 -0.3516,-4.060753 0.011,-5.333149 0.7408,-2.601051 3.7152,-6.178256 5.0991,-8.668664 l 6.5681,-13.232084 c 12.1942,-27.538859 15.7874,-60.684296 8.4925,-89.978442 -2.151,-12.126656 -6.8619,-24.848684 -12.1156,-35.950494 -17.0896,-36.113695 -48.0984,-64.654785 -85.8633,-77.920695 -16.0512,-5.63851 -33.2128,-8.68986 -50.3978,-8.90832 z m -3.2523,26.85749 c 13.5193,-0.12506 27.0668,1.94468 40.3983,6.02393 9.9738,3.60341 18.8851,7.81377 28.0516,13.19121 0.6666,1.00985 3.5572,2.46001 4.7283,3.25233 l 8.3022,6.21002 c 19.4366,15.94198 34.074,38.440597 41.0707,62.545778 8.6442,29.780789 5.8977,63.9824924 -9.0888,91.385392 -1.4505,0.886073 -5.3709,0.297873 -7.2462,0.276307 l -23.8194,-0.273494 -0.2058,-46.114922 c 5.3587,-2.234419 9.9226,-5.678496 13.2363,-10.483033 5.474,-7.935353 8.0045,-17.07125 6.148,-26.675627 -1.5631,-8.087253 -6.8203,-16.4969 -13.7777,-21.029508 -7.5818,-4.939559 -17.0823,-6.870282 -25.9891,-4.866525 -8.8392,1.987825 -16.6688,7.876468 -21.3636,15.551154 -4.2935,7.01739 -5.9624,16.861722 -3.9783,24.882402 l 0.2199,0.868417 0.836,3.047918 c 2.9461,8.871132 8.614,14.428652 16.8157,18.510258 0.8486,8.16039 0.1155,17.094832 0.09,25.326484 l -0.1156,52.214986 47.9983,-0.08176 -0.1705,12.788011 c -0.014,1.051109 0.2464,3.435778 -0.056,4.312475 -0.1369,0.398503 -1.2004,1.438755 -1.4817,1.77631 l -4.5042,5.440294 -41.1821,49.843763 c -1.3174,1.68589 -4.2799,4.5918 -5.0244,6.48211 -1.1318,2.87484 -0.1179,89.02714 -0.089,100.0033 l -94.9747,-0.11701 -0.084,-28.67891 0.1635,-47.74884 0.1635,-17.116 c 0.018,-1.74966 0.4249,-4.52031 0.068,-6.18183 -0.4388,-2.04221 -36.8116,-45.13068 -40.5379,-49.456065 -2.0187,-2.343197 -12.5186,-13.663583 -12.8796,-14.91535 -0.2869,-0.993913 -0.035,-3.123859 -0.048,-4.249043 l -0.1452,-12.600499 48.3564,0.401784 -0.2368,-77.103033 c 1.5884,-0.672297 3.0992,-1.60274 4.5507,-2.534768 6.2748,-4.029088 11.498,-12.036603 13.0883,-19.274342 l 0.1706,-0.793705 c 1.4346,-6.223198 1.1094,-12.690805 -0.9319,-18.752726 -2.7164,-8.067572 -9.0878,-15.315597 -16.7156,-19.078392 -8.8927,-4.387281 -18.1378,-4.821499 -27.4862,-1.643791 -7.8941,2.683565 -15.0825,8.727315 -18.6315,16.327935 -3.8632,8.271971 -4.4041,17.789211 -1.1673,26.352793 3.4759,9.192746 10.3004,15.932591 19.2137,19.8960533 l -0.2086,45.9175547 -31.6366,-0.115603 -4.1335,-10.136233 c -11.9335,-32.4821596 -12.5869,-67.622652 2.2655,-99.304055 14.3949,-30.703445 39.5497,-54.909045 71.7431,-66.357785 13.2209,-4.70139 26.7127,-7.02105 40.232,-7.14611 z" /><path
         fill="url(#gradient_1)"
         d="m 2036.7953,-203.44731 c -34.519,7.525 -67.512,28.981 -91.347,54.527 -32.308,34.626 -45.1737,83.077665 -47.658,128.783 -3.0604,56.304177 41.168,164.076 41.168,164.076 l -62.931,63.021 -60.523,-60.179 60.096,-60.047 -8.305,-18.478 c -7.814,-19.272 -13.738,-40.518 -15.82,-61.2459998 l -93.595,0.136 -0.107,-83.6440002 92.715,0.757 c 2.504,-21.793 8.886,-42.732 18.801,-62.309 2.571,-5.076 5.112,-10.327 8.347,-15.009 l 0.379,-0.537 c -0.574,-1.224 -2.265,-2.494 -3.261,-3.455 l -7.599,-7.481 -53.48,-53.831 63.627,-63.456 65.778,63.913 c 18.484,-13.176 37.744,-24.689 59.393,-31.941 12.296,-4.119 24.948,-6.721 37.648,-9.229 l -0.028,-82.499 80.885,-0.008 -0.05,55.236 c 0,9.14 -0.717,18.951 0.29,28 l 2.117,0.761 c 4.483,0.043 9.154,1.365 13.508,2.366 29.187,6.706 58.58,19.444 82.338,37.846 l 64.055,-62.973 51.111,51.497 8.363,8.474 c 0.751,0.748 1.924,1.595 2.242,2.615 l -62.382,62.554 c 5.1,7.295 8.876,15.06 12.58,23.133 7.86,17.131 14.216,35.807 16.978,54.513 l 91.818,0.147 -0.198,81.3300002 -92.647,0.288 c -2.27,21.6189998 -6.019,40.9449998 -15.441,60.7379998 l -10.806,20.524 61.664,61.242 -61.368,61.871 -64.244,-63.66 c 0,0 46.9752,-111.337488 42.842,-169.452 -3.3199,-46.678712 -18.708,-94.864 -53.328,-129.867 -34.224,-34.604 -81.451,-54.033 -130.012,-54.259 -11.722,-0.054 -23.132,0.886 -34.647,3.168 -2.804,0.556 -6.356,0.975 -8.966,2.044 z"
         id="path42"
         style="display:inline;fill:#0c2155;fill-opacity:1"
         sodipodi:nodetypes="ccacccccccccccccccccscccccccccccccscccccccccacccc" /></g></g></svg>
