<?xml version="1.0" encoding="utf-8" ?>
<svg xmlns="http://www.w3.org/2000/svg" xmlns:xlink="http://www.w3.org/1999/xlink" width="1024" height="1024">
	<path transform="scale(1.6 1.6)" d="M445.011 464.415C449.831 462.77 456.019 469.412 455.238 474.071C454.1 480.857 447.967 486.727 442.572 490.5C431.263 498.408 418.872 497.224 405.881 497.228L150.431 497.235C142.654 497.232 135.014 497.461 127.328 496.021C104.008 491.654 86.2076 471.369 83.343 448.135C82.7046 442.958 82.8368 437.774 82.8344 432.569L82.8273 246.223C82.8281 240.882 82.5151 235.251 83.5812 229.994C87.6245 210.057 105.362 197.764 125.145 198.194C128.63 198.27 133.339 198.043 135.147 201.776L135.4 202.344C136.196 204.052 136.492 205.625 136.473 207.517L136.466 207.858C135.602 212.429 134.826 216.297 130.156 218.117L129.838 218.246C122.217 221.125 111.109 214.64 104.376 228.438L103.23 231.329C102.306 233.909 102.509 236.729 102.507 239.428L102.507 421.636C102.513 429.462 102.16 437.492 102.723 445.296C103.939 462.165 119.785 476.672 136.367 477.53L420.854 477.547C431.248 477.041 437.653 470.917 445.011 464.415Z"/>
	<path fill="#00B0D5" transform="scale(1.6 1.6)" d="M136.466 207.858L153.912 207.831L154.035 404.524C154.037 412.149 153.497 420.26 154.148 427.827C155.122 439.165 165.203 437.648 173.436 437.643L428.266 437.529C436.051 437.412 443.589 437.324 447.617 430.287C447.826 430.726 447.938 430.968 447.993 431.459L447.833 431.764C445.983 435.469 443.569 460.259 444.922 464.415C437.653 470.917 431.248 477.041 420.854 477.547L136.367 477.53C119.785 476.672 103.939 462.165 102.723 445.296C102.16 437.492 102.513 429.462 102.507 421.636L102.507 239.428C102.509 236.729 102.306 233.909 103.23 231.329L104.376 228.438C111.109 214.64 122.217 221.125 129.838 218.246L130.156 218.117C134.826 216.297 135.602 212.429 136.466 207.858Z"/>
	<path transform="scale(1.6 1.6)" d="M509.025 149.742C511.323 149.535 514.283 149.294 516.514 149.896L517.832 150.274C527.28 153.302 529.886 164.023 533.204 172.188L551.374 213.072C553.691 218.992 553.873 220.615 553.889 227.066L553.828 458.236C553.216 478.209 536.116 494.596 516.797 496.752C495.305 500.103 471.449 482.026 470.986 459.839L470.798 228.75C470.274 218.082 472.738 214.039 477.139 204.375L492.61 169.471C496.315 160.831 498.936 152.559 509.025 149.742Z"/>
	<path fill="#FE3D3B" transform="scale(1.6 1.6)" d="M512.236 175.998C515.149 180.409 517.109 185.452 519.433 190.188L525.85 203.553C527.015 206.185 527.885 209.583 529.207 211.983L529.515 212.516C528.876 212.911 526.537 212.679 525.7 212.682L512.969 212.723L495.045 212.606L512.236 175.998Z"/>
	<path fill="#FE3D3B" transform="scale(1.6 1.6)" d="M490.474 445.408L519.517 445.322C524.337 445.327 529.608 444.923 534.37 445.563C534.675 454.943 534.818 463.3 527.914 470.509C518.594 478.594 505.67 479.384 496.628 470.325C489.91 463.594 490.446 454.236 490.474 445.408Z"/>
	<path fill="#219974" transform="scale(1.6 1.6)" d="M490.865 232.827L534.306 232.819C535.043 239.074 534.511 246.026 534.523 252.36L534.588 425.965L491.027 425.85C490.701 424.867 490.864 423.536 490.863 422.484L490.865 232.827Z"/>
	<path transform="scale(1.6 1.6)" d="M154.033 207.812L154.02 149.892C154.024 147.273 153.751 144.417 154.447 141.875L154.564 141.423C155.816 136.819 160.127 134.608 164.57 134.498L403.84 134.461C420.428 134.381 433.932 138.265 442.652 154.391L443.405 155.854C448.221 165.278 447.259 176.424 447.26 186.67L447.278 392.05C447.283 399.778 445.677 418.276 449.483 425.017C450.302 426.466 449.955 428.626 448.906 429.876C448.72 428.536 449.626 426.748 448.885 425.625L448.827 426.19C448.662 427.565 448.064 428.977 447.617 430.287C443.589 437.324 436.051 437.412 428.266 437.529L173.436 437.643C165.203 437.648 155.122 439.165 154.148 427.827C153.497 420.26 154.037 412.149 154.035 404.524L154.033 207.812Z"/>
	<path fill="#91D5E5" transform="scale(1.6 1.6)" d="M220.005 153.938L389.527 153.928C409.378 153.886 427.277 150.108 427.294 177.842L427.365 417.759L381.172 417.869L173.794 417.924L173.784 154.058C175.222 153.788 176.898 153.956 178.361 153.955L220.005 153.938Z"/>
	<path transform="scale(1.6 1.6)" d="M207.392 333.185C213.516 332.801 216.381 335.741 220.645 339.762L231.679 350.781C234.566 353.679 237.847 356.383 240.399 359.576C245.357 365.781 242.102 373.353 234.97 375.477C227.436 375.95 224.291 371.597 219.36 366.49L209.238 356.314C204.077 351.444 195.947 346.438 200.634 338.071C202.213 335.251 204.425 334.056 207.392 333.185Z"/>
	<path transform="scale(1.6 1.6)" d="M377.782 332.868C384.566 332.515 391.359 340.888 387.693 347.245C385.446 351.141 380.818 354.588 377.623 357.822L368.362 367.225C364.626 371.01 361.597 374.46 356.346 375.992C354.117 376.045 352.315 375.7 350.329 374.617C339.773 368.863 346.911 360.331 352.325 354.909L361.432 345.866C366.365 341.001 370.819 334.721 377.782 332.868Z"/>
	<path transform="scale(1.6 1.6)" d="M352.015 200.074C361.642 199.405 367.101 209.035 373.13 215.041C376.454 218.351 380.361 221.266 383.405 224.809C388.965 231.28 387.894 240.407 379.214 242.836C372.757 243.485 369.91 240.48 365.679 236.011L358.664 228.723C354.74 224.748 350.316 220.853 346.848 216.494C341.547 209.829 343.999 202.501 352.015 200.074Z"/>
	<path transform="scale(1.6 1.6)" d="M230.479 199.5C237.877 199.912 243.159 208.548 238.854 215.103C237.377 217.352 235.22 219.083 233.246 220.878L217.921 236.092C214.557 239.534 212.185 242.274 207.288 243.168C205.154 242.907 203.505 242.624 201.708 241.31C192.128 234.308 199.436 226.049 205.414 220.165L215.947 209.96C220.45 205.578 223.788 200.229 230.479 199.5Z"/>
	<path transform="scale(1.6 1.6)" d="M286.741 220.131C338.968 218.485 369.129 277.163 336.053 316.995C325.913 329.207 310.529 337.014 294.764 338.427L294.033 338.494C243.371 342.534 210.364 280.724 244.941 241.443C255.931 228.958 270.089 221.219 286.741 220.131Z"/>
	<path fill="#FFF86D" transform="scale(1.6 1.6)" d="M268.635 312.513C240.968 294.647 246.55 254.722 277.258 241.941C280.781 244.25 273.696 251.976 272.22 254.249C262.458 269.284 261.165 286.037 267.629 302.648C268.933 306 272.226 309.817 268.635 312.513Z"/>
	<path fill="#FEDC3F" transform="scale(1.6 1.6)" d="M277.258 241.941C310.37 230.623 341.096 266.2 325.59 296.891C315.997 315.88 291.112 324.421 272.085 314.586L268.635 312.513C272.226 309.817 268.933 306 267.629 302.648C261.165 286.037 262.458 269.284 272.22 254.249C273.696 251.976 280.781 244.25 277.258 241.941Z"/>
</svg>
