<?xml version="1.0" encoding="UTF-8" standalone="no"?>
<svg
   width="1024"
   height="1024"
   version="1.1"
   id="svg10"
   sodipodi:docname="rocket.svg"
   xml:space="preserve"
   inkscape:version="1.3.2 (1:1.3.2+202311252150+091e20ef0f)"
   xmlns:inkscape="http://www.inkscape.org/namespaces/inkscape"
   xmlns:sodipodi="http://sodipodi.sourceforge.net/DTD/sodipodi-0.dtd"
   xmlns="http://www.w3.org/2000/svg"
   xmlns:svg="http://www.w3.org/2000/svg"><defs
     id="defs10" /><sodipodi:namedview
     id="namedview10"
     pagecolor="#ffffff"
     bordercolor="#666666"
     borderopacity="1.0"
     inkscape:showpageshadow="2"
     inkscape:pageopacity="0.0"
     inkscape:pagecheckerboard="0"
     inkscape:deskcolor="#d1d1d1"
     inkscape:zoom="0.40576172"
     inkscape:cx="717.16967"
     inkscape:cy="787.40794"
     inkscape:window-width="1920"
     inkscape:window-height="1027"
     inkscape:window-x="0"
     inkscape:window-y="25"
     inkscape:window-maximized="1"
     inkscape:current-layer="svg10" /><path
     id="path1"
     style="stroke-width:1.6;fill:#800000;fill-opacity:1"
     d="m 239.4043,694.6543 c -3.12437,0.24408 -6.22519,0.75323 -9.3066,1.30884 -1.84656,0.39047 -3.66238,0.91554 -5.44731,1.52709 -0.47459,0.1726 -1.27738,0.45519 -1.87414,0.69133 -7.41465,2.89516 -14.07999,7.46367 -19.94813,12.79891 -0.28914,0.27784 -0.87753,0.81953 -1.28122,1.19836 -4.76732,4.5305 -9.06188,9.54046 -12.99612,14.80555 -0.35549,0.49133 -0.96686,1.32161 -1.32749,1.81196 -1.13733,1.58573 -2.19135,3.10518 -3.29473,4.75697 -2.28904,3.42734 -4.33419,6.7412 -6.40385,10.30701 -6.61242,11.45718 -12.18621,23.52633 -17.11808,35.74636 -7.08538,17.73064 -12.89203,35.95367 -17.81093,54.39723 -2.6508,10.0012 -5.08963,20.20696 -7.28514,30.37442 -1.68598,7.76515 -4.33392,15.46506 -4.17652,23.50311 0.11082,1.76497 0.13558,3.8527 1.54565,5.12833 1.99664,1.32903 4.49661,0.67656 6.6732,0.27525 5.09968,-1.05255 10.01897,-2.8073 15.07997,-4.01748 11.25456,-3.09734 22.55788,-6.02417 33.76781,-9.28172 5.06427,-1.66845 10.18452,-3.16441 15.33911,-4.52202 23.24136,-7.75872 46.80163,-15.06609 68.63155,-26.37043 8.37634,-4.37082 16.47827,-9.33339 23.86383,-15.24376 1.42606,-1.15174 2.99855,-2.44383 4.4145,-3.72907 8.65949,-7.71257 15.93816,-17.1226 20.46397,-27.84508 2.24433,-5.16707 3.99445,-10.60591 4.58246,-16.22858 0.0711,-0.64408 0.13643,-1.56441 0.17188,-2.32032 0.006,-0.30775 0.0321,-1.04267 0.0312,-1.51172 0.0477,-7.16068 -2.61591,-14.11184 -6.61088,-19.97376 -4.92256,-7.39135 -11.33975,-13.60094 -17.57326,-19.86613 -6.97071,-6.86246 -13.9786,-13.69842 -20.52516,-20.97238 -7.07727,-7.5897 -14.15783,-15.39682 -22.94556,-21.05757 -5.55964,-3.47983 -12.02054,-5.7993 -18.64006,-5.6907 z" /><path
     fill="#F18E00"
     transform="scale(1.6 1.6)"
     d="M148.917 447.887C154.131 447.53 157.026 451.205 160.47 454.668L170.021 464.353C184.862 479.428 200.741 488.825 179.038 508.497C165.536 520.735 147.489 526.183 130.573 531.901L98.0801 541.555C99.074 536.06 100.806 530.687 102.227 525.29C107.833 503.991 122.538 452.568 148.917 447.887Z"
     id="path2"
     style="fill:#800000;fill-opacity:1" /><path
     id="path3"
     style="fill:#000000;fill-opacity:1;stroke-width:1.6"
     d="m 862.36133,143.92188 c -15.14294,0.79211 -30.31482,1.73228 -45.47064,2.61804 -22.83286,1.99576 -45.65046,5.05933 -68.22015,9.28507 -16.18861,3.0607 -32.36957,6.58115 -48.29871,11.05261 -17.58094,4.96194 -35.05802,11.0676 -51.93526,18.07936 -9.39128,3.89649 -18.79387,8.14977 -27.92237,12.62414 -12.81182,6.26169 -25.49751,13.15789 -37.72327,20.42012 -24.54787,14.60344 -48.03215,31.14452 -70.20905,49.19492 -12.8437,10.45029 -25.37115,21.49088 -37.35862,32.90554 -9.28499,8.84846 -18.3612,17.99254 -27.09492,27.32111 -9.66613,10.30665 -18.96078,20.9566 -27.97527,31.83659 -4.97971,5.97375 -10.07934,11.85149 -14.95217,17.9121 -1.35434,2.15594 -2.44339,4.75511 -4.86221,5.93749 -2.94897,1.34668 -6.29167,1.13691 -9.45431,1.10084 -30.67187,0.007 -61.34514,-0.0759 -92.01758,-0.0628 -2.3205,0.0425 -4.65025,-0.0892 -6.96446,0.0718 -5.8378,0.74838 -10.93495,4.05535 -15.41397,7.68219 -7.26402,5.82073 -13.5404,12.731 -19.73503,19.64561 -5.06883,5.67535 -10.15803,11.34197 -15.64414,16.62219 -27.17943,27.21607 -54.39411,54.39763 -81.54069,81.64606 -2.315,2.44183 -3.57752,5.82798 -3.3762,9.19223 0.024,4.8485 0.32991,9.70243 -0.0224,14.54626 -0.15296,4.05905 -0.35778,8.07673 -0.45699,12.09515 -0.0926,4.82171 -0.0858,9.67052 0.5453,14.45853 0.52636,3.27482 2.29745,6.57892 5.35119,8.11178 3.41578,1.72134 7.35663,1.35287 11.02452,0.91487 4.0372,-0.49467 7.87391,-1.34918 11.86423,-2.17127 14.20747,-3.01881 28.37474,-6.4945 42.3768,-10.48711 7.45848,-2.16716 14.89467,-4.45921 22.1114,-7.34438 1.19129,-0.4709 2.59578,-1.0526 3.84691,-1.61725 2.19854,-0.99491 4.33918,-2.14508 6.28395,-3.57806 -0.59258,-1.68834 -1.18537,-3.3766 -1.7793,-5.06446 4.76876,-0.89723 9.59915,-1.46249 14.45094,-1.60134 6.87242,-0.18022 13.76302,-0.26198 20.62348,0.25157 3.04783,0.27161 6.12305,0.66125 9.06062,1.50718 0.68958,0.19944 0.95661,0.85552 1.32004,1.40705 0.0538,0.9336 -0.23919,1.8691 -0.98636,2.47305 -1.44213,1.27643 -2.72229,2.73398 -4.11491,4.07434 -8.4676,8.47995 -16.84987,17.04742 -25.40654,25.43698 -5.77823,5.49225 -12.09414,10.62935 -16.43145,17.41464 -2.36436,3.81012 -3.33979,8.59369 -2.05145,12.94945 1.67619,6.3639 5.80016,11.6794 9.87124,16.70505 7.81788,9.56468 16.91325,17.96332 25.48697,26.82765 26.93132,27.38848 53.77143,54.86796 80.73032,82.23013 6.50957,6.37088 12.69477,13.15037 20.02251,18.61215 2.9878,2.12051 6.59695,3.95157 10.36714,3.43493 5.37599,-0.88948 9.8813,-4.21275 14.17084,-7.35866 11.10991,-8.4113 20.85647,-18.55516 32.5524,-26.20496 2.95967,-1.97251 6.26758,-3.81538 9.9221,-3.83889 1.35396,-0.40036 2.86089,0.59323 3.00781,2.00195 0.0972,0.97562 -0.084,1.94816 -0.005,2.92695 -0.0867,21.01375 -0.094,42.02912 -0.24139,63.0418 -0.39787,4.44363 -1.19283,8.84845 -1.34853,13.31369 -1.05497,14.75547 -1.96387,29.52133 -3.13021,44.26762 -0.70204,7.46877 -1.93523,14.97454 -1.18915,22.48952 0.2599,1.92471 0.7763,4.11202 2.57461,5.17729 2.71653,1.68088 6.05159,1.65944 9.14123,1.65829 4.29989,-0.11249 8.58653,-0.57398 12.89228,-0.50498 7.27672,-0.0652 14.56059,0.0862 21.83125,-0.26081 5.78113,-0.44104 11.65298,-2.21184 16.09426,-6.06977 5.71486,-4.75539 10.25388,-10.70506 15.60681,-15.83601 28.36941,-28.35749 56.73008,-56.72397 85.14208,-85.03866 6.37081,-6.253 12.88376,-12.46417 18.06896,-19.77235 1.28855,-1.83813 2.26146,-3.91114 2.59058,-6.14651 0.83237,-4.94188 0.10875,-9.96773 -0.49924,-14.89251 -0.59729,-4.45118 -1.19824,-8.9463 -1.28364,-13.45682 -1.0259,-19.27975 -2.34622,-38.55915 -2.30703,-57.87599 -0.0395,-7.22482 -0.22393,-14.45153 -0.17173,-21.67515 0.19682,-2.64696 2.0627,-4.95381 4.45154,-6.01047 5.94033,-3.26237 11.37322,-7.34053 16.94173,-11.18074 8.86203,-6.26503 17.40434,-12.99943 25.35423,-20.39438 11.85736,-10.66371 23.78426,-21.25166 35.58668,-31.97507 8.07525,-7.952 15.91199,-16.14589 23.49118,-24.57205 8.2959,-9.23729 16.38712,-18.8551 24.05431,-28.69193 5.08151,-6.50168 10.08208,-13.2414 14.87534,-20.03071 4.74698,-6.71461 9.41489,-13.66587 13.88874,-20.68765 13.32555,-20.91247 25.21029,-42.94168 35.392,-65.62356 4.21851,-9.37253 8.2313,-19.05985 11.87347,-28.66389 3.8511,-10.12352 7.41071,-20.44176 10.62903,-30.73195 6.21621,-19.91642 11.27069,-40.1038 15.25592,-60.58117 2.62534,-13.5085 4.80237,-27.1897 6.49839,-40.88932 0.66489,-6.49972 0.89489,-13.0332 1.3961,-19.54592 1.13133,-17.40678 2.36013,-34.80815 3.40889,-52.21971 0.10596,-5.40158 0.75402,-10.89144 -0.41281,-16.22482 -0.47064,-1.76667 -1.87486,-3.27178 -3.68948,-3.66114 -3.33178,-1.05061 -6.88167,-0.95518 -10.33396,-0.9326 z" /><path
     fill="#6A7B7D"
     transform="scale(1.6 1.6)"
     d="M193.814 357.656L271.237 434.619C270.06 436.267 267.417 437.889 265.817 439.203L251.234 450.987C250.772 451.336 250.401 451.446 249.844 451.587L174.595 375.681C179.898 369.003 187.213 363.057 193.814 357.656Z"
     id="path4"
     style="fill:#c5582e;fill-opacity:1" /><path
     fill="#573836"
     transform="scale(1.6 1.6)"
     d="M524.045 106.593L532.332 106.563C533.421 116.453 529.729 147.518 528.211 157.236L520.443 194.959C517.81 191.643 514.654 188.607 511.72 185.551L486.912 161.426L444.569 118.824C465.695 111.023 501.903 108.144 524.045 106.593Z"
     id="path5"
     style="fill:#7ec1d3;fill-opacity:1" /><path
     fill="#573836"
     transform="scale(1.6 1.6)"
     d="M164.183 338.78C161.65 327.605 162.552 327.432 150.869 329.685C142.041 331.387 133.421 334.041 124.685 336.143C110.689 339.511 114.028 340.229 114.068 326.427C115.076 324.227 118.404 322.079 120.269 320.386L178.011 261.764C179.964 259.751 181.705 257.594 184.026 255.986L236.251 256.309C233.933 258.617 232.062 261.96 230.166 264.638C219.435 279.796 209.678 295.848 201.047 312.289C196.45 321.045 192.532 331.68 185.559 338.823C181.654 337.931 167.786 338.075 164.183 338.78Z"
     id="path6"
     style="fill:#c5582e;fill-opacity:1" /><path
     fill="#573836"
     transform="scale(1.6 1.6)"
     d="M380.38 404.219L381.444 422.969C381.902 431.099 382.419 438.001 382.643 446.406L383.171 453.463C383.314 456.663 382.238 457.456 379.988 459.723L319.441 519.343C317.944 520.805 315.906 522.365 314.673 524.025L314.277 524.557C311.901 527.191 306.359 526.448 303.047 526.545L300.683 526.094C301.69 519.177 301.357 511.899 301.543 504.922C301.677 499.899 302.555 494.998 302.621 489.942C302.822 474.359 301.859 458.518 303.608 443.038L380.38 404.219Z"
     id="path7"
     style="fill:#c5582e;fill-opacity:1" /><path
     fill="#0087AF"
     transform="scale(1.6 1.6)"
     d="M424.643 126.094L514.58 213.587L496.187 256.75C476.375 295.975 445.669 331.363 411.718 359L385.761 378.143C356.39 398.604 327.699 412.938 294.769 427.063L291.423 428.502L229.61 366.578C221.996 358.943 213.304 351.843 206.683 343.319C209.313 335.882 213.146 328.705 216.788 321.717L227.066 302.791L252.56 263.127C288.118 213.152 334.992 166.566 390.949 139.771C401.722 134.612 413.011 128.953 424.643 126.094Z"
     id="path8"
     style="fill:#0c2155;fill-opacity:1" /><path
     transform="scale(1.6 1.6)"
     d="M405.611 185.787C409.154 185.805 413.222 185.52 416.637 186.47C479.935 204.091 466.501 284.841 408.036 289.03C361.529 289.602 337.811 234.185 367.018 202.655C376.624 192.285 391.651 186.248 405.611 185.787Z"
     id="path9" /><path
     fill="#5D5F53"
     transform="scale(1.6 1.6)"
     d="M403.414 204.182C448.238 201.593 453.041 264.861 408.826 270.268C406.358 270.313 403.817 270.455 401.368 270.121L400.781 270.038C365.545 265.412 360.24 208.876 403.414 204.182Z"
     id="path10"
     style="fill:#7ec1d3;fill-opacity:1" /></svg>
