<?xml version="1.0" encoding="utf-8" ?>
<svg xmlns="http://www.w3.org/2000/svg" xmlns:xlink="http://www.w3.org/1999/xlink" width="1024" height="1024">
	<path transform="scale(1.6 1.6)" d="M228.065 81.8712L393.926 82.0637C407.981 83.2815 420.447 93.8274 422.345 108.137C422.767 111.315 422.592 114.682 422.599 117.889L422.68 191.266C473.859 192.943 519.307 228.082 531.802 278.125C533.073 283.215 533.465 288.161 534.334 293.28L534.622 295.557C536.23 326.579 526.02 356.462 504.881 379.6C484.857 401.518 452.738 417.319 422.694 418.649C422.308 421.736 422.567 425.071 422.568 428.198L422.566 525.861C422.557 531.213 422.593 534.758 420.647 539.771C410.289 560.577 396.892 559.696 375.728 559.71L172.269 559.707C167.997 559.706 163.756 559.846 159.531 559.101L157.812 558.758C155.953 558.337 154.134 557.715 152.417 556.875L151.875 556.604C142.348 551.973 134.272 541.328 133.87 530.513L133.823 110.863C134.313 99.8349 141.411 89.561 151.358 84.9059C161.352 80.2289 172.287 81.9141 183.016 81.8994L228.065 81.8712Z"/>
	<path fill="#585665" transform="scale(1.6 1.6)" d="M179.919 93.7704L392.424 93.8325C394.863 93.956 397.3 94.3531 399.523 95.4071L400 95.6411C410.469 100.695 410.881 110.762 410.873 121.224L376.137 121.259L145.372 121.258C145.32 93.2013 155.012 93.832 179.919 93.7704Z"/>
	<path transform="scale(1.6 1.6)" d="M261.089 102.585L288.55 102.463C293.171 102.463 307.562 99.9665 308.755 106.623L309.016 108.316C309.152 110.204 308.221 112.171 307.031 113.585L305.353 114.017L273.387 114.369C268.878 114.366 263.814 114.784 259.355 114.118C254.566 113.403 257.339 104.275 261.089 102.585Z"/>
	<path fill="#585665" transform="scale(1.6 1.6)" d="M225.441 516.813L410.865 516.86C410.808 522.029 411.074 527.522 410.195 532.617L409.846 534.412C405.301 550.942 386.364 547.744 373.628 547.753L331.719 547.766L163.416 547.649C146.799 546.902 145.49 529.816 145.484 517.178C147.811 516.223 217.285 516.813 225.441 516.813Z"/>
	<path transform="scale(1.6 1.6)" d="M277.141 525.45L287.669 525.642C295.844 525.98 299.783 529.13 295.369 536.886C293.953 537.457 291.306 537.259 289.723 537.325L279.65 537.315C276.313 537.307 273.513 537.54 270.392 536.141C265.964 528.38 270.304 525.866 277.141 525.45Z"/>
	<path fill="white" transform="scale(1.6 1.6)" d="M409.212 203.565C416.487 202.923 425.74 202.931 432.888 203.885C487.462 211.172 529.337 261.454 522.255 316.406C515.993 364.99 473.296 401.24 425.39 406.203C417.254 405.539 409.007 407.739 400.805 405.686C396.01 404.486 391.155 403.709 386.403 402.274C349.349 391.079 314.604 353.922 311.389 314.877C306.614 256.9 351.349 208.025 409.212 203.565Z"/>
	<path transform="scale(1.6 1.6)" d="M466.735 240.363L467.969 240.259C476.888 240.048 474.308 251.584 474.309 257.245L474.304 284.242C475.507 284.711 476.89 284.72 478.158 284.95C495.907 288.168 496.874 314.543 479.665 320.254C478.028 320.797 476.203 321.047 474.511 321.428C473.986 329.381 474.36 337.562 474.34 345.54C474.325 351.468 475.496 362.579 465.649 359.398C459.481 357.405 453.433 353.625 447.568 350.812L426.985 341.756C417.327 337.675 407.608 333.596 397.287 331.543C397.462 338.253 399.684 345.161 400.952 351.765L405.666 378.594C405.939 380.084 405.822 381.087 405.48 382.543L405.361 383.039L404.402 384.42C400.527 386.323 374.529 384.419 370.206 383.699C366.426 378.018 360.935 338.708 360.522 331.923C350.074 330.064 344.692 321.311 344.668 311.412L344.658 302.818C344.658 280.808 341.956 272.322 369.561 272.284L398.663 272.226C400.971 272.145 403.444 270.823 405.55 269.926L453.897 246.867C458.182 244.725 462.281 242.128 466.735 240.363Z"/>
	<path fill="white" transform="scale(1.6 1.6)" d="M474.334 297.642C478.803 299.21 481.827 302.414 478.281 306.536C477.132 307.326 475.684 307.55 474.349 307.889L474.334 297.642Z"/>
	<path fill="#FC0000" transform="scale(1.6 1.6)" d="M372.116 331.923L386.182 332.149L392.031 372.753L379.16 372.585L372.116 331.923Z"/>
	<path fill="#3FA9EB" transform="scale(1.6 1.6)" d="M357.704 284.531C361.245 283.996 365.12 284.631 368.342 284.66L395.167 285.197C395.515 287.923 395.227 291.029 395.226 293.789L395.215 312.859C395.214 314.293 395.656 319.096 394.896 320.101L372.385 320.122C368.105 320.117 363.521 320.444 359.291 319.776C355.576 313.728 355.934 286.629 357.704 284.531Z"/>
	<path fill="#FC0000" transform="scale(1.6 1.6)" d="M462.649 256.407C463.023 259.388 462.808 262.634 462.809 265.641L463.092 344.861C462.483 344.076 462.037 343.825 461.125 343.443L425.058 327.508L406.741 321.178L406.505 282.41C407.637 280.798 443.848 265.617 448.985 263.239L462.649 256.407Z"/>
	<path fill="#3FA9EB" transform="scale(1.6 1.6)" d="M184.498 133.326L410.776 133.396L410.847 191.485C353.473 194.94 303.943 239.735 299.396 297.954C295.27 350.782 336.116 400.634 385.898 414.57C394.033 416.847 402.486 417.99 410.895 418.64L410.778 433.828L410.721 504.937C407.234 504.581 403.627 504.731 400.121 504.721L145.419 504.658L145.438 133.347L184.498 133.326Z"/>
</svg>
