<?xml version="1.0" encoding="UTF-8" standalone="no"?>
<svg
   width="1536"
   height="1024"
   version="1.1"
   id="svg101"
   sodipodi:docname="css-pastel-background-2.svg"
   xml:space="preserve"
   inkscape:version="1.3.2 (1:1.3.2+202311252150+091e20ef0f)"
   xmlns:inkscape="http://www.inkscape.org/namespaces/inkscape"
   xmlns:sodipodi="http://sodipodi.sourceforge.net/DTD/sodipodi-0.dtd"
   xmlns="http://www.w3.org/2000/svg"
   xmlns:svg="http://www.w3.org/2000/svg"><sodipodi:namedview
     id="namedview101"
     pagecolor="#ffffff"
     bordercolor="#666666"
     borderopacity="1.0"
     inkscape:showpageshadow="2"
     inkscape:pageopacity="0.0"
     inkscape:pagecheckerboard="0"
     inkscape:deskcolor="#d1d1d1"
     inkscape:zoom="0.38184489"
     inkscape:cx="1052.7835"
     inkscape:cy="538.17664"
     inkscape:window-width="1920"
     inkscape:window-height="1027"
     inkscape:window-x="0"
     inkscape:window-y="25"
     inkscape:window-maximized="1"
     inkscape:current-layer="svg101" /><path
     fill="#FCBF49"
     d="M0 -0L1534.69 0C1535.3 0.903902 1535.88 1.8988 1536 3.00073C1536.95 11.4361 1536.03 21.2075 1536.04 29.7654L1536.08 89.24L1536.15 284.642L1536.13 799.581L1536.07 954.031L1536.03 1000.84C1536.03 1007.36 1536.78 1014.97 1536 1021.37C1535.88 1022.36 1535.28 1023.24 1534.69 1024L-0 1024L0 -0Z"
     id="path1" /><path
     fill="#FDFEFD"
     d="M297.382 245.522L303.116 246.092C305.577 246.352 308.549 247.617 310.875 247.506C313.435 247.384 315.992 246.199 318.528 245.775C325.284 244.644 334.398 245.551 338.836 251.368C339.359 252.053 339.677 252.779 340.025 253.562C337.36 255.723 293.683 254.13 286.278 254.485C286.408 253.937 286.595 253.425 286.845 252.919C288.881 248.791 293.282 246.907 297.382 245.522Z"
     id="path2" /><path
     fill="#FDFEFD"
     d="M1293.2 211.926C1296.67 211.462 1300.77 211.219 1304.24 211.724C1313.28 213.046 1319 217.72 1324.43 224.77L1329.75 223.689C1336.63 222.176 1340.38 224.457 1346.02 228.045L1317.56 228.085L1265.65 227.957C1273.51 219.617 1282.45 215.264 1293.2 211.926Z"
     id="path3" /><path
     fill="#003049"
     d="M189.827 772.38C189.826 767.162 188.318 751.069 191.722 747.725C192.763 746.703 194.346 745.201 195.798 744.933C202.745 743.648 212.038 744.767 219.177 744.759C234.619 744.74 250.479 743.957 265.875 744.795C267.784 744.899 269.817 745.679 271.125 747.127C274.612 750.99 272.959 767.037 272.94 772.648L263.948 772.608L264.018 752.43L199.476 752.563L199.507 772.669L189.827 772.38Z"
     id="path4" /><path
     fill="#FCBF49"
     d="M199.507 772.669L199.476 752.563L264.018 752.43L263.948 772.608L234.1 772.553L199.507 772.669Z"
     id="path5" /><path
     fill="#688656"
     d="M1333.23 648.987C1333.67 645.685 1333.01 641.55 1332.91 638.164L1332.58 614.949C1346.3 606.581 1364.03 601.045 1379.67 597.916C1386.39 596.571 1393.07 595.788 1399.9 595.286C1402.08 595.126 1404.12 594.529 1405.97 595.764C1401.43 600.226 1394.69 603.756 1389.37 607.317L1363.27 625.703L1348.84 637.123C1344.4 640.998 1338.64 646.712 1333.23 648.987Z"
     id="path6" /><path
     fill="#FDFEFD"
     d="M203.981 230.56C215.771 230.046 226.282 231.641 235.035 240.304C236.848 242.099 238.419 245.438 240.176 246.85C240.464 247.081 247.44 246.34 248.417 246.269C254.606 245.823 261.607 245.365 267.531 247.512C270.754 248.68 272.887 250.393 274.349 253.562C272.198 255.411 236.492 254.333 230.625 254.323C222.001 254.339 162.151 255.508 159.235 253.49C159.724 251.736 159.918 251.313 161.282 250.098C166.236 245.683 174.051 245.033 180.303 245.619L180.934 245.685L183.311 241.457C187.893 234.689 196.373 231.981 203.981 230.56Z"
     id="path7" /><path
     fill="#A24815"
     d="M317.187 643.459C322.916 645.106 329.935 644.322 335.893 644.254L381.777 644.436L381.425 659.09C381.389 660.739 381.016 662.905 381.75 664.382L383.819 664.962L381.129 665.145C372.853 663.936 363.139 664.893 354.702 664.859L255.843 665.098L255.834 643.467L317.187 643.459Z"
     id="path8" /><path
     fill="#EED4A5"
     d="M1027.28 122.927L1045.47 123.985L1044.89 137.731C1047.08 139.044 1050.67 141.842 1053.09 142.259C1054.57 142.515 1062.43 136.403 1064.13 135.199C1067.82 139.694 1070.97 144.394 1073.78 149.484L1063.33 155.985L1063.46 166.736L1075.97 171.005L1071.21 187.306C1067.27 185.821 1062.04 183.933 1057.79 184.151L1052.69 189.889C1052.88 193.589 1055.03 198.671 1056.34 202.166C1052.71 203.751 1048.97 205.169 1045.42 206.938C1044.13 207.586 1041.98 209.076 1040.53 209.057C1039.98 209.05 1040.11 209.041 1039.93 208.577C1038.93 206.08 1038.05 203.827 1036.32 201.731L1035.95 201.304C1035.87 199.145 1035.88 198.827 1034.62 197.094C1031.52 197.328 1028.44 196.771 1025.37 196.351C1022.76 199.709 1020.89 203.817 1018.02 206.927L1004.16 197.928C1006.19 194.419 1008.34 191.29 1010.92 188.16L1004.25 179.046L992.172 180.217L990.866 163.023L1002.91 161.935L1006.19 151.681L996.925 142.979C1000.29 138.251 1004.58 134.296 1008.68 130.222L1018.5 139.181L1028.4 136.102C1028.51 132.24 1029.51 126.201 1027.28 122.927Z"
     id="path9" /><path
     fill="#FCBF49"
     d="M1031.06 153.383C1035.23 153.065 1038.69 153.543 1042.06 156.142C1044.81 158.266 1046.53 161.579 1046.93 165.01C1047.36 168.654 1046.19 172.129 1043.91 174.969C1040.98 178.614 1038.02 179.611 1033.5 180.13C1031.28 180.236 1029.06 179.729 1027.04 178.836C1023.53 177.282 1021.48 174.383 1020.25 170.849C1018.96 167.101 1019.11 164.166 1020.96 160.601C1023.13 156.42 1026.87 154.821 1031.06 153.383Z"
     id="path10" /><path
     fill="#d62828"
     d="m 442.981,197.416 c 3.583,-11.799 2.157,-21.128 12.995,-29.549 9.058,-7.038 21.152,-4.934 31.741,-3.488 11.922,1.939 34.173,5.785 41.625,16.312 3.818,5.393 4.665,11.702 3.44,18.1 -0.933,4.868 -2.169,9.56 -4.596,13.909 l 0.627,0.421 c 8.862,5.888 19.036,9.964 28.133,15.651 2.415,1.51 6.13,3.19 7.62,5.66 -4.258,2.793 -14.194,0.504 -19.181,-0.31 l -23.123,-3.752 -2.828,6.913 -25.862,-19.653 -10.053,-7.857 -1.143,-2.193 c -4.01,-1.841 -9.416,-2.27 -13.763,-3.24 -8.665,-1.934 -17.231,-4.028 -25.632,-6.924 z"
     id="path11"
     sodipodi:nodetypes="csccccccccccccccc" /><path
     fill="#D62828"
     d="M1126.72 67.5682L1140.17 67.8996C1141.84 71.465 1143 75.0952 1144.15 78.857L1155.56 83.7989L1165.96 77.7221C1169.55 79.9078 1172.96 84.8959 1175.8 88.0734L1175.42 88.6837C1174.21 90.6235 1169.96 96.9311 1169.76 99.0236C1169.58 100.957 1172.89 106.898 1173.47 109.411L1173.65 110.222C1177.14 111.497 1180.69 112.257 1184.32 113.038L1184.16 126.774C1181.29 128.628 1176.72 129.298 1173.38 130.19C1171.96 134.153 1170.07 137.507 1167.86 141.082L1174.94 149.883C1171.81 153.613 1168.6 156.737 1164.92 159.902L1155.33 153.577C1153.34 154.35 1145.11 156.547 1143.95 157.803C1143.63 158.146 1143.3 159.905 1143.11 160.51C1142.19 163.402 1141.55 166.208 1139.34 168.425L1138.62 169.366L1126.66 168.724L1124.17 160.248C1123.96 159.634 1123.58 158.061 1123.22 157.596C1122.17 156.232 1115.4 153.79 1113.63 152.938C1110.29 154.273 1107.08 156.89 1104.09 158.904C1100.63 157.538 1096.02 151.599 1093.23 148.85L1099.96 140.047L1095.01 130.313L1084.52 127.101C1084.52 125.295 1083.88 113.779 1084.49 112.862C1084.67 112.585 1090.66 110.72 1091.58 110.384C1092.46 110.063 1094.69 109.535 1095.29 109.027C1095.57 108.794 1096.3 105.619 1096.48 105.085C1097.28 102.67 1098.47 100.425 1099.66 98.1841L1093.34 88.3089L1103.34 77.6194L1112.39 83.6074L1123.11 79.5547C1125.16 75.9948 1127.44 71.6203 1126.72 67.5682Z"
     id="path12" /><path
     fill="#FCBF49"
     d="M1131.59 102.398C1135.64 102.381 1139.14 103.064 1142.54 105.401C1145.73 107.59 1148.11 110.908 1148.74 114.778C1149.43 119.02 1148.98 122.897 1146.29 126.378C1143.01 130.632 1139.34 131.937 1134.17 132.589C1131.81 132.636 1129.44 132.324 1127.25 131.373C1123.33 129.667 1120.82 126.633 1119.45 122.655C1117.79 117.827 1117.69 115.49 1120.1 110.821C1122.57 106.044 1126.69 103.996 1131.59 102.398Z"
     id="path13" /><path
     fill="#003049"
     d="M442.981 197.416C451.382 200.312 459.948 202.406 468.613 204.34C472.96 205.31 478.366 205.739 482.376 207.58L483.519 209.773L493.572 217.63L494.888 220.179C493.789 220.724 492.777 220.409 491.625 220.212L490.917 220.929C493.78 223.787 496.53 226.94 499.882 229.181L517.56 241.784L515.632 248.928C513.803 255.329 520.922 263.612 514.5 267.739C512.931 267.616 511.424 267.603 509.975 266.925C506.767 275.451 502.354 291.657 493.354 295.74C490.233 297.156 487.06 296.999 483.969 295.701C477.153 292.839 470.316 286.041 464.967 280.964C462.562 284.808 460.782 288.984 459.376 293.291C458.984 295.115 458.647 296.961 458.003 298.716L456.917 298.272L451.555 300.853C438.031 305.951 424.513 301.64 415.603 290.638C414.173 288.873 412.157 284.774 410.25 283.944C411.183 286.121 410.631 284.664 409.882 286.195C409.318 287.35 410.412 290.235 409.882 291.446C409.193 293.022 409.132 293.204 409.132 295.197L407.925 294.17L406.985 294.349C403.623 290.332 401.266 280.829 399.868 275.738L412.878 276.691L439.114 243.858C432.879 229.541 439.326 211.951 442.981 197.416Z"
     id="path14" /><path
     fill="#D2683B"
     d="M487.588 265.33C488.838 265.348 490.027 265.474 491.252 265.734C494.179 266.355 503.441 268.89 504.968 271.191L504.171 274.83C499.171 273.867 492.318 272.103 488.389 268.811C487.501 268.066 487.696 266.466 487.588 265.33Z"
     id="path15" /><path
     fill="#d2683b"
     d="m 509.975,266.925 c -5.391,-6.834 -18.836,-6.982 -26.669,-7.975 -3.194,-2.667 -8.813,-6.24 -10.496,-10.137 -1.634,-3.784 0.107,-8.472 1.24,-12.186 l 9.469,-26.854 10.053,7.857 3.08127,2.34151 10.2844,4.60418 13.91033,9.25081 -5.216,15.1015 c -1.829,6.401 5.29,14.684 -1.132,18.811 -1.569,-0.123 -3.076,-0.136 -4.525,-0.814 z"
     id="path16"
     sodipodi:nodetypes="cccccccccccc" /><path
     fill="#d2683b"
     d="m 439.114,243.858 c 1.464,1.784 2.151,3.348 4.511,3.77 2.108,-2.361 3.795,-5.278 4.719,-8.32 2.104,-6.925 1.949,-18.918 12.156,-19.608 2.469,-0.168 4.213,0.623 5.94,2.399 2.713,2.789 3.772,7.742 3.659,11.583 -0.334,11.357 -8.805,18.662 -12.907,28.652 -1.18,2.875 -1.023,5.419 0.159,8.249 1.611,3.852 4.617,7.517 7.616,10.381 -2.405,3.844 -5.60788,15.78649 -7.01388,20.09349 L 451.555,300.853 415.37894,304.25561 406.985,294.349 c -3.362,-4.017 -5.719,-13.52 -7.117,-18.611 l 13.01,0.953 z"
     id="path17"
     sodipodi:nodetypes="cccccccccccccccc" /><path
     fill="#d62828"
     d="m 461.62056,228.944 c 0.52253,0.30819 1.04973,0.82886 1.34345,1.36213 0.40532,0.7364 0.60658,1.66705 0.34788,2.47816 l -0.11394,0.32454 c -0.60238,1.86971 -1.86457,2.88255 -3.27713,4.17417 l -1.03199,-0.47583 c -0.54261,-0.84614 -1.1688,-1.76512 -0.97268,-2.82279 0.39645,-2.13961 2.06444,-3.78239 3.70441,-5.04038 z"
     id="path18"
     style="stroke-width:0.466962" /><path
     fill="#003049"
     d="M1405.97 595.764C1407.79 600.504 1398.25 629.29 1395.54 635.307L1394.74 636.979C1387.01 635.523 1380.81 635.733 1373.06 636.235C1369.03 636.496 1365.08 636.477 1361.17 637.559C1359.86 637.922 1358.47 638.032 1357.12 638.189L1356.75 638.83L1357.43 638.691C1360.36 638.113 1363.22 638.112 1366.17 637.757C1373.52 636.876 1386.93 635.854 1393.8 638.881C1394.25 643.715 1378.51 671.488 1375.02 675.54C1374.38 676.287 1373.69 676.872 1372.87 677.41C1368.92 674.819 1359.63 670.501 1354.92 671.786L1354.5 671.959C1355.55 672.42 1356.49 672.754 1357.61 673.023L1359.94 673.591C1364.14 674.662 1368.38 677.235 1372.13 679.413C1366.92 686.56 1361.14 693.232 1354.72 699.318C1352.23 701.687 1349.74 704.295 1346.32 705.205C1344.84 708.845 1332.12 714.758 1328.52 716.254C1315.08 721.838 1300.63 722.854 1286.56 719.29C1284.08 718.662 1280.32 716.734 1277.87 717.076L1276.54 720.299C1277.16 721.161 1277.74 722.107 1277.87 723.177C1278.41 727.428 1277.98 732.233 1278.01 736.565L1278.05 763.7C1278.05 771.495 1279.13 781.291 1277.95 788.818C1277.79 789.815 1277.47 790.413 1277.02 791.303C1275.33 792.303 1272.09 791.866 1270.08 791.88C1263.65 791.924 1256.54 792.567 1250.22 791.412C1249.06 791.915 1247.67 791.627 1246.42 791.558C1248.56 787.575 1248.68 782.325 1249.68 777.94C1250.46 774.509 1252.57 770.041 1251.63 766.619C1252.14 766.209 1252.47 766.002 1252.86 765.508C1255.23 762.497 1258.94 747.925 1258.69 744.335C1263.16 738.327 1265.48 728.99 1268.83 722.133C1270.56 718.59 1275.42 712.784 1275.49 709.098C1275.9 706.341 1273.89 703.682 1273.31 701.011C1271.64 693.418 1271.88 683.843 1273.85 676.35C1276.04 667.995 1280.12 659.622 1285.13 652.581C1286.71 650.368 1290.45 646.568 1291.28 644.228C1291.44 643.79 1291.26 642.557 1291.25 642.038L1291.77 642.01C1295.11 641.648 1297.85 638.538 1300.33 636.467L1311.98 627.537L1331.35 615.399C1330.39 623.467 1330.4 631.338 1330.72 639.449C1330.86 642.852 1330.66 646.877 1332.48 649.853L1333.23 648.987C1338.64 646.712 1344.4 640.998 1348.84 637.123L1363.27 625.703L1389.37 607.317C1394.69 603.756 1401.43 600.226 1405.97 595.764Z"
     id="path19" /><path
     fill="#7FA070"
     d="M1275.49 709.098C1277.39 708.214 1278.23 707.106 1279.38 705.424C1281.28 702.653 1282.95 700.992 1282.21 697.402C1281.6 694.46 1281.88 691.554 1281.38 688.668L1281.16 687.731C1280.49 684.722 1280.54 679.606 1282.12 677.048C1283.16 678.753 1282.58 683.822 1282.67 686.042C1282.81 689.754 1283.26 694.098 1284.29 697.67C1285.61 697.529 1292.5 688.3 1293.87 686.629C1298.7 680.734 1304.21 675.362 1309.54 669.917L1310.54 670.038C1307.67 675.097 1301.23 681.752 1296.83 685.59L1281.1 708.116C1278.66 711.784 1276.23 717.221 1273.23 720.23C1272.79 724.269 1269.99 728.478 1268.3 732.179C1265.51 738.292 1262.84 744.765 1260.84 751.174C1258.98 757.135 1260.37 763.612 1258.41 769.514L1255.41 770.063C1253.19 775.104 1252.31 783.303 1251.6 788.789C1251.44 789.992 1251.01 790.514 1250.22 791.412C1249.06 791.915 1247.67 791.627 1246.42 791.558C1248.56 787.575 1248.68 782.325 1249.68 777.94C1250.46 774.509 1252.57 770.041 1251.63 766.619C1252.14 766.209 1252.47 766.002 1252.86 765.508C1255.23 762.497 1258.94 747.925 1258.69 744.335C1263.16 738.327 1265.48 728.99 1268.83 722.133C1270.56 718.59 1275.42 712.784 1275.49 709.098Z"
     id="path20" /><path
     fill="#688656"
     d="M1291.25 642.038L1291.77 642.01C1295.11 641.648 1297.85 638.538 1300.33 636.467L1311.98 627.537L1331.35 615.399C1330.39 623.467 1330.4 631.338 1330.72 639.449C1330.86 642.852 1330.66 646.877 1332.48 649.853C1328.67 655.197 1322.18 659.836 1317.29 664.287C1315.18 666.212 1313.1 668.76 1310.54 670.038L1309.54 669.917C1304.21 675.362 1298.7 680.734 1293.87 686.629C1292.5 688.3 1285.61 697.529 1284.29 697.67C1283.26 694.098 1282.81 689.754 1282.67 686.042C1282.58 683.822 1283.16 678.753 1282.12 677.048C1280.54 679.606 1280.49 684.722 1281.16 687.731L1281.38 688.668C1281.88 691.554 1281.6 694.46 1282.21 697.402C1282.95 700.992 1281.28 702.653 1279.38 705.424C1278.23 707.106 1277.39 708.214 1275.49 709.098C1275.9 706.341 1273.89 703.682 1273.31 701.011C1271.64 693.418 1271.88 683.843 1273.85 676.35C1276.04 667.995 1280.12 659.622 1285.13 652.581C1286.71 650.368 1290.45 646.568 1291.28 644.228C1291.44 643.79 1291.26 642.557 1291.25 642.038Z"
     id="path21" /><path
     fill="#F77F00"
     d="M272.94 772.648L326.739 772.317L326.811 817.145C326.815 823.529 326.08 830.567 326.808 836.854C327.133 839.659 326.645 842.648 326.61 845.483C326.558 849.768 326.806 854.203 326.444 858.467L326.417 922.853L354.151 922.96L354.059 923.418L234.037 923.082L233.837 858.29L244.286 857.929C245.405 857.096 246.67 856.444 247.316 855.183C248.65 852.58 247.98 847.174 247.125 844.435C243.329 841.741 237.641 842.786 233 842.752C233.175 841.376 233.629 840.012 233.985 838.67C234.773 838.2 235.107 837.874 235.702 837.204C232.367 835.116 220.013 836.037 215.634 835.943L234.06 835.776L234.1 772.553L263.948 772.608L272.94 772.648Z"
     id="path22" /><path
     fill="#990F11"
     d="M234.06 835.776L323.978 835.613C325.317 835.609 325.232 835.707 326.247 836.632L326.611 838.013C323.057 839.098 318.788 838.73 315.087 838.729L296.205 838.711L233.985 838.67C234.773 838.2 235.107 837.874 235.702 837.204C232.367 835.116 220.013 836.037 215.634 835.943L234.06 835.776Z"
     id="path23" /><path
     fill="#A24815"
     d="M189.827 772.38L199.507 772.669L234.1 772.553L234.06 835.776L215.634 835.943C220.013 836.037 232.367 835.116 235.702 837.204C235.107 837.874 234.773 838.2 233.985 838.67C233.629 840.012 233.175 841.376 233 842.752C237.641 842.786 243.329 841.741 247.125 844.435C247.98 847.174 248.65 852.58 247.316 855.183C246.67 856.444 245.405 857.096 244.286 857.929L233.837 858.29L234.037 923.082L131.558 922.872L131.598 838.917L131.646 772.484L189.827 772.38Z"
     id="path24" /><path
     fill="#7C1717"
     d="M132.182 838.077C132.34 836.857 132.34 836.682 133.125 835.752L215.634 835.943C220.013 836.037 232.367 835.116 235.702 837.204C235.107 837.874 234.773 838.2 233.985 838.67L162.711 838.732L142.589 838.735C139.184 838.731 135.438 839.169 132.182 838.077Z"
     id="path25" /><path
     fill="#003049"
     d="M233 842.752C237.641 842.786 243.329 841.741 247.125 844.435C247.98 847.174 248.65 852.58 247.316 855.183C246.67 856.444 245.405 857.096 244.286 857.929C238.875 857.427 214.641 859.124 211.901 857.02C210.351 855.83 209.599 854.146 209.369 852.245C208.96 848.87 209.201 846.352 211.248 843.688C216.66 841.427 226.975 842.748 233 842.752Z"
     id="path26" /><path
     fill="#D62828"
     d="M1277.02 791.303L1277.89 791.383C1285.64 792.057 1293.59 791.618 1301.37 791.63C1304.07 791.634 1308 791.139 1310.55 792.033C1311.99 792.539 1313.14 793.848 1314.11 794.987C1315.69 796.835 1315.33 812.417 1314.85 815.074C1314.61 816.35 1313.41 817.248 1312.36 817.859C1309.99 819.251 1306.09 818.358 1303.32 819.294C1305.01 822.857 1302.7 831.256 1301.42 834.978C1301.13 835.821 1300.68 836.514 1300.18 837.248C1301.23 841.438 1299.35 847.77 1298.64 852.09L1292.37 888.15L1286.39 923.365L1285.01 923.571C1283.15 924.302 1280.3 924.052 1278.27 924.104L1262.05 924.2L1183.86 923.337L1184.82 921.205C1184.38 913.994 1182.46 906.436 1181.17 899.301L1176.42 869.708L1173.46 849.973C1173.03 846.876 1172.96 843.18 1172.06 840.205C1171.78 839.284 1171.27 838.552 1170.66 837.834L1171.01 836.898C1172.07 833.756 1169.59 824.503 1168.03 821.54L1168.26 820.137C1167.43 818.409 1159.88 819.049 1157.29 817.569C1154.13 813.172 1155.57 801.295 1155.9 795.569C1157.38 793.819 1157.78 793.147 1160.04 792.472C1162.61 791.704 1166.7 792.167 1169.44 792.159L1192.32 792.182C1195.07 792.192 1199.03 792.801 1201.32 791.413C1207.64 791.614 1214.64 792.241 1220.91 791.405L1224.56 791.412C1227.55 791.766 1235.3 792.745 1237.98 791.459C1240.82 791.738 1243.59 792.123 1246.42 791.558C1247.67 791.627 1249.06 791.915 1250.22 791.412C1256.54 792.567 1263.65 791.924 1270.08 791.88C1272.09 791.866 1275.33 792.303 1277.02 791.303Z"
     id="path27" /><path
     fill="#990F11"
     d="M1170.66 837.834C1190.9 838.981 1211.51 837.756 1231.82 838.018C1237.17 838.087 1243.26 837.307 1248.52 838.082L1247.99 838.16C1242.97 838.859 1237.85 838.388 1232.82 838.979C1225.06 839.89 1219.11 843.699 1213.83 849.198C1209.19 865.292 1213.35 893.104 1221.31 907.636C1224.54 913.52 1228.51 918.791 1233.39 923.403L1268.8 923.444C1273.85 923.424 1280.16 922.579 1285.01 923.571C1283.15 924.302 1280.3 924.052 1278.27 924.104L1262.05 924.2L1183.86 923.337L1184.82 921.205C1184.38 913.994 1182.46 906.436 1181.17 899.301L1176.42 869.708L1173.46 849.973C1173.03 846.876 1172.96 843.18 1172.06 840.205C1171.78 839.284 1171.27 838.552 1170.66 837.834Z"
     id="path28" /><path
     fill="#D62828"
     d="M1277.02 791.303L1277.89 791.383C1285.64 792.057 1293.59 791.618 1301.37 791.63C1304.07 791.634 1308 791.139 1310.55 792.033C1311.99 792.539 1313.14 793.848 1314.11 794.987C1315.69 796.835 1315.33 812.417 1314.85 815.074C1314.61 816.35 1313.41 817.248 1312.36 817.859C1309.99 819.251 1306.09 818.358 1303.32 819.294C1305.01 822.857 1302.7 831.256 1301.42 834.978C1301.13 835.821 1300.68 836.514 1300.18 837.248C1297.73 839 1290.3 838.09 1287.11 838.09L1248.52 838.082C1243.26 837.307 1237.17 838.087 1231.82 838.018C1211.51 837.756 1190.9 838.981 1170.66 837.834L1171.01 836.898C1172.07 833.756 1169.59 824.503 1168.03 821.54L1168.26 820.137C1167.43 818.409 1159.88 819.049 1157.29 817.569C1154.13 813.172 1155.57 801.295 1155.9 795.569C1157.38 793.819 1157.78 793.147 1160.04 792.472C1162.61 791.704 1166.7 792.167 1169.44 792.159L1192.32 792.182C1195.07 792.192 1199.03 792.801 1201.32 791.413C1207.64 791.614 1214.64 792.241 1220.91 791.405L1224.56 791.412C1227.55 791.766 1235.3 792.745 1237.98 791.459C1240.82 791.738 1243.59 792.123 1246.42 791.558C1247.67 791.627 1249.06 791.915 1250.22 791.412C1256.54 792.567 1263.65 791.924 1270.08 791.88C1272.09 791.866 1275.33 792.303 1277.02 791.303Z"
     id="path29" /><path
     fill="#7C1717"
     d="M1168.03 821.54C1168.74 820.26 1169.12 819.534 1170.38 818.707L1266.81 818.622L1293.08 818.525C1296.06 818.512 1300.89 817.802 1303.32 819.294C1305.01 822.857 1302.7 831.256 1301.42 834.978C1301.13 835.821 1300.68 836.514 1300.18 837.248C1297.73 839 1290.3 838.09 1287.11 838.09L1248.52 838.082C1243.26 837.307 1237.17 838.087 1231.82 838.018C1211.51 837.756 1190.9 838.981 1170.66 837.834L1171.01 836.898C1172.07 833.756 1169.59 824.503 1168.03 821.54Z"
     id="path30" /><path
     fill="#003049"
     d="M458.57 664.906C458.083 671.76 455.575 678.82 454.083 685.55L445.935 724.752L427.642 828.577L423.49 859.104L438.526 861.431L479.73 866.435L479.448 870.38L483.096 876.83L487.125 874.027C489.71 874.525 491.735 876.052 494.303 876.589C494.031 878.58 492.371 880.013 491.088 881.465C492.701 882.358 494.947 881.85 496.795 882.014L500.809 882.431L501.298 883.716L499.449 885.966C500.895 887.552 503.713 888.733 505.654 889.761C521.243 898.013 542.903 895.915 553.211 912.298L553.719 918.68L553.114 922.147L554.149 923.851L616.161 923.717C624.52 923.761 633.837 923.055 642.075 924.263L641.697 918.457L769.869 918.579L768.619 924.06C780.796 922.88 793.516 923.508 805.753 923.465L875.717 923.4L1093.05 923.434L1156.05 923.447C1164.97 923.448 1175.14 924.49 1183.86 923.337L1262.05 924.2L1278.27 924.104C1280.3 924.052 1283.15 924.302 1285.01 923.571L1286.39 923.365L1339.81 923.316L1425.38 923.262C1428.77 923.307 1429.53 923.142 1431.97 925.62C1432.35 927.962 1432.06 927.953 1430.83 929.852C1429.96 930.315 1429.36 930.664 1428.38 930.811C1420.3 932.012 1410.08 930.799 1401.83 930.755L1342.31 930.736L1116.28 930.724L321.493 930.692L170.252 930.715L129.063 930.814C123.231 930.824 115.09 931.835 109.62 930.235C108.87 930.016 108.158 929.097 107.885 928.352C107.166 926.379 107.706 925.492 108.655 923.851C114.318 921.557 125.23 922.902 131.558 922.872L234.037 923.082L354.059 923.418L354.151 922.96C356.329 918.138 354.812 879.388 354.809 870.554L354.754 724.326L354.702 664.859C363.139 664.893 372.853 663.936 381.129 665.145L383.819 664.962L458.57 664.906Z"
     id="path31" /><path
     fill="#990F11"
     d="M421.316 911.507L553.211 912.298L553.719 918.68L421.052 918.695L421.316 911.507Z"
     id="path32" /><path
     fill="#D62828"
     d="M438.526 861.431L479.73 866.435L479.448 870.38L483.096 876.83L487.125 874.027C489.71 874.525 491.735 876.052 494.303 876.589C494.031 878.58 492.371 880.013 491.088 881.465C492.701 882.358 494.947 881.85 496.795 882.014L500.809 882.431L501.298 883.716L499.449 885.966C500.895 887.552 503.713 888.733 505.654 889.761C521.243 898.013 542.903 895.915 553.211 912.298L421.316 911.507C423.266 901.448 425.175 893.06 430.453 884.074L438.526 861.431Z"
     id="path33" /><path
     fill="#003049"
     d="M483.096 876.83L487.125 874.027C489.71 874.525 491.735 876.052 494.303 876.589C494.031 878.58 492.371 880.013 491.088 881.465C492.701 882.358 494.947 881.85 496.795 882.014L492.375 882.984C489.588 886.516 484.226 889.623 479.919 890.842C477.536 890.256 477.389 889.875 475.786 887.964C475.677 887.032 475.174 884.942 475.332 884.091C475.783 881.664 481.176 879.611 482.823 877.249L483.096 876.83Z"
     id="path34" /><path
     fill="#D2683B"
     d="M438.526 861.431L479.73 866.435L479.448 870.38C475.175 877.914 468.948 886.884 460.077 889.237L456.508 889.976C448.409 891.456 438.496 885.55 430.453 884.074L438.526 861.431Z"
     id="path35" /><path
     fill="#FCBF49"
     d="M458.57 664.906C458.083 671.76 455.575 678.82 454.083 685.55L445.935 724.752L427.642 828.577L423.49 859.104L438.526 861.431L430.453 884.074C425.175 893.06 423.266 901.448 421.316 911.507L421.052 918.695L420.683 923.951C416.879 922.889 411.931 923.351 407.951 923.301L381.1 923.342C380.356 916.532 380.933 909.063 380.941 902.185L380.994 859.924L381.005 724.189L381.129 665.145L383.819 664.962L458.57 664.906Z"
     id="path36" /><path
     fill="#f77f00"
     d="m 327.023,286.482 c 16.387,-8.247 35.652,-9.994 53.751,-10.704 6.285,-0.246 12.836,-0.781 19.094,-0.04 1.398,5.091 3.755,14.594 7.117,18.611 l 2.147,0.848 42.423,5.656 7.70455,-4.06341 c 16.461,9.204 30.11445,15.71641 43.30045,29.20341 12.385,12.837 15.915,28.303 19.551,45.134 l 6.598,33.59 c -8.282,5.296 -10.41,17.658 -14.724,26.074 -12.713,2.678 -25.775,5.714 -38.811,5.868 l -1.981,-5.481 -24.387,73.032 c 7.881,8.697 14.298,15.535 15.28,27.726 -1.828,0.032 -3.659,-0.513 -5.46,-0.365 l -8.151,0.339 -1.972,0.027 -10.09,0.152 -21.894,0.266 -24.836,0.142 c -3.328,-0.008 -8.27,-0.641 -11.248,0.756 -5.847,1.458 -15.247,-1.063 -19.704,2.309 l 0.187,0.684 -56.126,0.117 -28.058,-0.539 2.433,-32.798 c -22.435,-9.332 -42.632,-20.166 -60.368,-37.013 -8.274,-7.999 -15.064,-17.311 -20.241,-27.584 13.141,-26.573 32.525,-50.67 49.499,-74.894 14.032,-20.267 29.407,-39.266 46.945,-56.591 10.065,-8.641 19.312,-16.176 32.021,-20.462 z"
     id="path37"
     sodipodi:nodetypes="cccccccccccccccccccccccccccccccc" /><path
     fill="#7C1717"
     d="M502.56 325.993C514.945 338.83 518.475 354.296 522.111 371.127L528.709 404.717C520.427 410.013 518.299 422.375 513.985 430.791C501.272 433.469 488.21 436.505 475.174 436.659L473.193 431.178C481.953 396.167 499.249 362.275 502.56 325.993Z"
     id="path39" /><path
     fill="#7C1717"
     d="M327.023 286.482C336.818 286.789 343.608 289.057 350.479 296.412C358.666 305.175 364.1 317.487 363.547 329.625C363.045 340.667 360.093 349.497 354.904 359.221C341.486 377.791 323.353 392.676 307.065 408.622C301.382 407.144 295.636 403.864 290.531 400.982C273.794 391.532 258.95 379.468 248.057 363.535C262.089 343.268 277.464 324.269 295.002 306.944C305.067 298.303 314.314 290.768 327.023 286.482Z"
     id="path40" /><path
     fill="#D62828"
     d="M248.057 363.535C258.95 379.468 273.794 391.532 290.531 400.982C295.636 403.864 301.382 407.144 307.065 408.622C303.457 409.128 301.704 411.493 298.885 413.738L288.208 422.181L287.743 440.575L310.743 458.887C313.891 461.191 317.278 464.002 320.714 465.788L375.533 506.161C379.401 508.86 384.346 513.476 388.615 515.116L416.747 498.583C423.622 494.963 435.541 498.76 442.591 501.015C444.808 501.723 446.913 502.861 448.806 504.21C456.687 512.907 463.104 519.745 464.086 531.936C462.258 531.968 460.427 531.423 458.626 531.571L450.475 531.91L448.503 531.937L438.413 532.089L416.519 532.355L391.683 532.497C388.355 532.489 383.413 531.856 380.435 533.253C374.588 534.711 365.188 532.19 360.731 535.562L360.918 536.246L304.792 536.363L276.734 535.824L279.167 503.026C256.732 493.694 236.535 482.86 218.799 466.013C210.525 458.014 203.735 448.702 198.558 438.429C211.699 411.856 231.083 387.759 248.057 363.535Z"
     id="path41"
     style="fill:#d2683b;fill-opacity:1" /><path
     fill="#FCBF49"
     d="M288.208 422.181L287.743 440.575L276.976 432.591C280.157 428.672 284.39 425.467 288.208 422.181Z"
     id="path42" /><path
     fill="#EED4A5"
     d="M416.519 532.355L416.61 531.398C422.942 528.206 429.058 524.629 435.977 522.882C437.38 525.452 437.786 529.198 438.413 532.089L416.519 532.355Z"
     id="path43" /><path
     fill="#F77F00"
     d="M279.167 503.026L309.446 514.663L380.435 533.253C374.588 534.711 365.188 532.19 360.731 535.562L360.918 536.246L304.792 536.363L276.734 535.824L279.167 503.026Z"
     id="path44" /><path
     fill="#FCBF49"
     d="M683.521 791.319L1080.82 791.401L1172.19 790.852C1177.82 790.819 1197.28 789.444 1201.32 791.413C1199.03 792.801 1195.07 792.192 1192.32 792.182L1169.44 792.159C1166.7 792.167 1162.61 791.704 1160.04 792.472C1157.78 793.147 1157.38 793.819 1155.9 795.569C1155.57 801.295 1154.13 813.172 1157.29 817.569C1159.88 819.049 1167.43 818.409 1168.26 820.137L1168.03 821.54C1169.59 824.503 1172.07 833.756 1171.01 836.898L1170.66 837.834C1171.27 838.552 1171.78 839.284 1172.06 840.205C1172.96 843.18 1173.03 846.876 1173.46 849.973L1176.42 869.708L1181.17 899.301C1182.46 906.436 1184.38 913.994 1184.82 921.205L1183.86 923.337C1175.14 924.49 1164.97 923.448 1156.05 923.447L1093.05 923.434L875.717 923.4L805.753 923.465C793.516 923.508 780.796 922.88 768.619 924.06L769.869 918.579L641.697 918.457L641.301 910.883C642.005 901.679 643.011 891.362 648.435 883.636C648.23 879.285 646.178 873.867 644.575 869.858L650.851 868.759L685.023 861.601L699.541 859.478L683.521 791.319Z"
     id="path45" /><path
     fill="#D62828"
     d="M650.851 868.759L685.023 861.601L689.893 875.1L691.854 875.57C694.313 874.402 697.015 873.081 699.794 873.922L701.625 874.677L704.104 874.277L705.641 875.464L705.375 877.105L702.375 878.589L702.127 879.74C705.954 880.017 709.448 879.358 713.251 879.34L707.634 885.591C709.901 885.957 711.826 884.331 713.625 884.515C713.988 884.552 715.737 886.062 716.155 886.367L728.133 896.476C739.449 896.411 756.46 893.614 765.232 902.172C766.988 903.885 768.05 905.378 768.858 907.722L770.001 911.137C770.082 913.597 770.344 916.154 769.869 918.579L641.697 918.457L641.301 910.883C642.005 901.679 643.011 891.362 648.435 883.636C648.23 879.285 646.178 873.867 644.575 869.858L650.851 868.759Z"
     id="path46" /><path
     fill="#F77F00"
     d="M649.484 883.521L681.026 879.882C674.779 884.331 669.151 889.79 660.962 888.481C656.737 887.806 652.939 885.998 649.484 883.521Z"
     id="path47" /><path
     fill="#003049"
     d="M691.854 875.57C694.313 874.402 697.015 873.081 699.794 873.922L701.625 874.677L704.104 874.277L705.641 875.464L705.375 877.105L702.375 878.589L702.127 879.74C705.954 880.017 709.448 879.358 713.251 879.34L707.634 885.591C709.901 885.957 711.826 884.331 713.625 884.515C713.988 884.552 715.737 886.062 716.155 886.367C711.233 889.42 704.677 894.071 699 895.151L697.875 894.37C697.7 893.743 696.904 891.741 696.994 891.218C697.156 890.278 697.875 890.189 697.875 888.979C695.168 889.782 690.81 891.889 688.125 890.914C687.844 887.738 690.216 886.955 691.134 884.091C690.182 884.218 689.251 884.423 688.309 884.141C686.933 883.729 686.878 883.388 686.193 882.215C686.956 879.499 689.843 877.459 691.854 875.57Z"
     id="path48" /><path
     fill="#990F11"
     d="M641.301 910.883L770.001 911.137C770.082 913.597 770.344 916.154 769.869 918.579L641.697 918.457L641.301 910.883Z"
     id="path49" /><path
     fill="#003049"
     d="M654.765 173.048L654.705 138.629C654.708 133.858 654.124 128.198 654.853 123.515C655.074 122.102 655.824 120.731 656.838 119.732C659.269 117.338 663.191 117.831 666.364 117.806L761.113 117.993L789.145 117.943C793.806 117.927 798.923 117.43 803.53 118.039C805.598 118.312 806.987 119.534 808.382 120.962C810.852 123.49 809.466 174.334 809.438 181.945L809.492 228.829L1167.52 228.725L1167.46 254.739C1167.44 259.475 1167.87 264.697 1166.77 269.3C1171.85 271.389 1180.82 270.136 1186.56 270.141L1243.24 270.106C1246.87 270.112 1257 269.117 1259.79 270.66C1264.83 271.134 1268.87 272.743 1272.13 276.8C1273.8 278.869 1274.74 281.027 1275.42 283.584L1274.96 285.926C1275.31 286.489 1276.15 287.473 1276.32 288.07C1277.23 291.312 1276.33 298.087 1276.33 301.641L1276.35 345.949L1276.43 441.85L1276.42 467.065C1276.41 470.251 1276.93 474.416 1276.34 477.492C1276.16 478.461 1275.77 479.197 1275.21 479.992L1275.4 480.605C1277.92 488.758 1282.84 496.407 1285.97 504.425C1294.59 526.577 1299.27 548.585 1301.87 572.139C1291.37 577.204 1281.88 583.152 1272.47 590.019L1273.5 590.351L1301.95 574.106C1303.29 593.393 1301.59 613.113 1295.68 631.587C1294.61 634.918 1293.52 639.358 1291.25 642.038C1291.26 642.557 1291.44 643.79 1291.28 644.228C1290.45 646.568 1286.71 650.368 1285.13 652.581C1280.12 659.622 1276.04 667.995 1273.85 676.35C1271.88 683.843 1271.64 693.418 1273.31 701.011C1273.89 703.682 1275.9 706.341 1275.49 709.098C1275.42 712.784 1270.56 718.59 1268.83 722.133C1265.48 728.99 1263.16 738.327 1258.69 744.335C1258.94 747.925 1255.23 762.497 1252.86 765.508C1252.47 766.002 1252.14 766.209 1251.63 766.619C1252.57 770.041 1250.46 774.509 1249.68 777.94C1248.68 782.325 1248.56 787.575 1246.42 791.558C1243.59 792.123 1240.82 791.738 1237.98 791.459C1235.3 792.745 1227.55 791.766 1224.56 791.412C1227.07 786.54 1223.81 774.932 1222.38 769.82L1231.12 769.745L1231.66 768.07C1232.63 765.214 1231.66 761.485 1231.31 758.497L1229.94 741.964L1229.32 713.572C1229.32 708.739 1230.19 702.116 1228.24 697.644C1227.89 696.935 1226.73 696.08 1226.14 695.503C1226.49 695.092 1227.39 694.281 1227.57 693.824C1228.24 692.099 1228.11 687.856 1228.37 685.839L1231.78 664.608L1250.56 583.048C1251.13 580.189 1252.15 576.625 1251.82 573.737C1251.29 569.11 1249.53 564.084 1248.57 559.474L1242.84 533.718C1241.96 530.324 1242.01 528.246 1239.96 525.17L1240.99 524.255C1244.54 519.409 1249.59 515.375 1252.6 510.234L1253.57 507.833L1253.92 506.203C1254.94 498.77 1254.06 489.928 1254.08 482.315L1254.15 428.468L1254.14 371.561C1254.13 363.859 1254.99 354.877 1254.05 347.335C1253.91 346.227 1253.31 345.249 1252.67 344.359L613.5 344.608L613.628 405.751L597.015 405.61L596.965 321.361L596.948 294.447C596.935 290.206 596.166 284.587 598.01 280.69L598.443 279.818C599.34 277.983 600.357 276.464 601.785 275.01C603.931 272.825 606.986 270.696 610.07 270.234C615.72 269.387 622.213 270.006 627.975 270.007L663.444 269.997L789.869 269.983L1073.95 270.09L1138.45 270.084L1156.26 270.075C1159.51 270.075 1163.06 270.466 1166.15 269.414L1166.23 229.963L775.412 230.29L697.422 230.345C685.406 230.349 672.208 231.461 660.297 230.228C658.844 230.078 657.644 229.55 656.625 228.474C656.138 227.96 655.164 226.875 654.971 226.18C653.836 222.087 654.66 215.504 654.666 211.2L654.765 173.048Z"
     id="path50" /><path
     fill="#EED4A5"
     d="M708.76 301.603L711.195 302.131C713.264 302.73 715.33 304.256 716.311 306.212C717.297 308.177 717.476 310.814 716.678 312.867C715.373 316.226 713.176 317.075 710.096 318.395L707.785 317.882C705.528 317.224 703.454 315.816 702.452 313.631C701.522 311.602 701.397 308.83 702.29 306.769C703.581 303.792 705.988 302.801 708.76 301.603Z"
     id="path51" /><path
     fill="#FDFEFD"
     d="M674.449 301.408L674.742 301.448C678.056 301.989 680.758 302.776 682.732 305.698C683.809 307.293 684.233 309.487 683.851 311.373C683.156 314.799 680.744 316.362 678.069 318.198L675.001 318.151C672.905 317.993 671.067 317.03 669.798 315.331C668.18 313.166 667.649 310.334 668.229 307.715C668.947 304.474 671.845 303.013 674.449 301.408Z"
     id="path52" /><path
     fill="#D62828"
     d="M640.59 301.506L644.098 301.625C646.275 301.91 648.092 303.541 649.391 305.222C650.8 307.046 651.096 308.905 650.704 311.15C650.041 314.936 647.534 316.659 644.673 318.809L641.968 318.526C639.214 318.055 637.381 317.017 635.769 314.754C634.422 312.862 634.033 310.533 634.54 308.224C635.306 304.733 637.769 303.224 640.59 301.506Z"
     id="path53" /><path
     fill="#7FA070"
     d="M1270.84 489.002L1273.81 486.235C1276.57 498.178 1256.55 570.549 1252.71 585.8L1238.24 645.9L1232.22 675.54C1231.09 681.874 1231.22 692.154 1228.24 697.644C1227.89 696.935 1226.73 696.08 1226.14 695.503C1226.49 695.092 1227.39 694.281 1227.57 693.824C1228.24 692.099 1228.11 687.856 1228.37 685.839L1231.78 664.608L1250.56 583.048C1251.13 580.189 1252.15 576.625 1251.82 573.737C1251.29 569.11 1249.53 564.084 1248.57 559.474L1242.84 533.718C1241.96 530.324 1242.01 528.246 1239.96 525.17L1240.99 524.255L1241.36 524.656C1243.2 526.767 1243.26 528.693 1244.04 531.247C1248.12 544.693 1250.78 560.299 1252.27 574.264L1261.72 536.642C1262.09 535.061 1261.95 534.296 1261.42 532.761C1262.13 532.04 1262.7 531.298 1263.14 530.379C1264.26 528.051 1264.58 524.634 1265.16 522.079L1269.46 500.859C1270.04 497.939 1271.42 494.33 1271.49 491.416C1271.52 490.451 1271.21 489.865 1270.84 489.002Z"
     id="path54" /><path
     fill="#1D727C"
     d="M1253.57 507.833L1254.77 508.13C1256.7 507.411 1258.08 504.646 1259.37 502.998C1263 498.349 1267.87 494.005 1270.84 489.002C1271.21 489.865 1271.52 490.451 1271.49 491.416C1271.42 494.33 1270.04 497.939 1269.46 500.859L1265.16 522.079C1264.58 524.634 1264.26 528.051 1263.14 530.379C1262.7 531.298 1262.13 532.04 1261.42 532.761C1261.95 534.296 1262.09 535.061 1261.72 536.642L1252.27 574.264C1250.78 560.299 1248.12 544.693 1244.04 531.247C1243.26 528.693 1243.2 526.767 1241.36 524.656L1240.99 524.255C1244.54 519.409 1249.59 515.375 1252.6 510.234L1253.57 507.833Z"
     id="path55" /><path
     fill="#EED4A5"
     d="M1236.48 768.806C1237.49 761.826 1235.64 753.675 1235.41 746.507L1235.31 697.496C1242.61 694.946 1249.33 690.788 1256.18 687.197L1256.18 724.289C1256.17 729.791 1257.38 738.474 1254.84 743.31C1255 744.153 1255.5 745.628 1255.44 746.432C1255.27 748.353 1253.52 751.64 1252.86 753.6C1251.81 756.731 1251.57 760.052 1249.97 762.97C1250.28 765.576 1249.79 767.295 1248.96 769.704L1236.97 769.682L1236.48 768.806Z"
     id="path56" /><path
     fill="#D62828"
     d="M666.364 117.806L761.113 117.993L789.145 117.943C793.806 117.927 798.923 117.43 803.53 118.039C805.598 118.312 806.987 119.534 808.382 120.962C810.852 123.49 809.466 174.334 809.438 181.945C806.321 177.86 801.963 174.336 798.19 170.847L777.76 152.096L738.552 184.924L715.621 163.568L666.502 208.917L666.364 117.806Z"
     id="path57" /><path
     fill="#FDFEFD"
     d="M769.86 296.441L817.474 296.352L907.555 296.349L1174.68 296.321C1179.01 296.326 1198.11 295.099 1200.62 297.957C1203.45 301.179 1202.51 314.796 1201.99 319.203C1199.83 321.303 1198.57 321.86 1195.65 322.401L773.625 322.383C770.148 322.323 767.754 321.319 765.493 318.654C763.062 315.788 764.2 305.421 764.509 301.686C765.85 299.072 767.489 297.987 769.86 296.441Z"
     id="path58" /><path
     fill="#003049"
     d="M528.709 404.717L568.117 404.503L597.015 405.61L613.628 405.751L671.497 406.385C680.13 406.428 690.281 405.284 698.733 406.544C700.279 406.775 702.247 407.926 703.292 409.058C704.65 410.529 705.202 412.291 704.966 414.27C704.679 416.676 702.99 419.432 702.007 421.641L695.607 436.096L663.723 507.993L648.735 542.398C647.586 544.748 646.16 547.178 643.982 548.711C641.797 550.248 638.592 550.072 636.014 550.13C628.861 550.292 621.339 550.418 614.2 549.967L614.29 564.668C623.68 568.972 630.37 574.957 634.146 584.838C637.262 592.996 638.853 601.866 640.906 610.337L652.021 655.627L678.733 770.012L1216.12 769.594L1216.37 768.113C1216.51 767.355 1216.61 766.576 1216.59 765.802C1216.3 757.809 1208.73 733.058 1203.48 727.745C1199 729.348 1195.4 732.217 1190.72 733.59C1180.63 735.889 1171.01 735.217 1161.02 732.786C1136.4 726.791 1115.02 704.857 1102.29 683.808L1156.85 673.268C1158.13 673.01 1159.37 672.895 1160.42 672.028L1161 671.504L1100.75 682.705C1100.77 682.295 1100.81 682.082 1100.66 681.65C1099.53 678.293 1094.94 669.528 1092.13 667.572L1092.34 666.016C1090.3 660.913 1087.73 650.351 1083.52 647.144C1083.83 646.417 1084.05 645.963 1084.04 645.157C1083.99 642.034 1081.16 632.254 1079.05 630.122C1079.97 628.136 1079.03 625.616 1078.61 623.56L1075.09 606.074C1074.65 603.771 1073.66 600.938 1074.59 598.72C1092.25 600.093 1111.26 606.205 1127.91 612.115C1130.75 613.125 1136.21 614.457 1138.15 616.637C1143.25 617.656 1147.85 620.113 1152.46 622.446C1170.2 631.415 1187.24 645.047 1198.35 661.632C1200.52 664.871 1204.76 670.698 1204.29 674.705C1206.3 677.505 1206.71 680.735 1207.35 684.045C1209.2 693.565 1209.91 702.881 1208.39 712.545C1207.88 715.802 1206.72 720.055 1204.38 722.415L1206.15 724.534L1205.99 725.926C1210.88 728.595 1215.62 744.171 1217.11 749.192C1218.51 753.908 1221.51 761.271 1219.99 765.757C1220.59 766.889 1221.04 767.712 1221.24 769L1222.38 769.82C1223.81 774.932 1227.07 786.54 1224.56 791.412L1220.91 791.405C1214.64 792.241 1207.64 791.614 1201.32 791.413C1197.28 789.444 1177.82 790.819 1172.19 790.852L1080.82 791.401L683.521 791.319L699.541 859.478L685.023 861.601L650.851 868.759L644.575 869.858C646.178 873.867 648.23 879.285 648.435 883.636C643.011 891.362 642.005 901.679 641.301 910.883L641.697 918.457L642.075 924.263C633.837 923.055 624.52 923.761 616.161 923.717L554.149 923.851L553.114 922.147L553.719 918.68L553.211 912.298C542.903 895.915 521.243 898.013 505.654 889.761C503.713 888.733 500.895 887.552 499.449 885.966L501.298 883.716L500.809 882.431L496.795 882.014C494.947 881.85 492.701 882.358 491.088 881.465C492.371 880.013 494.031 878.58 494.303 876.589C491.735 876.052 489.71 874.525 487.125 874.027L483.096 876.83L479.448 870.38L479.73 866.435L438.526 861.431L423.49 859.104L427.642 828.577L445.935 724.752L454.083 685.55C455.575 678.82 458.083 671.76 458.57 664.906L383.819 664.962L381.75 664.382C381.016 662.905 381.389 660.739 381.425 659.09L381.777 644.436L335.893 644.254C329.935 644.322 322.916 645.106 317.187 643.459C307.301 639.173 298.477 633.959 291.3 625.734C268.178 599.237 274.353 567.694 276.734 535.824L304.792 536.363L360.918 536.246L360.731 535.562C365.188 532.19 374.588 534.711 380.435 533.253C383.413 531.856 388.355 532.489 391.683 532.497L416.519 532.355L438.413 532.089L448.503 531.937L450.475 531.91L458.626 531.571C460.427 531.423 462.258 531.968 464.086 531.936C463.104 519.745 456.687 512.907 448.806 504.21L473.193 431.178L475.174 436.659C488.21 436.505 501.272 433.469 513.985 430.791C518.299 422.375 520.427 410.013 528.709 404.717Z"
     id="path59" /><path
     fill="#7FA070"
     d="M1221.24 769L1222.38 769.82C1223.81 774.932 1227.07 786.54 1224.56 791.412L1220.91 791.405C1223.38 788.134 1221.79 773.305 1221.24 769Z"
     id="path60" /><path
     fill="#FCBF49"
     d="M580.68 549.679L597.871 549.82L597.772 559.244L575.084 554.504L580.68 549.679Z"
     id="path61" /><path
     fill="#020119"
     d="M637.746 827.878C630.073 811.858 624.476 795.278 619.933 778.148C615.826 762.659 612.568 746.794 613.706 730.682C615.114 732.532 614.256 740.726 614.25 743.432L614.876 743.621C614.942 739.541 615.759 736.082 616.371 732.093L616.441 737.233C616.13 755.492 620.382 772.823 626.115 790.036L639.582 826.658C641.526 830.256 643.263 834.182 645.686 837.473C653.895 835.945 682.364 829.846 688.859 831.578L688.583 832.802C683.675 834.608 677.974 835.108 672.8 835.891C665.835 836.946 658.777 838.254 651.764 838.889L642.99 840.338L637.746 827.878Z"
     id="path62" /><path
     fill="#D62828"
     d="M475.174 436.659C488.21 436.505 501.272 433.469 513.985 430.791L491.701 482.563L475.174 436.659Z"
     id="path63"
     style="fill:#d2683b;fill-opacity:1" /><path
     fill="#7C1717"
     d="M335.893 644.254L462.534 644.224C461.081 649.908 457.51 659.278 458.57 664.906L383.819 664.962L381.75 664.382C381.016 662.905 381.389 660.739 381.425 659.09L381.777 644.436L335.893 644.254Z"
     id="path64" /><path
     fill="#EED4A5"
     d="M473.193 431.178L475.174 436.659L491.701 482.563L476.738 518.011C475.495 521.077 473.538 528.649 471.532 530.961C471.199 531.346 470.677 531.513 470.25 531.789L464.086 531.936C463.104 519.745 456.687 512.907 448.806 504.21L473.193 431.178Z"
     id="path65" /><path
     fill="#7FA070"
     d="M1074.59 598.72C1092.25 600.093 1111.26 606.205 1127.91 612.115C1130.75 613.125 1136.21 614.457 1138.15 616.637C1143.25 617.656 1147.85 620.113 1152.46 622.446C1170.2 631.415 1187.24 645.047 1198.35 661.632C1200.52 664.871 1204.76 670.698 1204.29 674.705C1206.3 677.505 1206.71 680.735 1207.35 684.045C1209.2 693.565 1209.91 702.881 1208.39 712.545C1207.88 715.802 1206.72 720.055 1204.38 722.415C1202.72 717.081 1195.69 709.806 1192.27 705.206L1155 707.269L1156.12 706.915C1167.19 703.334 1179.41 703.541 1190.91 703.508C1183.8 694.277 1176.08 684.574 1167.39 676.779C1166.09 674.384 1163.81 672.586 1161.51 671.225C1161.24 670.647 1161.21 670.513 1160.75 669.937C1155.73 663.584 1147.15 656.999 1140.89 651.792C1139.14 650.34 1136.79 647.914 1134.69 647.123C1132.48 646.292 1128.89 646.641 1126.5 646.473L1098.01 645.553C1109.96 645.052 1121.82 644.241 1133.73 645.728L1074.59 598.72Z"
     id="path66" /><path
     fill="#FCBF49"
     d="M555.935 664.497L559.584 665.788L634.681 871.283L644.575 869.858C646.178 873.867 648.23 879.285 648.435 883.636C643.011 891.362 642.005 901.679 641.301 910.883L641.697 918.457L642.075 924.263C633.837 923.055 624.52 923.761 616.161 923.717L554.149 923.851L553.114 922.147L553.719 918.68L553.211 912.298C542.903 895.915 521.243 898.013 505.654 889.761C503.713 888.733 500.895 887.552 499.449 885.966L501.298 883.716L500.809 882.431L496.795 882.014C494.947 881.85 492.701 882.358 491.088 881.465C492.371 880.013 494.031 878.58 494.303 876.589C491.735 876.052 489.71 874.525 487.125 874.027L483.096 876.83L479.448 870.38L479.73 866.435L488.539 866.617L497.143 840.341L497.479 839.209L513.406 789.8L538.807 710.881L549.81 676.031C550.664 673.426 551.786 668.077 553.285 666.011C553.595 665.583 555.387 664.81 555.935 664.497Z"
     id="path67" /><path
     fill="#4D8FA6"
     d="M568.117 404.503L597.015 405.61L613.628 405.751L671.497 406.385C680.13 406.428 690.281 405.284 698.733 406.544C700.279 406.775 702.247 407.926 703.292 409.058C704.65 410.529 705.202 412.291 704.966 414.27C704.679 416.676 702.99 419.432 702.007 421.641L695.607 436.096L663.723 507.993L648.735 542.398C647.586 544.748 646.16 547.178 643.982 548.711C641.797 550.248 638.592 550.072 636.014 550.13C628.861 550.292 621.339 550.418 614.2 549.967L597.871 549.82L580.68 549.679L575.084 554.504C568.005 552.935 560.485 552.341 553.632 550.001L538.305 549.971L361.979 549.594L361.558 540.2L473.54 540.408L511.966 450.992L524.29 422.239C526.142 418.068 527.834 412.877 530.754 409.326C531.694 408.182 532.861 407.15 534.275 406.65C537.602 405.473 541.957 405.754 545.466 405.635C552.681 405.39 559.996 405.412 567.173 404.612L568.117 404.503Z"
     id="path68" /><path
     fill="#D62828"
     d="M553.632 550.001L580.68 549.679L575.084 554.504C568.005 552.935 560.485 552.341 553.632 550.001Z"
     id="path69"
     style="fill:#d2683b;fill-opacity:1" /><path
     fill="#EED4A5"
     d="M613.628 405.751L613.5 344.608L1252.67 344.359C1253.31 345.249 1253.91 346.227 1254.05 347.335C1254.99 354.877 1254.13 363.859 1254.14 371.561L1254.15 428.468L1254.08 482.315C1254.06 489.928 1254.94 498.77 1253.92 506.203L1253.57 507.833L1252.6 510.234C1249.59 515.375 1244.54 519.409 1240.99 524.255L1239.96 525.17C1242.01 528.246 1241.96 530.324 1242.84 533.718L1248.57 559.474C1249.53 564.084 1251.29 569.11 1251.82 573.737C1252.15 576.625 1251.13 580.189 1250.56 583.048L1231.78 664.608L1228.37 685.839C1228.11 687.856 1228.24 692.099 1227.57 693.824C1227.39 694.281 1226.49 695.092 1226.14 695.503C1226.73 696.08 1227.89 696.935 1228.24 697.644C1230.19 702.116 1229.32 708.739 1229.32 713.572L1229.94 741.964L1231.31 758.497C1231.66 761.485 1232.63 765.214 1231.66 768.07L1231.12 769.745L1222.38 769.82L1221.24 769C1221.04 767.712 1220.59 766.889 1219.99 765.757C1221.51 761.271 1218.51 753.908 1217.11 749.192C1215.62 744.171 1210.88 728.595 1205.99 725.926L1206.15 724.534L1204.38 722.415C1206.72 720.055 1207.88 715.802 1208.39 712.545C1209.91 702.881 1209.2 693.565 1207.35 684.045C1206.71 680.735 1206.3 677.505 1204.29 674.705C1204.76 670.698 1200.52 664.871 1198.35 661.632C1187.24 645.047 1170.2 631.415 1152.46 622.446C1147.85 620.113 1143.25 617.656 1138.15 616.637C1136.21 614.457 1130.75 613.125 1127.91 612.115C1111.26 606.205 1092.25 600.093 1074.59 598.72C1073.66 600.938 1074.65 603.771 1075.09 606.074L1078.61 623.56C1079.03 625.616 1079.97 628.136 1079.05 630.122C1081.16 632.254 1083.99 642.034 1084.04 645.157C1084.05 645.963 1083.83 646.417 1083.52 647.144C1087.73 650.351 1090.3 660.913 1092.34 666.016L1092.13 667.572C1094.94 669.528 1099.53 678.293 1100.66 681.65C1100.81 682.082 1100.77 682.295 1100.75 682.705L1161 671.504L1160.42 672.028C1159.37 672.895 1158.13 673.01 1156.85 673.268L1102.29 683.808C1115.02 704.857 1136.4 726.791 1161.02 732.786C1171.01 735.217 1180.63 735.889 1190.72 733.59C1195.4 732.217 1199 729.348 1203.48 727.745C1208.73 733.058 1216.3 757.809 1216.59 765.802C1216.61 766.576 1216.51 767.355 1216.37 768.113L1216.12 769.594L678.733 770.012L652.021 655.627L640.906 610.337C638.853 601.866 637.262 592.996 634.146 584.838C630.37 574.957 623.68 568.972 614.29 564.668L614.2 549.967C621.339 550.418 628.861 550.292 636.014 550.13C638.592 550.072 641.797 550.248 643.982 548.711C646.16 547.178 647.586 544.748 648.735 542.398L663.723 507.993L695.607 436.096L702.007 421.641C702.99 419.432 704.679 416.676 704.966 414.27C705.202 412.291 704.65 410.529 703.292 409.058C702.247 407.926 700.279 406.775 698.733 406.544C690.281 405.284 680.13 406.428 671.497 406.385L613.628 405.751Z"
     id="path71" /><path
     fill="#F77F00"
     d="M1092.13 667.572C1094.94 669.528 1099.53 678.293 1100.66 681.65C1100.81 682.082 1100.77 682.295 1100.75 682.705C1098.8 683.817 1090.17 682.829 1087.3 682.815L1069.75 682.546L1069.91 668.515L1085.55 668.466C1087.26 668.45 1089.88 668.744 1091.4 667.976L1092.13 667.572Z"
     id="path72" /><path
     fill="#FCBF49"
     d="M1150.21 506.402L1184.78 506.41C1184.86 510.635 1185.96 517.876 1183.65 521.467L1151.36 521.455C1151.43 517.553 1152.47 510.056 1150.47 506.77L1150.21 506.402Z"
     id="path73" /><path
     fill="#FCBF49"
     d="M914.136 414.224L974.26 414.227L974.31 427.593L914.087 427.648L914.136 414.224Z"
     id="path74" /><path
     fill="#FCBF49"
     d="M914.056 702.551L974.213 702.382L974.234 716.089L914.005 715.734L914.056 702.551Z"
     id="path75" /><path
     fill="#FCBF49"
     d="M995.36 379.57L1049.28 379.616C1049.36 383.773 1050.51 391.129 1048.17 394.62L995.29 394.655L995.36 379.57Z"
     id="path76" /><path
     fill="#FCBF49"
     d="M913.744 449.284L974.262 449.262L974.254 462.836L913.726 462.657L913.744 449.284Z"
     id="path77" /><path
     fill="#FCBF49"
     d="M913.808 575.396L974.412 575.316L974.404 589.159L913.72 588.968L913.808 575.396Z"
     id="path78" /><path
     fill="#FCBF49"
     d="M914.044 541.868L974.237 542.071L974.229 555.77L913.878 555.731L914.044 541.868Z"
     id="path79" /><path
     fill="#1D727C"
     d="M995.567 505.544L1049.04 505.665C1049.09 510.158 1050.29 518.462 1047.8 522.216L995.549 522.296L995.567 505.544Z"
     id="path80" /><path
     fill="#FCBF49"
     d="M1066.55 506.187L1132.8 506.315C1132.88 510.689 1133.98 517.931 1131.56 521.652L1067.78 521.801C1067.86 517.245 1068.74 510.864 1066.81 506.701L1066.55 506.187Z"
     id="path81" /><path
     fill="#003049"
     d="M914.23 505.55L973.774 505.607L973.712 522.508L914.201 522.565L914.23 505.55Z"
     id="path82" /><path
     fill="#D62828"
     d="M914.206 378.544L974.183 378.707L974.206 395.431L914.179 395.545L914.206 378.544Z"
     id="path83" /><path
     fill="#FCBF49"
     d="M1104.46 414.094L1184.43 414.066C1184.53 418.428 1185.29 423.802 1183.23 427.759L1105.5 427.642C1105.6 423.605 1106.34 418.322 1104.7 414.584L1104.46 414.094Z"
     id="path84" /><path
     fill="#FCBF49"
     d="M1104.3 575.426L1185.03 575.438C1185.11 579.86 1185.79 585.187 1184.15 589.344L1105.5 588.501C1105.56 584.581 1106.2 579.516 1104.55 575.908L1104.3 575.426Z"
     id="path85" /><path
     fill="#D62828"
     d="M913.943 629.357L974.264 629.346L974.285 647.574L913.972 647.447L913.943 629.357Z"
     id="path86" /><defs
     id="defs87"><linearGradient
       id="gradient_0"
       gradientUnits="userSpaceOnUse"
       x1="1078.5836"
       y1="708.20203"
       x2="995.93805"
       y2="709.51166"><stop
         offset="0"
         stop-color="#D38943"
         id="stop86" /><stop
         offset="1"
         stop-color="#F6BA65"
         id="stop87" /></linearGradient></defs><path
     fill="url(#gradient_0)"
     d="M1053.41 715.79L994.844 715.867C994.832 712.227 993.913 705.441 995.264 702.222L1045.39 702.081L1046.24 702.166L1080.32 702.148L1080.18 715.683C1071.54 715.596 1061.93 714.623 1053.41 715.79Z"
     id="path87" /><path
     fill="#FCBF49"
     d="M995.255 414.143L1085.33 414.165C1085.46 418.377 1086.3 423.782 1084.22 427.564L995.218 427.565L995.255 414.143Z"
     id="path88" /><path
     fill="#FCBF49"
     d="M995.323 449.335L1085.84 449.371C1085.94 453.751 1086.57 458.737 1084.83 462.84L995.293 462.849L995.323 449.335Z"
     id="path89" /><path
     fill="#FCBF49"
     d="M995.263 575.385L1085.93 575.202C1086.02 579.27 1087.02 585.651 1084.7 589.11L995.224 589.329L995.263 575.385Z"
     id="path90" /><path
     fill="#FCBF49"
     d="M1047.26 647.479L995.3 647.162L995.375 630.876L1059.83 630.53C1065.39 630.453 1073.12 631.411 1078.42 630.268L1079.05 630.122C1081.16 632.254 1083.99 642.034 1084.04 645.157C1084.05 645.963 1083.83 646.417 1083.52 647.144C1071.81 648.792 1059.19 646.159 1047.26 647.479Z"
     id="path91" /><path
     fill="#FCBF49"
     d="M1066.85 379.557L1184.8 379.568C1184.91 384.338 1185.69 390.137 1183.82 394.597L1067.93 394.551C1068.02 390.177 1068.9 384.069 1067.09 380.051L1066.85 379.557Z"
     id="path92" /><path
     fill="#FCBF49"
     d="M1047.35 667.281C1048.32 667.385 1049.1 667.685 1050 668.038L1050 683.066L915.06 682.555L913.875 681.705L913.817 668.483L995.015 668.469C1012.11 668.442 1030.43 669.502 1047.35 667.281Z"
     id="path93" /><path
     fill="#FCBF49"
     d="M995.291 542.044L1184.83 541.58C1184.88 545.278 1185.85 552.156 1183.89 555.233L995.186 555.571L995.291 542.044Z"
     id="path94" /><path
     fill="#003049"
     d="M1239.96 525.17C1242.01 528.246 1241.96 530.324 1242.84 533.718L1248.57 559.474C1249.53 564.084 1251.29 569.11 1251.82 573.737C1252.15 576.625 1251.13 580.189 1250.56 583.048L1231.78 664.608L1228.37 685.839C1228.11 687.856 1228.24 692.099 1227.57 693.824C1227.39 694.281 1226.49 695.092 1226.14 695.503C1223.49 692.276 1220.31 689.55 1217.62 686.33C1214.34 682.399 1211.58 676.798 1207.7 673.654C1207.7 671.769 1206.41 669.698 1205.68 667.967C1204.27 664.659 1203.07 661.321 1202.12 657.854C1198.4 644.35 1198.13 631.676 1198.9 617.797C1201.48 619.715 1204.12 621.627 1206.49 623.803C1208.13 625.305 1209.91 627.603 1211.91 628.506C1211.17 624.737 1202.28 617.999 1199.13 615.454C1201.84 597.467 1206.4 580.875 1214.76 564.644C1223.41 574.878 1227.42 588.966 1231.05 601.63L1231.49 601.272C1229.35 590.059 1224.53 571.292 1215.94 563.65L1215.4 563.195C1222.29 549.248 1230.48 537.43 1239.96 525.17Z"
     id="path95" /><path
     fill="#FCBF49"
     d="M719.657 372.819L856.818 373.006C857.604 374.715 857.194 377.582 857.189 379.451L857.163 395.713L857.221 470.385L719.812 470.546L719.657 372.819Z"
     id="path96" /><path
     fill="#003049"
     d="M782.968 393.96C789.759 393.655 795.247 393.641 801.375 397.09C808.779 401.257 814.008 407.953 816.244 416.123C818.172 423.166 816.394 431.804 812.654 437.982C808.274 445.219 801.017 449.665 792.95 451.554C786.058 452.267 779.596 451.725 773.447 448.312C766.887 444.67 761.985 438.363 760.076 431.093C758.06 423.415 758.268 415.061 762.436 408.082C767.315 399.912 773.962 396.266 782.968 393.96Z"
     id="path97" /><path
     fill="#FCBF49"
     d="M719.943 498.505L857.232 498.493L857.238 599.01L719.93 599.169L719.943 498.505Z"
     id="path98" /><path
     fill="#D62828"
     d="M768.698 526.172L819.739 553.547L802.179 563.138L768.435 581.72L768.698 526.172Z"
     id="path99" /><path
     fill="#FCBF49"
     d="M719.73 626.38L857.261 626.342L857.111 730.579L719.867 730.599L719.73 626.38Z"
     id="path100" /><path
     fill="#003049"
     d="M781.827 652.06C788.321 651.288 795.428 651.123 801.419 654.105C808.389 657.575 814.696 664.371 817.03 671.878C819.085 678.487 818.23 687.102 814.994 693.232C810.689 701.388 804.505 705.297 795.942 707.994C789.431 709.632 781.943 709.205 775.857 706.259C769.226 703.05 763.422 696.596 761.101 689.582C758.731 682.423 758.973 674.18 762.52 667.438C766.787 659.325 773.254 654.815 781.827 652.06Z"
     id="path101" /><path
     fill="#d2683b"
     d="m 644.75665,869.37211 40.73647,-7.95927 0.94951,3.8394 c -1.73871,8.48509 -4.89275,18.9392 -12.60423,23.91559 l -3.16658,1.8046 c -7.24665,3.90773 -18.49863,1.35011 -26.60446,2.42891 z"
     id="path102" /><path
     fill="#003049"
     d="m 601.69485,459.24111 c 2.65909,-0.11943 4.80798,-0.12491 7.20747,1.22559 2.89912,1.63163 4.9466,4.25353 5.82213,7.45259 0.75493,2.75776 0.0587,6.14007 -1.40571,8.55914 -1.71504,2.83373 -4.5566,4.57461 -7.71532,5.31427 -2.69865,0.27919 -5.22892,0.067 -7.63663,-1.26944 -2.56864,-1.42607 -4.48808,-3.89565 -5.23557,-6.7423 -0.78938,-3.00641 -0.70794,-6.27751 0.92409,-9.01022 1.91043,-3.19906 4.51314,-4.62669 8.03954,-5.52963 z"
     id="path38"
     style="stroke-width:0.391562" /></svg>
