<?xml version="1.0" encoding="utf-8" ?>
<svg xmlns="http://www.w3.org/2000/svg" xmlns:xlink="http://www.w3.org/1999/xlink" width="1536" height="1024">
	<path fill="#BB6A6B" d="M0.75 1024L0.17325 1022.82C-0.725697 1019.91 -0.0113401 1014.87 -0.0128546 1011.63L-0.0210801 980.989L-0.0584844 841.621L-0.0647343 173.347L-0.0345618 50.4781L-0.02504 14.5307C-0.0248964 10.2786 -0.93979 3.73435 0.75 0L1534.5 0L1535.91 0.843956L1536.03 213.046L1536.05 611.221L1536.03 885.584L1536.01 1021.58C1535.99 1022.57 1535.7 1023.15 1535.25 1024L0.75 1024Z"/>
	<path fill="#5B376D" d="M180.861 222.429C182.796 222.466 182.725 222.659 184.056 223.93L184.154 235.615C188.044 235.569 192.836 235.001 196.551 236.167C197.748 237.963 197.691 237.926 197.303 240.059C193.972 242.265 188.393 241.385 184.356 241.413L184.125 252.563C183.095 253.147 182.266 253.275 181.125 253.499C178.247 250.607 179.222 245.675 179.156 241.629C175.226 239.986 170.472 242.409 166.698 239.992C166.602 237.916 166.239 237.439 167.625 235.808L179.361 235.694C179.419 231.563 178.474 225.772 180.861 222.429Z"/>
	<path fill="#EA73A6" d="M149.455 587.018C150.631 586.659 151.779 586.678 153 586.62C156.48 588.767 156.281 592.467 156.82 596.235C156.904 596.821 156.968 598.684 157.206 599.015C157.539 599.476 161.892 599.474 163.382 599.786C165.708 600.274 167.409 600.962 169.047 602.772C169.489 604.716 169.591 604.94 168.845 606.898C165.7 609.943 160.864 609.858 156.753 610.196C156.283 614.119 156.225 618.311 154.125 621.75C151.928 622.583 151.85 622.594 149.625 621.844C146.627 618.268 146.44 615.426 146.127 610.957L139.314 609.503C137.211 609.025 135.379 608.412 134.192 606.523L134.301 604.179C134.517 599.519 144.114 600.622 146.14 598.183C146.295 597.997 146.446 595.956 146.494 595.625C146.971 592.308 147.068 589.6 149.455 587.018Z"/>
	<path fill="#FCE0C6" d="M812.43 133.908C813.304 133.865 814.925 134.087 815.575 134.693C818.774 137.678 818.253 141.858 818.39 145.911C820.117 148.035 824.788 146.744 827.625 147.78C829.521 148.472 830.187 149.785 830.974 151.537C829.8 161.522 823.002 155.325 818.357 159.039L818.193 163.777C818.002 167.455 817.579 168.46 814.875 170.922C813.835 170.909 811.684 171.148 810.75 170.871C807.723 169.971 807.72 162.457 807.506 159.882C807.46 159.328 807.814 158.555 807.371 158.22C807.204 158.094 804.301 158.063 803.869 158.032C800.459 157.788 798.749 157.476 796.125 155.238C795.61 153.08 795.486 152.099 796.368 150.037C799.502 146.957 802.458 147.365 806.625 147.173C808.468 145.589 807.58 140 808.505 137.284C809.14 135.418 810.773 134.724 812.43 133.908Z"/>
	<path fill="#EA73A6" d="M1354.9 359.713C1357.86 359.605 1358.59 360.297 1360.72 362.141C1362.2 365.148 1361.6 370.036 1361.59 373.408C1365.29 373.312 1369.24 372.923 1372.82 373.966C1374.24 375.826 1374.59 376.249 1374.71 378.675C1374.82 380.889 1373.94 382.139 1372.51 383.719C1369.26 385.095 1364.78 384.549 1361.25 384.514L1361.16 394.221C1359.52 396.653 1359.1 396.818 1356.38 397.965C1354.78 398.008 1353.92 397.364 1352.62 396.552C1350.1 392.399 1350.62 388.96 1350.48 384.217L1340.62 384.075C1338.65 382.634 1337.63 381.891 1337.38 379.218C1337.19 377.163 1338.2 376.146 1339.41 374.716C1342.88 373.378 1347.01 373.627 1350.7 373.529C1350.64 370.611 1350.1 366.295 1350.95 363.543C1351.62 361.416 1353.15 360.759 1354.9 359.713Z"/>
	<path fill="#EEE8E3" d="M0.75 1024L0.17325 1022.82C-0.725697 1019.91 -0.0113401 1014.87 -0.0128546 1011.63L-0.0210801 980.989L-0.0584844 841.621L-0.0647343 173.347L-0.0345618 50.4781L-0.02504 14.5307C-0.0248964 10.2786 -0.93979 3.73435 0.75 0L0.890268 0.67046L0.85947 1023.13L0.75 1024Z"/>
	<path fill="#BDA8B0" d="M0.75 0L1534.5 0L1534.61 0.800987L0.890268 0.67046L0.75 0Z"/>
	<path fill="#2B3563" d="M1087.59 167.666C1088.65 167.272 1089.38 167.25 1090.5 167.163C1099.59 173.771 1108.32 183.654 1115.62 192.169C1114.19 194.932 1110.81 197.555 1108.6 199.759C1103.06 205.305 1097.59 211.024 1091.62 216.122L1089.38 217.056C1086.22 215.38 1083.89 212.192 1081.37 209.676C1075.49 203.796 1069.22 198.253 1063.92 191.818C1065.76 188.803 1068.99 186.125 1071.5 183.596L1087.59 167.666Z"/>
	<path fill="#BDA8B0" d="M1090.31 178.857L1103.72 192.155L1089.87 204.967L1076.51 191.95L1090.31 178.857Z"/>
	<path fill="#EF865C" d="M244.771 432.481C246.038 432.029 247.045 431.844 248.403 431.863C251.192 431.901 252.975 432.39 254.904 434.542C257.345 437.265 257.212 440.33 257.102 443.733C254.478 449.045 248.692 453.009 244.588 457.251L218.804 483.478C212.879 489.604 206.717 497.569 199.525 502.152L198.795 502.204L196.009 502.472C193.8 502.467 191.644 501.232 190.126 499.657C188.254 497.715 187.347 495.396 187.532 492.696C187.664 490.769 188.429 489.47 189.589 487.974C192.356 484.405 196.093 481.182 199.292 477.991L215.685 461.51L232.896 444.144C236.773 440.183 240.409 435.922 244.771 432.481Z"/>
	<path fill="#F4AE6F" d="M873.927 255.115L945.214 183.657C953.223 175.838 961.002 166.462 969.719 159.543C971.483 158.143 973.175 157.165 975.492 157.088C977.455 157.022 979.303 157.813 980.644 159.18C982.207 160.775 982.613 161.639 982.532 163.848C982.456 165.915 982.386 166.987 981.211 168.759C977.415 174.482 969.931 180.384 964.996 185.329L917.5 232.686C910.559 239.645 901.653 246.995 896.076 255.086L873.927 255.115Z"/>
	<path fill="#EF865C" d="M278.633 347.71L282.75 347.293C285.183 347.381 287.41 348.638 288.895 350.554C290.341 352.42 290.589 355.156 290.22 357.44C289.928 359.245 288.659 361.177 287.436 362.495L254.489 395.387L185.527 463.776L151.587 497.96C144.608 505.085 137.536 513.981 129.375 519.571C127.653 520.056 125.633 520.325 123.883 519.821C121.635 519.174 119.779 517.222 118.67 515.241C117.457 513.075 117.298 509.488 118.215 507.187C119.221 504.666 121.9 502.533 123.839 500.667L134.585 489.977L189.252 435.911L234.264 390.867L264.668 360.219C268.877 356.076 273.419 350.371 278.633 347.71Z"/>
	<defs>
		<linearGradient id="gradient_0" gradientUnits="userSpaceOnUse" x1="324.31009" y1="191.38414" x2="239.8983" y2="165.76628">
			<stop offset="0" stop-color="#262941"/>
			<stop offset="1" stop-color="#8850A4"/>
		</linearGradient>
	</defs>
	<path fill="url(#gradient_0)" d="M270.989 216.253C268.703 215.196 265.37 210.954 263.459 209.053L241.207 186.767C238.826 184.188 236.398 181.936 236.588 178.198C236.781 174.408 276.063 135.646 281.921 130.536C288.666 134.737 294.661 142.303 300.258 147.98L319.928 167.645C322.842 170.629 326.619 173.647 328.476 177.418C328.493 181.2 327.455 182.145 324.832 184.791C318.713 190.965 287.452 224.512 282 225.604C277.96 224.872 273.66 219.296 270.989 216.253Z"/>
	<path fill="#EEE8E3" d="M273.183 190.782L261.873 178.991L281.02 159.803L285.651 164.262L300.453 179.284L281.299 198.267C278.662 195.788 276.053 192.972 273.183 190.782Z"/>
	<defs>
		<linearGradient id="gradient_1" gradientUnits="userSpaceOnUse" x1="1195.0759" y1="236.062" x2="1357.7261" y2="329.75662">
			<stop offset="0" stop-color="#E46861"/>
			<stop offset="1" stop-color="#F2B26C"/>
		</linearGradient>
	</defs>
	<path fill="url(#gradient_1)" d="M1181.41 255.241L1230.61 205.785C1238.8 197.418 1247.27 186.504 1256.86 179.907C1263.11 175.607 1269.57 173.88 1277.09 173.954C1292.47 174.106 1300.82 184.438 1310.72 194.606L1362.29 247.261C1368.08 253.256 1375.54 259.382 1380.49 265.97C1382.31 268.407 1383.32 271.394 1384.09 274.309C1385.2 278.513 1384.87 284.255 1383.27 288.267C1382.03 291.384 1380.61 293.987 1378.45 296.585C1372.7 303.495 1365.95 309.871 1359.62 316.253L1329.63 346.45C1316.84 359.365 1304.63 373.754 1291.23 385.94C1288.89 388.075 1286.13 389.67 1283.25 390.978C1278.11 393.315 1272.87 393.964 1267.54 391.907C1263.68 390.421 1260.45 387.996 1257.38 385.276C1246.76 375.844 1237.13 364.342 1227.09 354.219C1218.33 345.392 1208.61 337.447 1200.52 328.005L1200.54 291.573C1200.55 285.458 1201.19 278.572 1200.11 272.586C1199.59 269.722 1198.38 267.123 1196.77 264.715C1193.07 259.18 1187.74 256.562 1181.41 255.241Z"/>
	<path fill="#2B3563" d="M1273.21 224.806L1304.28 255.9C1301.63 260.096 1296.27 264.27 1292.71 267.833L1272.88 288.345L1241.58 256.373L1273.21 224.806Z"/>
	<path fill="#FCE0C6" d="M1272.96 242.384L1286.98 256.298L1272.9 270.333L1258.85 256.556L1272.96 242.384Z"/>
	<defs>
		<linearGradient id="gradient_2" gradientUnits="userSpaceOnUse" x1="218.07323" y1="632.79901" x2="239.98943" y2="853.14099">
			<stop offset="0" stop-color="#EB9967"/>
			<stop offset="1" stop-color="#ED7570"/>
		</linearGradient>
	</defs>
	<path fill="url(#gradient_2)" d="M215.835 627.085L215.231 623.777L216.375 622.595C223.509 623.143 233.508 624.582 240.034 627.56L249.826 629.023L250.6 629.482C256.677 633.031 264.031 634.699 270.445 637.79C291.294 647.837 311.834 665.727 320.738 687.578C322.706 690.95 328.26 707.971 330.536 708.768L331.362 721.701L310.394 721.638C304.94 721.599 292.315 720.068 288.592 724.12C285.407 727.585 285.953 737.073 286.508 741.546C286.602 742.299 286.823 742.833 287.108 743.529L285.16 745.027C287.987 747.498 290.767 749.555 293.99 751.482C292.267 763.769 292.26 778.476 293.213 790.842L293.077 793.845L293.326 794.624C293.235 801.388 295.027 809.22 297.425 815.592C305.826 831.331 314.729 838.941 331.062 846.269L230.633 846.042C210.667 836.05 190.204 824.647 173.656 809.456C155.795 793.06 144.241 772.358 143.288 747.734C142.213 719.97 149.806 692.596 174.031 676.369C183.084 670.305 193.52 665.015 200.87 656.838C205.047 652.193 208.653 646.987 211.053 641.202C212.602 637.466 213.161 630.47 215.692 627.76L215.835 627.085Z"/>
	<defs>
		<linearGradient id="gradient_3" gradientUnits="userSpaceOnUse" x1="289.03601" y1="822.43658" x2="175.84724" y2="716.85693">
			<stop offset="0" stop-color="#2A7278"/>
			<stop offset="1" stop-color="#78C29A"/>
		</linearGradient>
	</defs>
	<path fill="url(#gradient_3)" d="M178.327 716.365C187.161 714.651 199.838 715.311 208.664 716.912C219.974 718.942 231.293 720.833 242.234 724.437C248.311 726.439 254.254 729.057 260.172 731.487C262.996 732.646 266.147 734.546 269.252 734.377L274.355 737.803C278.093 739.952 281.866 742.229 285.16 745.027C287.987 747.498 290.767 749.555 293.99 751.482C292.267 763.769 292.26 778.476 293.213 790.842L293.077 793.845L293.326 794.624C293.235 801.388 295.027 809.22 297.425 815.592C280.271 815.569 261.473 813.111 245.987 805.284C241.37 804.828 233.051 799.073 229.219 796.577C200.848 778.095 183.411 750.002 176.473 717.175L178.327 716.365Z"/>
	<defs>
		<linearGradient id="gradient_4" gradientUnits="userSpaceOnUse" x1="301.75641" y1="774.87897" x2="196.90259" y2="710.41718">
			<stop offset="0" stop-color="#2C817D"/>
			<stop offset="1" stop-color="#76C79F"/>
		</linearGradient>
	</defs>
	<path fill="url(#gradient_4)" d="M178.327 716.365C187.161 714.651 199.838 715.311 208.664 716.912C219.974 718.942 231.293 720.833 242.234 724.437C248.311 726.439 254.254 729.057 260.172 731.487C262.996 732.646 266.147 734.546 269.252 734.377L274.355 737.803C278.093 739.952 281.866 742.229 285.16 745.027C287.987 747.498 290.767 749.555 293.99 751.482C292.267 763.769 292.26 778.476 293.213 790.842L293.077 793.845C290.744 792.964 287.556 789.03 285.621 787.228L270.776 774.433L263.92 768.394C259.743 766.167 255.722 762.449 251.856 759.661L227.466 743.347L201.831 729.31L186 721.16C183.285 719.79 180.202 718.858 178.327 716.365Z"/>
	<path fill="#AAC3A0" d="M178.327 716.365C187.161 714.651 199.838 715.311 208.664 716.912C205.928 717.617 203.526 718.477 200.736 717.74C198.67 717.193 195.106 717.048 193.016 717.504C197.253 719.205 201.984 721.937 206.249 723.169C208.908 723.938 211.634 725.739 213.625 727.611C216.84 730.633 222.639 733.034 226.51 735.401L247.531 749.388L258.062 757.208C258.729 757.69 260.661 759.349 261.392 759.454L267.759 764.748C274.894 770.171 281.238 776.636 287.515 783.011C289.756 785.287 292.738 787.544 293.213 790.842L293.077 793.845C290.744 792.964 287.556 789.03 285.621 787.228L270.776 774.433L263.92 768.394C259.743 766.167 255.722 762.449 251.856 759.661L227.466 743.347L201.831 729.31L186 721.16C183.285 719.79 180.202 718.858 178.327 716.365Z"/>
	<defs>
		<linearGradient id="gradient_5" gradientUnits="userSpaceOnUse" x1="315.38547" y1="734.73767" x2="216.01416" y2="624.13965">
			<stop offset="0" stop-color="#18516F"/>
			<stop offset="1" stop-color="#3DA292"/>
		</linearGradient>
	</defs>
	<path fill="url(#gradient_5)" d="M215.835 627.085L215.231 623.777L216.375 622.595C223.509 623.143 233.508 624.582 240.034 627.56L249.826 629.023L250.6 629.482C256.677 633.031 264.031 634.699 270.445 637.79C291.294 647.837 311.834 665.727 320.738 687.578C322.706 690.95 328.26 707.971 330.536 708.768L331.362 721.701L310.394 721.638C304.94 721.599 292.315 720.068 288.592 724.12C285.407 727.585 285.953 737.073 286.508 741.546C286.602 742.299 286.823 742.833 287.108 743.529L285.16 745.027C281.866 742.229 278.093 739.952 274.355 737.803L269.252 734.377C265.369 731.451 261.861 727.574 258.396 724.131C231.622 697.53 220.891 664.283 215.692 627.76L215.835 627.085Z"/>
	<defs>
		<linearGradient id="gradient_6" gradientUnits="userSpaceOnUse" x1="264.8248" y1="681.69403" x2="279.16769" y2="659.60535">
			<stop offset="0" stop-color="#2E877E"/>
			<stop offset="1" stop-color="#50A99F"/>
		</linearGradient>
	</defs>
	<path fill="url(#gradient_6)" d="M215.835 627.085L215.231 623.777L216.375 622.595C223.509 623.143 233.508 624.582 240.034 627.56L239.026 628.572L238.422 628.278C236.945 627.604 234.895 627.583 233.287 627.408L233.285 627.946C240.005 632.637 245.44 638.57 251.528 643.928L286.905 675.956L301.514 690.967C303.638 693.257 306.396 697.255 309.059 698.784C314.646 705.015 322.067 712.023 325.998 719.426L325.125 720.907L322.125 720.971L317.309 714.743C310.309 706.08 302.237 698.224 294.398 690.334C282.042 677.898 269.333 665.648 255.621 654.699C243.103 644.703 229.608 635.568 217.798 624.726C217.138 624.121 217.022 624.285 216.162 624.251L215.835 627.085Z"/>
	<path fill="#287983" d="M309.059 698.784C306.396 697.255 303.638 693.257 301.514 690.967L286.905 675.956L251.528 643.928C245.44 638.57 240.005 632.637 233.285 627.946L233.287 627.408C234.895 627.583 236.945 627.604 238.422 628.278L239.026 628.572L240.034 627.56L249.826 629.023L250.6 629.482C256.677 633.031 264.031 634.699 270.445 637.79C291.294 647.837 311.834 665.727 320.738 687.578L319.771 688.452C320.213 689.617 320.477 690.285 321.221 691.284C322.204 692.604 322.468 695.009 323.367 696.675C323.721 697.332 323.763 697.617 323.908 698.339C324.274 700.156 325.673 700.894 325.673 702.917C326.284 703.782 327.003 704.35 326.903 705.41C326.809 706.401 327.047 706.539 327.382 707.423C328.837 711.25 330.974 715.364 329.254 719.429L327.375 719.808L327.22 719.364C326.911 718.627 326.46 718.077 326 717.436C325.509 716.751 325.769 717.108 325.237 716.149C323.586 713.177 319.931 708.977 317.619 706.635C316.348 705.348 314.402 704.047 313.826 702.302C313.347 700.851 312.125 699.991 310.792 699.308C309.729 698.762 310.14 698.899 309.059 698.784Z"/>
	<defs>
		<linearGradient id="gradient_7" gradientUnits="userSpaceOnUse" x1="1171.4513" y1="672.599" x2="1364.1853" y2="515.56482">
			<stop offset="0" stop-color="#ED7B66"/>
			<stop offset="1" stop-color="#F29F6B"/>
		</linearGradient>
	</defs>
	<path fill="url(#gradient_7)" d="M1200.62 362.488L1201 352.491L1321.15 473.315L1356.1 507.769C1364.88 516.401 1374.85 525.133 1381.71 535.415C1388.61 545.74 1392.82 560.245 1392.77 572.659C1392.7 589.549 1386.7 605 1374.68 617.026C1370.21 621.498 1364.88 624.431 1360.01 628.34C1350.27 636.162 1344.8 649.217 1344.69 661.536C1344.59 673.72 1348.33 684.154 1356.97 692.946C1361.67 697.725 1367.48 701.186 1372.71 705.316C1385.95 715.774 1393.47 730.318 1393.54 747.282C1393.58 758.593 1390.83 770.275 1384.48 779.809C1378.74 788.449 1370.22 795.952 1363.01 803.396L1337.93 829.327L1320.94 846.225L1309.72 846.285L1309.59 637.85L1309.52 591.68C1309.51 587.606 1310.43 581.047 1309.49 577.372C1309.21 576.275 1307.27 573.94 1306.45 573.118C1305.07 571.743 1303.51 570.533 1301.52 570.298C1297.02 569.768 1291.9 570.201 1287.34 570.191L1259.18 570.158L1163.14 570.002C1167.43 568.714 1172.44 569.193 1176.89 569.213L1200.16 569.394L1200.62 362.488Z"/>
	<path fill="#FCE0C6" d="M1288.69 491.745C1289.24 491.586 1289.82 491.385 1290.41 491.407C1292.43 491.481 1293.47 492.072 1294.88 493.469C1297.82 496.395 1296.86 502.442 1296.78 506.344C1300.41 506.31 1304.19 505.983 1307.62 507.343C1309.99 509.588 1310.75 510.245 1311.64 513.5C1311.32 515.92 1310.54 516.879 1308.81 518.548C1305.29 520.462 1300.86 519.651 1297 519.371L1296.87 529.862C1296.79 532.106 1295.67 532.778 1294.12 534.176C1293.19 534.49 1292.12 534.844 1291.12 534.864C1289.63 534.894 1287.93 534.03 1286.87 533.019C1283.75 530.046 1284.81 523.609 1284.76 519.544C1281.85 519.597 1275.44 520.051 1273.12 518.257C1271.49 516.992 1270.51 515.596 1270.5 513.5C1270.5 511.562 1271.61 509.995 1272.97 508.711C1276.09 505.742 1280.6 506.348 1284.62 506.362L1284.78 496.246C1285.79 494.073 1286.69 493.069 1288.69 491.745Z"/>
	<path fill="#F4AE6F" d="M665.359 96.562C697.655 122.029 726.144 153.074 755.34 181.996L802.003 228.364C809.86 236.278 817.918 243.785 825.274 252.201L954.739 121.937L993.98 82.5935C999.622 76.9393 1005.38 70.0205 1011.58 65.0671C1012.93 63.9932 1014.18 63.485 1015.91 63.4797C1018.08 63.473 1020.48 64.4003 1021.88 66.1108C1023.7 68.3431 1023.73 70.4485 1023.51 73.1429C1021.11 78.2013 1015.28 82.9423 1011.32 86.8626L988.264 109.662L887.655 211.006C873.528 225.387 856.902 239.282 844.683 255.269L786.08 255.213L505.62 255.117L396.225 255.143L363.777 255.199C358.144 255.221 351.954 254.762 346.381 255.532C341.319 256.231 336.659 258.4 333.039 262.02C330.89 264.169 329.336 266.292 328.287 269.167L315.771 280.216L215.666 378.626L172.767 421.52C171.958 422.255 171.179 422.708 170.126 422.996L169.5 423.139C167.752 423.586 166.641 423.738 164.878 423.191L164.25 422.982L163.145 422.6C161.706 421.975 159.603 420.005 159.173 418.462L158.949 417.477L158.625 416.264C158.194 414.09 158.885 411.573 160.144 409.78C163.475 405.035 169.349 401.058 173.488 396.908L224.196 346.551L389.329 185.973L447.74 129.111C459.903 117.419 471.712 105.374 485.205 95.1703C503.297 81.49 526.222 70.1082 548.625 66.2406C568.143 62.8712 589.794 62.9924 609 68.2212C629.467 73.7933 648.113 84.4683 665.359 96.562Z"/>
	<defs>
		<linearGradient id="gradient_8" gradientUnits="userSpaceOnUse" x1="1137.1382" y1="686.62042" x2="330.26138" y2="264.31503">
			<stop offset="0" stop-color="#161C3C"/>
			<stop offset="1" stop-color="#2D5983"/>
		</linearGradient>
	</defs>
	<path fill="url(#gradient_8)" d="M873.927 255.115L896.076 255.086L1181.41 255.241C1187.74 256.562 1193.07 259.18 1196.77 264.715C1198.38 267.123 1199.59 269.722 1200.11 272.586C1201.19 278.572 1200.55 285.458 1200.54 291.573L1200.52 328.005C1200.44 339.1 1199.23 351.53 1200.62 362.488L1200.16 569.394L1176.89 569.213C1172.44 569.193 1167.43 568.714 1163.14 570.002C1160.43 570.682 1156.67 570.259 1153.83 570.27L1135.02 570.314L1092.33 570.369C1084.35 570.373 1076.07 570.893 1068.16 570.043C1068.86 569.371 1150.2 569.614 1163.2 569.515L1163.19 458.154L1163.3 325.589L908.784 325.465L366.874 325.567C365.901 323.354 366.476 319.422 366.483 316.883L366.566 291.761C365.602 295.804 366.035 300.387 366.034 304.525L366.404 330.831L366.551 375.611L366.878 613.852C373.926 606.73 380.952 599.953 389.182 594.19C393.606 591.092 408.884 580.523 414.044 581.436C416.879 586.977 416.367 597.465 416.219 603.745C415.463 615.499 414.451 627.809 410.583 639.034C407.842 641.441 403.086 642.706 399.75 644.302C393.847 647.125 383.119 654.182 380.011 660.162C363.524 675.832 357.129 699.926 353.053 721.549L346.114 721.758L331.362 721.701L330.536 708.768C328.26 707.971 322.706 690.95 320.738 687.578C311.834 665.727 291.294 647.837 270.445 637.79C264.031 634.699 256.677 633.031 250.6 629.482L249.826 629.023C236.63 616.239 227.6 601.403 226.577 582.63C225.778 567.968 230.984 552.377 239.598 540.588C246.771 530.771 256.195 522.255 264.303 513.187L266.898 498.174L267.782 497.037L271.822 497.536L328.556 438.946L328.287 269.167C329.336 266.292 330.89 264.169 333.039 262.02C336.659 258.4 341.319 256.231 346.381 255.532C351.954 254.762 358.144 255.221 363.777 255.199L396.225 255.143L505.62 255.117L786.08 255.213L844.683 255.269L873.927 255.115Z"/>
	<path fill="#F4AE6F" d="M328.556 438.946L329.199 541.135C312.834 521.473 295.422 507.576 271.822 497.536L328.556 438.946Z"/>
	<path fill="#348F8B" d="M266.898 498.174L267.782 497.037L271.822 497.536C295.422 507.576 312.834 521.473 329.199 541.135C341.999 561.806 349.634 582.559 343.87 607.076C342.367 613.468 340.487 618.299 336.789 623.755C335.666 621.541 334.601 619.395 333.134 617.38C333.218 614.598 329.947 608.758 328.828 606.059C315.914 574.899 300.009 545.151 280.79 517.401C276.275 510.882 272.196 504.135 266.898 498.174Z"/>
	<defs>
		<linearGradient id="gradient_9" gradientUnits="userSpaceOnUse" x1="367.16742" y1="724.02008" x2="394.65152" y2="581.55316">
			<stop offset="0" stop-color="#2D9485"/>
			<stop offset="1" stop-color="#74BC98"/>
		</linearGradient>
	</defs>
	<path fill="url(#gradient_9)" d="M366.878 613.852C373.926 606.73 380.952 599.953 389.182 594.19C393.606 591.092 408.884 580.523 414.044 581.436C416.879 586.977 416.367 597.465 416.219 603.745C415.463 615.499 414.451 627.809 410.583 639.034C407.842 641.441 403.086 642.706 399.75 644.302C393.847 647.125 383.119 654.182 380.011 660.162C363.524 675.832 357.129 699.926 353.053 721.549L346.114 721.758L343.698 701.293L343.116 695.22C341.515 674.742 342.387 653.674 351.915 635.03C355.951 627.133 361.136 620.551 366.878 613.852Z"/>
	<path fill="#AAC3A0" d="M366.878 613.852C373.926 606.73 380.952 599.953 389.182 594.19C393.606 591.092 408.884 580.523 414.044 581.436C411.513 586.586 407.377 590.472 403.626 594.735L392.255 608.7C370.214 636.246 353.289 666.871 344.531 701.136L343.698 701.293L343.116 695.22C341.515 674.742 342.387 653.674 351.915 635.03C355.951 627.133 361.136 620.551 366.878 613.852Z"/>
	<defs>
		<linearGradient id="gradient_10" gradientUnits="userSpaceOnUse" x1="274.29974" y1="607.91138" x2="321.04611" y2="530.97662">
			<stop offset="0" stop-color="#0F3053"/>
			<stop offset="1" stop-color="#33848D"/>
		</linearGradient>
	</defs>
	<path fill="url(#gradient_10)" d="M266.898 498.174C272.196 504.135 276.275 510.882 280.79 517.401C300.009 545.151 315.914 574.899 328.828 606.059C329.947 608.758 333.218 614.598 333.134 617.38L334.727 623.365L336.983 628.653C335.735 630.552 335.005 632.001 332.619 632.603C331.894 632.786 330.996 632.625 330.278 632.545L330.171 632.805C325.656 633.372 321.204 633.163 316.843 631.856C299.303 626.6 283.262 612.472 274.667 596.416C260.055 571.371 260.28 540.926 264.303 513.187L266.898 498.174Z"/>
	<path fill="#EF865C" d="M264.303 513.187C260.28 540.926 260.055 571.371 274.667 596.416C283.262 612.472 299.303 626.6 316.843 631.856C321.204 633.163 325.656 633.372 330.171 632.805L331.471 633.905L330.536 708.768C328.26 707.971 322.706 690.95 320.738 687.578C311.834 665.727 291.294 647.837 270.445 637.79C264.031 634.699 256.677 633.031 250.6 629.482L249.826 629.023C236.63 616.239 227.6 601.403 226.577 582.63C225.778 567.968 230.984 552.377 239.598 540.588C246.771 530.771 256.195 522.255 264.303 513.187Z"/>
	<path fill="#FCE0C6" d="M747.122 290.947L1163.55 291.154L1163.3 325.589L908.784 325.465L366.874 325.567C365.901 323.354 366.476 319.422 366.483 316.883L366.566 291.761C370.486 289.662 443.174 291.026 453.045 291.027L747.122 290.947Z"/>
	<defs>
		<linearGradient id="gradient_11" gradientUnits="userSpaceOnUse" x1="653.87006" y1="594.05566" x2="612.06158" y2="293.09012">
			<stop offset="0" stop-color="#674E8C"/>
			<stop offset="1" stop-color="#C76A9B"/>
		</linearGradient>
	</defs>
	<path fill="url(#gradient_11)" d="M366.878 613.852L366.551 375.611L366.404 330.831L366.034 304.525C366.035 300.387 365.602 295.804 366.566 291.761L366.483 316.883C366.476 319.422 365.901 323.354 366.874 325.567L908.784 325.465L815.149 420.381C812.163 417.674 807.364 412.17 803.594 411.33L809.012 416.548L793.106 431.125L656.192 558.085L656.256 558.755L655.801 558.86C650.921 560.192 644.621 566.808 640.566 570.132L606.875 597.845C605.046 599.292 601.888 602.601 599.931 603.407C598.059 604.178 591.721 603.534 589.302 603.558L543.264 603.494L416.219 603.745C416.367 597.465 416.879 586.977 414.044 581.436C408.884 580.523 393.606 591.092 389.182 594.19C380.952 599.953 373.926 606.73 366.878 613.852Z"/>
	<path fill="#5B376D" d="M498.547 428.719C500.865 430.595 502.095 431.03 502.82 433.981C502.087 436.689 501.591 437.043 499.5 438.975C495.915 440.029 491.679 439.555 487.961 439.532L468.28 439.387L414.375 439.451C413.278 438.104 412.661 437.104 412.125 435.446C419.645 434.764 427.479 435.183 435.043 435.184L475.083 435.179C480.046 435.174 490.08 436.371 494.302 434.499C497.071 433.069 497.432 431.402 498.547 428.719Z"/>
	<path fill="#5B376D" d="M537.573 466.824L538.125 465.054C540.043 466.596 541.062 467.67 541.939 469.99C541.099 472.617 540.605 472.991 538.5 474.83C527.691 476.097 516.204 475.287 505.306 475.287L442.203 475.304L421.594 475.334C419.486 475.348 415.979 475.873 414 475.402C413.253 475.224 412.088 474.349 411.375 473.956C411.015 473.231 410.62 472.522 410.353 471.757L532.875 471.706C535.456 470.589 536.254 469.145 537.573 466.824Z"/>
	<path fill="#5B376D" d="M544.852 393.941C546.895 395.05 547.812 395.953 548.962 397.972C548.868 400.154 548.413 401.219 547.125 402.973C546.625 403.247 546.18 403.663 545.625 403.797C543.595 404.287 540.066 403.815 537.912 403.822L520.228 403.871L447.525 403.983L422.588 404.157C420.337 404.165 416.38 404.71 414.323 403.894C412.759 403.273 411.715 401.096 410.795 399.727L500.088 399.705C513.497 399.698 527.902 400.885 541.125 399.339C543.421 397.611 543.752 396.512 544.852 393.941Z"/>
	<path fill="#FCE0C6" d="M494.302 434.499L409.5 434.266C408.136 433.276 406.447 432.503 406.308 430.605C406.087 427.603 407.039 426.835 408.974 424.85C415.679 423.604 423.077 424.111 429.89 424.075L466.438 424.057C475.007 424.078 485.95 422.871 494.25 424.495C496.356 424.907 497.381 427.1 498.547 428.719C497.432 431.402 497.071 433.069 494.302 434.499Z"/>
	<path fill="#5B376D" d="M613.378 362.912L613.875 360.4C615.857 362.656 617.702 364.426 617.901 367.59C617.33 369.371 617.136 370.412 615.375 371.394C612.32 373.096 603.57 372.053 599.982 372.042L555.263 371.859L414.75 371.905C412.732 370.777 411.871 369.464 410.683 367.519L560.251 367.446L596.453 367.53C600.242 367.535 606.503 368.382 609.88 367.242C611.705 366.626 612.463 364.492 613.378 362.912Z"/>
	<path fill="#FCE0C6" d="M410.353 471.757C409.595 471.422 409.103 471.08 408.503 470.502C406.824 468.886 406.334 468.292 406.47 465.864C406.572 464.04 407.793 462.875 409.071 461.738C412.943 460.188 418.33 460.84 422.465 460.838L448.883 460.869L503.211 460.904C513.496 460.918 524.147 460.387 534.375 461.35C536.37 463.033 536.914 464.325 537.573 466.824C536.254 469.145 535.456 470.589 532.875 471.706L410.353 471.757Z"/>
	<path fill="#FCE0C6" d="M410.795 399.727C408.775 399.103 408.077 398.221 406.795 396.58C406.605 393.748 406.659 393.339 408.025 390.86C408.775 390.425 409.829 389.6 410.625 389.355C412.8 388.683 417.605 389.146 420 389.136L445.11 389.105L540.75 389.36C542.905 390.313 543.683 392.011 544.852 393.941C543.752 396.512 543.421 397.611 541.125 399.339C527.902 400.885 513.497 399.698 500.088 399.705L410.795 399.727Z"/>
	<path fill="#FCE0C6" d="M410.683 367.519C408.989 366.658 408.112 365.669 406.912 364.214C406.394 362.052 406.548 360.989 407.444 358.963C409.129 357.735 409.724 357.274 411.858 357.11C420.526 356.441 429.757 357.051 438.476 357.046L493.354 357.033L567.438 357.044L609.75 357.294C612.187 359.141 612.372 360.128 613.378 362.912C612.463 364.492 611.705 366.626 609.88 367.242C606.503 368.382 600.242 367.535 596.453 367.53L560.251 367.446L410.683 367.519Z"/>
	<defs>
		<linearGradient id="gradient_12" gradientUnits="userSpaceOnUse" x1="711.47229" y1="557.55939" x2="712.02087" y2="377.91669">
			<stop offset="0" stop-color="#F68FA7"/>
			<stop offset="1" stop-color="#FBF2D6"/>
		</linearGradient>
	</defs>
	<path fill="url(#gradient_12)" d="M715.625 425.831C720.301 420.324 726.598 415.467 731.949 410.585L768.811 377.411L803.594 411.33L809.012 416.548L793.106 431.125L656.192 558.085C652.629 557.091 645.554 547.983 642.628 545.008L615.054 518.057L686.467 452.262C695.914 443.656 705.379 433.347 715.625 425.831Z"/>
	<path fill="#222A4C" d="M1163.14 570.002L1259.18 570.158L1287.34 570.191C1291.9 570.201 1297.02 569.768 1301.52 570.298C1303.51 570.533 1305.07 571.743 1306.45 573.118C1307.27 573.94 1309.21 576.275 1309.49 577.372C1310.43 581.047 1309.51 587.606 1309.52 591.68L1309.59 637.85L1309.72 846.285L1320.94 846.225L1386.39 846.178L1401.08 846.183C1402.52 846.185 1405.56 845.952 1406.87 846.445C1407.46 846.666 1408.42 847.662 1408.95 848.082C1409.99 850.189 1410.09 851.308 1409.62 853.605C1408.16 855.252 1407.45 856.366 1405.12 856.703L987.88 856.741L129.375 856.734C127.043 856.498 125.957 855.082 124.579 853.333C124.619 850.527 124.363 849.046 126.75 846.993C128.662 845.349 219.069 846.085 230.633 846.042L331.062 846.269C314.729 838.941 305.826 831.331 297.425 815.592C295.027 809.22 293.235 801.388 293.326 794.624L293.077 793.845L293.213 790.842C292.26 778.476 292.267 763.769 293.99 751.482C290.767 749.555 287.987 747.498 285.16 745.027L287.108 743.529C286.823 742.833 286.602 742.299 286.508 741.546C285.953 737.073 285.407 727.585 288.592 724.12C292.315 720.068 304.94 721.599 310.394 721.638L331.362 721.701L346.114 721.758L353.053 721.549L354.072 721.817L397.55 721.732C404.044 721.708 411.144 722.326 417.524 721.516C421.679 722.054 423.872 722.761 426.569 726.251C429.02 729.423 428.667 734.574 428.2 738.383C427.875 741.032 426.838 742.937 425.081 744.907L736.398 744.836L974.783 745.201L974.868 674.493L974.973 660.825C974.986 659.794 974.702 657.03 975.04 656.147C975.369 655.29 977.216 653.506 977.906 652.791C978.691 651.976 980.305 650.7 981.375 650.435C987.167 649.002 995.964 650.188 1002.13 650.221L1051.99 650.338L1052.03 599.028C1052.04 591.894 1051.14 583.202 1052.4 576.277C1052.69 574.706 1053.81 573.345 1054.93 572.263C1058.2 569.11 1063.87 570.003 1068.16 570.043C1076.07 570.893 1084.35 570.373 1092.33 570.369L1135.02 570.314L1153.83 570.27C1156.67 570.259 1160.43 570.682 1163.14 570.002Z"/>
	<path fill="#EA73A6" d="M395.185 754.15L416.273 754.092L416.109 778.004C413.993 798.419 411.032 820.131 394.166 834.045C382.047 844.043 362.376 846.797 347.081 845.132C338.168 844.162 326.674 842.116 319.149 837.011C341.031 834.322 362.139 829.029 378.117 812.744C394.457 796.09 395.501 775.971 395.185 754.15Z"/>
	<path fill="#F4AE6F" d="M310.394 721.638L331.362 721.701L346.114 721.758L353.053 721.549L354.072 721.817L397.55 721.732C404.044 721.708 411.144 722.326 417.524 721.516C421.679 722.054 423.872 722.761 426.569 726.251C429.02 729.423 428.667 734.574 428.2 738.383C427.875 741.032 426.838 742.937 425.081 744.907C423.797 745.885 422.359 746.733 420.75 747.037C414.419 748.233 405.801 747.123 399.264 747.129L352.867 747.073L333.631 747.11L319.219 747.226L299.24 747.234C296.962 747.228 293.328 747.699 291.274 746.991C289.788 746.479 288.214 744.629 287.108 743.529C286.823 742.833 286.602 742.299 286.508 741.546C285.953 737.073 285.407 727.585 288.592 724.12C292.315 720.068 304.94 721.599 310.394 721.638Z"/>
	<defs>
		<linearGradient id="gradient_13" gradientUnits="userSpaceOnUse" x1="368.66599" y1="738.70355" x2="286.22034" y2="729.40948">
			<stop offset="0" stop-color="#DFBB7E"/>
			<stop offset="1" stop-color="#FCF0E3"/>
		</linearGradient>
	</defs>
	<path fill="url(#gradient_13)" d="M310.394 721.638L331.362 721.701L346.114 721.758L353.053 721.549L354.072 721.817L371.077 722.882L356.174 723.177C355.14 725.482 353.915 727.773 353.618 730.304L352.296 738.908C351.82 741.005 352.088 743.53 352.121 745.682L364.125 745.682C361.498 747.142 355.999 746.513 352.867 747.073L333.631 747.11L319.219 747.226L299.24 747.234C296.962 747.228 293.328 747.699 291.274 746.991C289.788 746.479 288.214 744.629 287.108 743.529C286.823 742.833 286.602 742.299 286.508 741.546C285.953 737.073 285.407 727.585 288.592 724.12C292.315 720.068 304.94 721.599 310.394 721.638Z"/>
	<path fill="#2B3563" d="M814.355 819.173L857.903 819.216C863.125 819.236 869.871 818.455 874.94 819.56C878.114 820.252 881.679 822.407 883.993 824.684C889.529 830.133 891.828 839.292 892.92 846.719C888.999 847.968 884.93 847.727 880.86 847.763L862.125 847.853L793.875 847.851L662.587 848.362L640.875 848.236C636.969 848.22 632.429 848.675 628.744 847.285L629.609 843.191L751.384 842.999L731.261 819.353L814.355 819.173Z"/>
	<path fill="#2F658D" d="M1059.02 717.714L1059.15 814.635L1059.04 834.047C1059.01 835.733 1059.38 839.052 1058.89 840.58C1058.66 841.289 1057.58 842.441 1057.12 843.098C1052.61 845.153 1042.99 843.932 1037.91 843.943L990 843.805C988.902 842.943 987.882 842.464 987.424 841.109C986.343 837.907 987.005 833.044 987.011 829.57L987.095 801.93L986.988 711.135L986.927 680.212C986.924 675.222 986.401 669.593 986.967 664.662C987.064 663.816 987.415 663.211 987.799 662.472L987.581 806.931L1059.02 717.714Z"/>
	<path fill="#F4AE6F" d="M1030.58 790.119C1033.57 790.384 1036.15 790.612 1038.75 792.303C1041.81 794.293 1043.91 797.103 1044.66 800.703L1044.82 801.571C1045.38 804.454 1045.32 806.362 1044.07 809.073C1041.82 813.979 1038.31 815.567 1033.47 817.344C1030.27 817.239 1027.15 817.179 1024.33 815.504C1021.36 813.741 1019.2 810.852 1018.39 807.492C1017.43 803.473 1018.17 798.901 1020.52 795.477C1022.96 791.933 1026.56 790.815 1030.58 790.119Z"/>
	<path fill="#EEC267" d="M1029 794.567C1031.01 794.476 1033.27 794.269 1035.24 794.69C1038.03 795.287 1039.99 797.184 1041.32 799.609C1042.04 800.905 1041.96 804.746 1041.47 806.142C1040.41 809.101 1037.41 811.367 1034.62 812.503C1033.06 812.6 1031.28 812.8 1029.74 812.498C1027.09 811.979 1024.64 809.577 1023.22 807.405C1021.94 805.435 1021.54 803.614 1022.14 801.303C1023.11 797.585 1025.88 796.252 1029 794.567Z"/>
	<path fill="#FCE0C6" d="M294.683 794.548L294.745 753.979L395.185 754.15C395.501 775.971 394.457 796.09 378.117 812.744C362.139 829.029 341.031 834.322 319.149 837.011C317.739 836.286 316.51 835.465 315.262 834.493C301.735 823.972 296.804 810.942 294.683 794.548Z"/>
	<path fill="#304B7C" d="M708.225 784.486L708.826 784.265L709.067 779.065C709.586 778.743 710.044 778.289 710.625 778.099C712.023 777.644 715.202 778.023 716.752 778.001L733.88 777.899L812.602 777.687L813.773 779.318L814.243 779.204L814.355 819.173L731.261 819.353L751.384 842.999L629.609 843.191L633.236 832.635C635.469 827.467 639.901 822.753 645.167 820.658L645.666 820.463C651.281 818.221 660.206 819.327 666.296 819.323L707.907 819.233L708.02 797.359L708.225 784.486Z"/>
	<path fill="#2B3563" d="M708.225 784.486L708.826 784.265L709.067 779.065C709.586 778.743 710.044 778.289 710.625 778.099C712.023 777.644 715.202 778.023 716.752 778.001L733.88 777.899L812.602 777.687L813.773 779.318L813.831 797.389L708.02 797.359L708.225 784.486Z"/>
	<defs>
		<linearGradient id="gradient_14" gradientUnits="userSpaceOnUse" x1="1044.0398" y1="768.37396" x2="982.82159" y2="667.04767">
			<stop offset="0" stop-color="#2E8D91"/>
			<stop offset="1" stop-color="#48BEAB"/>
		</linearGradient>
	</defs>
	<path fill="url(#gradient_14)" d="M987.799 662.472C998.759 661.148 1010.5 662.033 1021.59 662.053C1033.91 662.075 1046.66 661.391 1058.9 662.395L1059.02 717.714L987.581 806.931L987.799 662.472Z"/>
	<path fill="#EEE8E3" d="M1004.87 672.539C1006.25 672.478 1007.78 672.53 1009.12 672.881C1012.01 673.637 1014.64 676.06 1015.88 678.736C1017.16 681.508 1017.32 684.304 1016.25 687.168C1014.77 691.126 1012.06 692.923 1008.38 694.473C1006.1 694.68 1004.36 694.692 1002.22 693.695C999.313 692.339 997.341 689.791 996.39 686.768C995.424 683.7 995.72 680.705 997.333 677.913C999.05 674.942 1001.59 673.371 1004.87 672.539Z"/>
	<defs>
		<linearGradient id="gradient_15" gradientUnits="userSpaceOnUse" x1="897.53949" y1="849.25043" x2="892.29883" y2="774.76666">
			<stop offset="0" stop-color="#F48069"/>
			<stop offset="1" stop-color="#FAA669"/>
		</linearGradient>
	</defs>
	<path fill="url(#gradient_15)" d="M814.243 779.204C818.984 778.136 824.558 778.695 829.414 778.693L859.296 778.695L974.644 778.835L974.548 822.553C974.566 829.985 974.025 837.977 975.058 845.334C971.732 847.47 913.55 846.33 904.99 846.443C901.936 846.483 895.503 845.791 892.92 846.719C891.828 839.292 889.529 830.133 883.993 824.684C881.679 822.407 878.114 820.252 874.94 819.56C869.871 818.455 863.125 819.236 857.903 819.216L814.355 819.173L814.243 779.204Z"/>
	<defs>
		<linearGradient id="gradient_16" gradientUnits="userSpaceOnUse" x1="550.56696" y1="774.935" x2="548.03888" y2="849.98212">
			<stop offset="0" stop-color="#F9A669"/>
			<stop offset="1" stop-color="#F07474"/>
		</linearGradient>
	</defs>
	<path fill="url(#gradient_16)" d="M417.784 778.795L649.68 778.749L694.119 778.726C697.2 778.723 704.141 777.829 706.875 778.714C707.296 778.85 707.616 779.198 707.986 779.44L708.225 784.486L708.02 797.359L707.907 819.233L666.296 819.323C660.206 819.327 651.281 818.221 645.666 820.463L645.167 820.658C639.901 822.753 635.469 827.467 633.236 832.635L629.609 843.191L628.744 847.285C623.523 845.929 615.839 846.794 610.401 846.781L566.864 846.72L385.828 846.872C391.955 843.185 397.6 839.147 402.129 833.544C410.92 822.67 414.367 806.052 416.139 792.447C416.677 788.31 416.031 782.465 417.784 778.795Z"/>
	<path fill="#6DC3B2" d="M1071.17 653.587L1066.04 650.656C1064.45 645.963 1065.63 637.737 1065.63 632.492L1065.7 583.742L1284.49 583.566C1281.93 586.896 1269.8 600.356 1269.96 603.756L1271.01 604.648L1270.43 605.993C1269.37 606.385 1267.7 606.306 1267.12 606.523C1266.5 606.751 1265.46 608.704 1264.55 609.235L1218.9 664.967L1216.59 665.435C1216.62 666.879 1216.72 668.069 1217.05 669.472L1215.34 669.608L1184.63 707.574C1180.29 712.7 1173.33 718.876 1170.16 724.622L1167.86 724.457L1115.27 724.9C1113.26 723.131 1113.64 722.074 1112.04 720.125C1109.52 717.033 1104.43 716.757 1100.74 716.411L1076.06 716.453L1074.48 716.935C1073.02 713.471 1073.69 707.927 1073.65 704.064L1073.35 676.222C1073.32 669.468 1075 659.23 1071.17 653.587Z"/>
	<path fill="#348F8B" d="M1071.17 653.587C1073.59 655.219 1075.32 656.443 1075.9 659.45C1076.9 664.629 1076.22 671.246 1076.22 676.605L1076.06 716.453L1074.48 716.935C1073.02 713.471 1073.69 707.927 1073.65 704.064L1073.35 676.222C1073.32 669.468 1075 659.23 1071.17 653.587Z"/>
	<path fill="#EF865C" d="M1112.45 666.202C1115.7 664.906 1119.28 665.202 1122.72 665.16L1140.11 664.984L1188.76 664.869C1197.94 664.905 1207.46 664.446 1216.59 665.435C1216.62 666.879 1216.72 668.069 1217.05 669.472L1215.34 669.608C1207.44 668.495 1198.16 669.371 1190.12 669.414L1142.26 669.671C1132.74 669.718 1123.01 670.19 1113.53 669.392L1112.45 666.202Z"/>
	<path fill="#EF865C" d="M1113.53 669.392C1114.26 671.364 1114.1 673.128 1113.61 675.144C1112.69 678.91 1110.47 681.792 1107.14 683.792C1104.21 685.553 1101.15 686.472 1097.77 685.48C1094.16 684.42 1091.2 681.527 1089.44 678.271C1088 675.597 1087.49 671.065 1088.59 668.132C1089.89 664.668 1092.3 662.209 1095.7 660.833C1099.79 659.176 1103.52 659.146 1107.57 660.991C1109.88 662.041 1111.6 663.895 1112.45 666.202L1113.53 669.392Z"/>
	<path fill="#EEC267" d="M1100.06 663.537C1101.12 663.6 1102.22 663.66 1103.25 663.933C1105.49 664.527 1106.49 666.65 1107.51 668.518C1107.82 671.044 1107.96 672.843 1106.66 675.185C1105.33 677.599 1103.96 678.149 1101.38 678.918C1100.6 678.939 1099.91 678.966 1099.16 678.766C1096.36 678.027 1095.18 676.364 1093.79 674.04C1093.51 671.873 1093.1 669.645 1094.27 667.663C1095.73 665.192 1097.39 664.336 1100.06 663.537Z"/>
	<path fill="#EF865C" d="M1116.02 609.554C1115.61 611.947 1115.19 614.501 1114.15 616.711C1112.55 620.091 1108.51 623.575 1104.86 624.527C1101.66 625.363 1097.91 624.702 1095.1 622.968C1091.85 620.959 1090.01 618.202 1089.27 614.444C1088.6 611.046 1089.47 606.981 1091.62 604.246C1093.93 601.328 1097.4 599.316 1101.09 598.893C1105.92 598.339 1110.22 601.213 1113.84 604.022C1114.75 605.835 1115.7 607.522 1116.02 609.554Z"/>
	<path fill="#EEC267" d="M1098.23 603.522C1099.55 603.065 1100.94 602.979 1102.32 602.965C1105.31 602.934 1106.17 604.2 1108.12 606.197C1108.66 607.629 1108.96 608.892 1108.82 610.435C1108.57 613.303 1107.08 615.305 1104.88 617.026C1103.46 617.923 1102.8 618.111 1101.09 618.025C1099.07 617.925 1097.04 616.922 1095.78 615.277C1094.37 613.426 1093.96 611.043 1094.3 608.774C1094.67 606.313 1096.38 604.967 1098.23 603.522Z"/>
	<path fill="#AB3F64" d="M1269.96 603.756L1271.01 604.648L1270.43 605.993C1269.37 606.385 1267.7 606.306 1267.12 606.523C1266.5 606.751 1265.46 608.704 1264.55 609.235L1116.02 609.554C1115.7 607.522 1114.75 605.835 1113.84 604.022L1269.96 603.756Z"/>
	<path fill="#304B7C" d="M1284.49 583.566L1298.31 583.509L1298.12 754.572L1298.28 810.135C1298.31 819.326 1298.98 829.087 1298.19 838.209C1297.96 840.862 1297.44 841.199 1295.62 843.181C1291.73 844.74 1285.87 843.943 1281.65 843.943L1249.52 843.918L1197.55 843.937L1171.37 843.922L1077.38 843.9C1076.86 843.478 1075.44 842.593 1075.15 842.081C1073.54 839.277 1074.85 756.153 1074.92 743.603L1075 726.938C1075.02 723.827 1075.36 720.385 1074.6 717.357L1074.48 716.935L1076.06 716.453L1100.74 716.411C1104.43 716.757 1109.52 717.033 1112.04 720.125C1113.64 722.074 1113.26 723.131 1115.27 724.9L1167.86 724.457L1170.16 724.622C1173.33 718.876 1180.29 712.7 1184.63 707.574L1215.34 669.608L1217.05 669.472C1216.72 668.069 1216.62 666.879 1216.59 665.435L1218.9 664.967L1264.55 609.235C1265.46 608.704 1266.5 606.751 1267.12 606.523C1267.7 606.306 1269.37 606.385 1270.43 605.993L1271.01 604.648L1269.96 603.756C1269.8 600.356 1281.93 586.896 1284.49 583.566Z"/>
	<path fill="#EF865C" d="M1115.27 724.9L1167.86 724.457L1167.38 726.56L1168.19 727.041C1168.96 727.495 1169.6 727.976 1170.26 728.572L1117.13 727.746L1114.25 727.439L1115.27 724.9Z"/>
	<path fill="#FE8591" d="M1218.9 664.967L1219.6 665.032L1278.58 664.965C1279.85 666.508 1279.51 666.862 1279.36 668.788C1274.48 670.394 1266.47 669.372 1261.26 669.39L1217.05 669.472C1216.72 668.069 1216.62 666.879 1216.59 665.435L1218.9 664.967Z"/>
	<path fill="#2F658D" d="M1172.1 724.113C1173.42 722.766 1174.98 721.421 1175.93 719.792C1176.77 718.359 1178.16 717.238 1179.36 716.1L1193.56 714.27C1197.55 713.657 1210.93 721.408 1214.22 723.909L1172.1 724.113Z"/>
	<path fill="#FE8591" d="M1214.22 723.909C1222.23 723.91 1276.57 722.782 1279.6 724.677L1279.56 727.678C1277.16 729.1 1183.66 729.138 1170.26 728.572C1169.6 727.976 1168.96 727.495 1168.19 727.041L1167.38 726.56L1167.86 724.457L1170.16 724.622L1172.1 724.113L1214.22 723.909Z"/>
	<path fill="#FE8591" d="M1209.48 784.765L1259.14 784.755C1265.01 784.761 1273.81 783.577 1279.12 785.367C1279.59 787.106 1279.88 787.382 1279.12 789.077L1201.24 789.282L1115.3 789.099L1112.56 785.55L1117.6 784.995L1209.48 784.765Z"/>
	<path fill="#2F658D" d="M1156.44 740.295L1156.92 740.133C1160.38 738.805 1163.27 735.124 1165.86 732.54C1166.24 732.16 1167.86 730.233 1168.27 730.115C1171.21 729.276 1220.86 729.707 1223.06 730.626C1227.09 732.319 1231.11 735.374 1234.72 737.872L1221.71 762.269C1217.83 769.894 1214.28 777.663 1209.48 784.765L1117.6 784.995C1126.71 772.049 1138.35 760.028 1149.06 748.395C1151.44 745.808 1153.6 742.262 1156.44 740.295Z"/>
	<path fill="#466D99" d="M1076.06 716.453L1100.74 716.411C1104.43 716.757 1109.52 717.033 1112.04 720.125C1113.64 722.074 1113.26 723.131 1115.27 724.9L1114.25 727.439L1117.13 727.746C1116.69 728.725 1116.79 728.242 1116.75 729.174C1119.9 730.832 1126.83 729.957 1130.46 729.966L1164.99 729.975C1162.16 733.234 1158.71 736.646 1156.44 740.295C1153.6 742.262 1151.44 745.808 1149.06 748.395C1138.35 760.028 1126.71 772.049 1117.6 784.995L1112.56 785.55L1115.3 789.099L1201.24 789.282L1196.18 790.913L1205.71 791.079L1171.37 843.922L1077.38 843.9C1076.86 843.478 1075.44 842.593 1075.15 842.081C1073.54 839.277 1074.85 756.153 1074.92 743.603L1075 726.938C1075.02 723.827 1075.36 720.385 1074.6 717.357L1074.48 716.935L1076.06 716.453Z"/>
	<path fill="#5B376D" d="M1115.3 789.099L1201.24 789.282L1196.18 790.913C1185.91 790.876 1118.54 789.712 1116.19 791.443C1116.49 797.486 1115.29 800.936 1111.12 805.408C1108.75 807.956 1105.81 808.74 1102.44 808.815C1100.8 808.851 1099.42 808.803 1097.89 808.151L1097.12 807.825C1093.84 806.341 1090.4 803.164 1089.13 799.751C1088.48 798.022 1088.16 796.156 1088.06 794.317C1089.2 795.939 1090.14 797.548 1091.02 799.32C1093.45 800.223 1094.91 802.337 1097.46 802.891C1098.7 803.16 1098.06 802.915 1099.24 803.392C1100.21 803.784 1100.76 803.513 1101.75 803.372C1102.87 803.21 1104.22 803.091 1105.27 802.612C1107.19 801.741 1108.66 799.723 1109.32 797.778C1110.74 793.582 1111.98 791.939 1115.3 789.099Z"/>
	<path fill="#691F62" d="M1088.06 794.317C1088.19 791.065 1088.6 788.1 1090.71 785.489C1093.11 782.517 1096.01 780.632 1099.88 780.264C1105.26 779.751 1108.65 782.264 1112.56 785.55L1115.3 789.099C1111.98 791.939 1110.74 793.582 1109.32 797.778C1108.66 799.723 1107.19 801.741 1105.27 802.612C1104.22 803.091 1102.87 803.21 1101.75 803.372C1100.76 803.513 1100.21 803.784 1099.24 803.392C1098.06 802.915 1098.7 803.16 1097.46 802.891C1094.91 802.337 1093.45 800.223 1091.02 799.32C1090.14 797.548 1089.2 795.939 1088.06 794.317Z"/>
	<path fill="#F4AE6F" d="M1098.69 785.067C1100.25 784.796 1101.88 784.51 1103.41 785.024C1105.7 785.791 1107.19 787.295 1108.2 789.443C1109.04 791.219 1109.15 793.741 1108.38 795.553C1107.24 798.233 1104.75 799.78 1102.12 800.719C1100.59 801.337 1099.37 801.354 1097.75 800.942C1095.8 800.448 1093.98 799.109 1093.02 797.341C1092.18 795.798 1092.18 792.454 1092.77 790.787C1093.85 787.729 1095.95 786.398 1098.69 785.067Z"/>
	<path fill="#5B376D" d="M1100.74 716.411C1104.43 716.757 1109.52 717.033 1112.04 720.125C1113.64 722.074 1113.26 723.131 1115.27 724.9L1114.25 727.439C1114.04 728.066 1114.11 727.767 1114.03 728.48C1113.81 730.661 1113.69 733.491 1112.89 735.555C1111.85 738.273 1109.17 740.824 1106.51 741.938C1102.93 743.439 1097.94 743 1094.46 741.396C1091.61 740.079 1089.43 736.854 1088.5 733.958C1087.58 731.088 1087.85 726.282 1089.34 723.653C1091.78 719.342 1096.15 717.444 1100.74 716.411Z"/>
	<path fill="#F4AE6F" d="M1098.93 720.551C1100.21 720.323 1101.21 720.264 1102.49 720.552C1104.85 721.086 1106.76 722.691 1107.87 724.846C1108.82 726.686 1108.81 729.535 1108.02 731.441C1106.89 734.15 1104.75 735.666 1102.12 736.705C1100.7 736.812 1098.99 736.997 1097.61 736.601C1095.73 736.063 1094.01 734.249 1093.12 732.568C1091.76 729.969 1092.19 727.692 1092.97 725.052C1094.84 722.646 1095.98 721.602 1098.93 720.551Z"/>
	<defs>
		<linearGradient id="gradient_17" gradientUnits="userSpaceOnUse" x1="869.09998" y1="665.78876" x2="733.32825" y2="425.92865">
			<stop offset="0" stop-color="#353869"/>
			<stop offset="1" stop-color="#624471"/>
		</linearGradient>
	</defs>
	<path fill="url(#gradient_17)" d="M908.784 325.465L1163.3 325.589L1163.19 458.154L1163.2 569.515C1150.2 569.614 1068.86 569.371 1068.16 570.043C1063.87 570.003 1058.2 569.11 1054.93 572.263C1053.81 573.345 1052.69 574.706 1052.4 576.277C1051.14 583.202 1052.04 591.894 1052.03 599.028L1051.99 650.338L1002.13 650.221C995.964 650.188 987.167 649.002 981.375 650.435C980.305 650.7 978.691 651.976 977.906 652.791C977.216 653.506 975.369 655.29 975.04 656.147C974.702 657.03 974.986 659.794 974.973 660.825L974.868 674.493L974.783 745.201L736.398 744.836L425.081 744.907C426.838 742.937 427.875 741.032 428.2 738.383C428.667 734.574 429.02 729.423 426.569 726.251C423.872 722.761 421.679 722.054 417.524 721.516C411.144 722.326 404.044 721.708 397.55 721.732L354.072 721.817L353.053 721.549C357.129 699.926 363.524 675.832 380.011 660.162C383.119 654.182 393.847 647.125 399.75 644.302C403.086 642.706 407.842 641.441 410.583 639.034C414.451 627.809 415.463 615.499 416.219 603.745L543.264 603.494L589.302 603.558C591.721 603.534 598.059 604.178 599.931 603.407C601.888 602.601 605.046 599.292 606.875 597.845L640.566 570.132C644.621 566.808 650.921 560.192 655.801 558.86L656.256 558.755L656.192 558.085L793.106 431.125L809.012 416.548L803.594 411.33C807.364 412.17 812.163 417.674 815.149 420.381L908.784 325.465Z"/>
	<path fill="#222A4C" d="M1123.46 411.82C1126.78 411.896 1127.31 412.208 1129.88 414.058C1130.76 416.262 1131.32 417.383 1130.21 419.727C1129.79 420.605 1129.02 421.425 1128.38 422.15C1123.49 422.318 1108.86 423.212 1105.12 420.78L1103.4 416.727C1106.65 416.692 1116.79 417.428 1119.12 415.756C1121.27 414.892 1122.11 413.653 1123.46 411.82Z"/>
	<path fill="#FCE0C6" d="M1119.12 415.756C1113.28 415.739 1103.52 417.058 1098.38 414.599C1096.92 412.749 1095.92 411.774 1096.42 409.225C1096.86 406.976 1098.51 406.268 1100.25 405.139C1105.34 404.936 1117.69 403.447 1121.6 406.224C1123.09 408.104 1123.3 409.46 1123.46 411.82C1122.11 413.653 1121.27 414.892 1119.12 415.756Z"/>
	<path fill="#222A4C" d="M1122.83 444.17C1125.53 444.322 1127.46 445.22 1129.26 447.289C1130.62 448.843 1130.25 450.031 1130.27 451.985C1129.4 454.109 1128.43 454.864 1126.5 456.048L1081.54 456.883C1075.5 456.922 1067.98 457.74 1062.08 456.688C1060.48 456.403 1058.99 455.261 1057.85 454.164C1056.56 452.923 1056.08 451.742 1055.74 450.023L1098.23 450.016C1104.72 450.044 1113.56 451.124 1119.77 449.557C1121.92 447.528 1122.08 447.051 1122.83 444.17Z"/>
	<path fill="#222A4C" d="M1077.07 411.093L1080.38 411.676C1082.9 414.278 1083.09 414.6 1083.08 418.227C1081.78 420.012 1081.24 421.185 1078.88 421.559C1075.67 422.065 1071.79 421.67 1068.51 421.689L1046.29 421.75L977.894 421.751L961.955 421.657C960.273 421.618 957.403 421.884 955.875 421.455C955.21 421.268 953.946 420.366 953.45 419.9C952.739 419.233 952.17 418.291 951.637 417.477L951.781 416.638C954.437 416.476 957.952 416.64 960.422 415.75C970.363 414.952 980.954 415.681 990.955 415.675L1052.85 415.631L1066.21 415.7C1068.34 415.734 1071.45 416.131 1073.48 415.508C1075.74 414.813 1076.15 413.027 1077.07 411.093Z"/>
	<path fill="#FCE0C6" d="M1055.74 450.023C1055.07 449.869 1054.36 449.738 1053.75 449.398C1051.46 448.115 1051.1 447.185 1050.26 444.859C1050.79 442.046 1051.15 441.46 1052.97 439.232C1057.96 437.292 1066.28 438.361 1071.67 438.344L1101.15 438.311C1107.06 438.317 1113.15 437.96 1119 438.853C1121.43 440.752 1121.71 441.278 1122.83 444.17C1122.08 447.051 1121.92 447.528 1119.77 449.557C1113.56 451.124 1104.72 450.044 1098.23 450.016L1055.74 450.023Z"/>
	<path fill="#FCE0C6" d="M960.422 415.75C956.328 415.781 951.688 416.25 947.712 415.226C946.001 413.811 945.484 412.888 945.004 410.725C945.608 408.124 946.045 407.627 947.863 405.631C951.91 403.779 959.061 404.664 963.53 404.653L1000.69 404.71L1045.86 404.814C1055.06 404.822 1064.46 404.456 1073.62 405.159C1075.94 407.264 1076.18 408.201 1077.07 411.093C1076.15 413.027 1075.74 414.813 1073.48 415.508C1071.45 416.131 1068.34 415.734 1066.21 415.7L1052.85 415.631L990.955 415.675C980.954 415.681 970.363 414.952 960.422 415.75Z"/>
	<path fill="#222A4C" d="M866.065 470.298C868.093 471.867 869.384 473.955 870.829 476.039C870.487 477.647 852.432 493.495 849.507 496.208L717.444 618.511C714.915 616.922 712.67 614.139 710.567 611.989L866.065 470.298Z"/>
	<path fill="#222A4C" d="M803.594 411.33C807.364 412.17 812.163 417.674 815.149 420.381L662.218 565.372C660.297 563.222 658.386 560.671 656.256 558.755L656.192 558.085L793.106 431.125L809.012 416.548L803.594 411.33Z"/>
	<path fill="#222A4C" d="M921.035 523.18L922.25 523.135C925.284 526.005 928.722 528.835 931.221 532.181L776.98 672.383C774.263 669.158 771.802 666.453 768.268 664.122L853.741 584.656L921.035 523.18Z"/>
	<path fill="#EF865C" d="M768.268 664.122C763.453 660.605 759.194 655.435 754.891 651.25C745.761 642.37 736.182 633.702 727.718 624.189L774.371 580.337C779.853 583.199 788.605 582.026 794.692 582.048L838.742 582.991C843.463 583.272 849.274 583.107 853.741 584.656L768.268 664.122Z"/>
	<defs>
		<linearGradient id="gradient_18" gradientUnits="userSpaceOnUse" x1="850.12891" y1="575.39197" x2="850.11554" y2="484.62259">
			<stop offset="0" stop-color="#F588A2"/>
			<stop offset="1" stop-color="#FDC8C3"/>
		</linearGradient>
	</defs>
	<path fill="url(#gradient_18)" d="M774.371 580.337L880.189 482.263L921.035 523.18L853.741 584.656C849.274 583.107 843.463 583.272 838.742 582.991L794.692 582.048C788.605 582.026 779.853 583.199 774.371 580.337Z"/>
	<defs>
		<linearGradient id="gradient_19" gradientUnits="userSpaceOnUse" x1="383.79315" y1="734.81207" x2="441.50473" y2="607.81024">
			<stop offset="0" stop-color="#153B64"/>
			<stop offset="1" stop-color="#39B098"/>
		</linearGradient>
	</defs>
	<path fill="url(#gradient_19)" d="M425.324 632.105C440.259 625.749 455.876 621.375 472.101 620.471L473.192 622.024C471.04 641.101 461.294 663.358 451.875 679.974C448.901 685.22 445.546 691.286 441.438 695.744C437.436 702.025 431.847 708.992 426.375 714.061C423.561 716.667 420.092 718.647 417.524 721.516C411.144 722.326 404.044 721.708 397.55 721.732L354.072 721.817L353.053 721.549C357.129 699.926 363.524 675.832 380.011 660.162C383.119 654.182 393.847 647.125 399.75 644.302C403.086 642.706 407.842 641.441 410.583 639.034C415.14 635.925 420.025 633.61 425.324 632.105Z"/>
	<defs>
		<linearGradient id="gradient_20" gradientUnits="userSpaceOnUse" x1="402.25247" y1="694.85468" x2="390.38074" y2="667.20593">
			<stop offset="0" stop-color="#2B8488"/>
			<stop offset="1" stop-color="#54BAA1"/>
		</linearGradient>
	</defs>
	<path fill="url(#gradient_20)" d="M425.174 649.125C424.529 650.865 423.508 651.713 422.472 653.18C421.775 654.167 422.351 655.799 422.565 656.901C425.087 656.726 425.823 654.889 427.688 653.413C431.999 650.002 435.935 646.207 440.449 643.011L441.742 643.394C426.908 655.896 409.353 669 397.07 684.042L379.016 702.918C374.413 707.887 370.089 713.087 364.583 717.092C372.744 700.812 387.505 686.602 399.73 673.214C401.984 672.216 406.19 666.819 408.112 664.898C413.617 659.396 419.196 654.117 425.174 649.125Z"/>
	<path fill="#6DC3B2" d="M425.324 632.105C440.259 625.749 455.876 621.375 472.101 620.471L473.192 622.024L441.742 643.394L440.449 643.011C435.935 646.207 431.999 650.002 427.688 653.413C425.823 654.889 425.087 656.726 422.565 656.901C422.351 655.799 421.775 654.167 422.472 653.18C423.508 651.713 424.529 650.865 425.174 649.125C428.476 646.058 434.044 642.285 435.383 638.031C436.891 637.17 437.937 635.99 439.387 635.147C440.51 634.494 440.253 634.645 440.632 633.53C439.602 632.407 438.351 630.771 436.936 630.16C434.638 629.167 428.612 632.273 426.234 633.232L425.324 632.105Z"/>
	<defs>
		<linearGradient id="gradient_21" gradientUnits="userSpaceOnUse" x1="771.18671" y1="606.62372" x2="763.96509" y2="432.25974">
			<stop offset="0" stop-color="#EE6F9F"/>
			<stop offset="1" stop-color="#FFE0CF"/>
		</linearGradient>
	</defs>
	<path fill="url(#gradient_21)" d="M710.567 611.989C708.228 608.322 702.818 604.212 699.637 601.062L670.088 571.512L823 427.687L847.467 451.976C853.209 457.814 859.072 465.143 865.634 469.99L866.065 470.298L710.567 611.989Z"/>
	<path fill="#2B3563" d="M1163.19 458.154L1163.2 569.515C1150.2 569.614 1068.86 569.371 1068.16 570.043C1063.87 570.003 1058.2 569.11 1054.93 572.263C1053.81 573.345 1052.69 574.706 1052.4 576.277C1051.14 583.202 1052.04 591.894 1052.03 599.028L1051.99 650.338L1002.13 650.221C995.964 650.188 987.167 649.002 981.375 650.435C980.305 650.7 978.691 651.976 977.906 652.791C977.216 653.506 975.369 655.29 975.04 656.147C974.702 657.03 974.986 659.794 974.973 660.825L974.868 674.493L974.783 745.201L736.398 744.836L736.059 743.919C737.882 741.304 740.846 740.116 743.382 738.322L762 725.678L807.256 696.127C814.824 691.184 821.883 685.116 829.496 680.412L858.135 662.238L925.713 616.041L1098 501.018L1163.19 458.154Z"/>
</svg>
