<?xml version="1.0" encoding="utf-8" ?>
<svg xmlns="http://www.w3.org/2000/svg" xmlns:xlink="http://www.w3.org/1999/xlink" width="1536" height="1024">
	<path fill="#3CAEC2" d="M-0 524.782L0 -0L1536 0L1536 757.77L1536 889.56L1536 936.081L1536 1024L-0 1024L0 936.859L0 759.094L-0 524.782Z"/>
	<path fill="#121212" d="M325.569 160.448L344.358 160.423C347.538 160.43 351.436 159.915 354.375 161.227C354.833 161.777 356.086 162.936 356.301 163.54C356.816 164.982 356.617 167.959 356.647 169.541C356.75 174.88 357.229 181.002 356.608 186.274C356.372 188.275 355.764 188.942 354.15 190.006C353.297 190.569 352.773 190.632 351.78 190.692L327.613 190.909C326.67 190.71 326.31 190.455 325.614 189.796L325.569 160.448Z"/>
	<path fill="#382928" d="M297.058 191.317L294 190.483C292.947 190.046 291.42 188.912 291.071 187.788C289.621 183.113 290.731 174.954 290.759 169.857C290.768 168.24 290.369 165.377 290.798 163.915C290.992 163.252 291.754 162.303 292.125 161.678C294.645 159.879 297.857 160.448 300.842 160.432L325.569 160.448L325.614 189.796C326.31 190.455 326.67 190.71 327.613 190.909L325.524 191.39C316.523 190.265 306.193 191.26 297.058 191.317Z"/>
	<path fill="#A75E1F" d="M686.263 195.098L686.271 147.785L755.325 147.686L755.575 194.976L686.263 195.098Z"/>
	<path fill="#783F19" d="M755.575 194.976L907.38 194.765L949.231 194.72C955.857 194.717 963.392 193.98 969.864 195.026C968.197 198.721 926.178 243.158 922.539 244.931C922.15 245.121 921.494 245.254 921.112 245.35L516.045 245.352C512.512 244.758 506.494 237.417 503.739 234.687L464.933 195.241L686.263 195.098L755.575 194.976Z"/>
	<path fill="#2B5832" d="M327.613 190.909L351.78 190.692C351.504 191.075 350.631 192.023 350.536 192.422C349.867 195.221 350.9 200.973 351.032 204.007L353.527 250.098L361.922 398.129C386.315 406.766 404.515 421.553 415.773 445.09C419.873 453.662 423.002 463.413 424.226 472.85C425.637 483.717 425.175 494.841 425.175 505.78L425.138 553.974L425.086 588.655C425.056 594.064 425.518 600.198 424.772 605.515L326.181 605.464L325.524 191.39L327.613 190.909Z"/>
	<path fill="#22478F" d="M1193.81 147.119L1248.12 147.054C1248.07 153.781 1246.96 161.052 1252.09 166.299C1262.72 177.166 1275.45 173.113 1288.68 175.197C1298.35 176.72 1306.7 182.49 1312.48 190.222C1316.28 195.305 1319.2 202.115 1319.1 208.551C1319.06 210.995 1318.72 213.605 1317.99 215.94C1315.23 224.759 1311.22 233.613 1307.86 242.253L1287.22 295.303L1261.94 361.053C1258.05 371.124 1254.7 381.786 1250.25 391.595C1247.33 398.034 1248.6 407.679 1248.64 414.661L1248.72 450.314L1193.86 450.343L1193.81 147.119Z"/>
	<path fill="#3CAEC2" d="M1261.16 201.858C1267.51 201.697 1276.89 201.027 1282.85 203.12C1285.98 204.22 1288.87 206.914 1290.32 209.867C1291.74 212.745 1292.52 217.165 1291.84 220.382C1290.31 227.624 1286.24 235.401 1283.64 242.437L1257.74 310.697L1248.15 335.076L1248.1 248.659L1248.15 223.059C1248.16 219.296 1247.62 213.52 1249.36 210.126C1251.8 205.34 1256.35 203.449 1261.16 201.858Z"/>
	<path fill="#2F73D7" d="M1112.54 450.311L1112.69 297.072L1112.5 242.24C1112.43 234.256 1113.65 223.324 1111.2 215.768C1108.01 205.972 1102.98 197.142 1096.88 188.884C1091.5 181.611 1085.43 174.673 1079.4 167.939C1075.8 163.928 1067.99 157.071 1066.65 152.054C1066.31 150.765 1067.03 149.49 1067.85 148.51C1068.15 148.156 1069.1 147.417 1069.5 147.279C1070.7 146.862 1074.05 147.241 1075.45 147.231L1093.99 147.131L1193.81 147.119L1193.86 450.343L1112.54 450.311Z"/>
	<path fill="#5BA04E" d="M297.058 191.317C306.193 191.26 316.523 190.265 325.524 191.39L326.181 605.464L221.021 605.408L221.255 528.276L221.294 496.113C221.314 488.318 221.076 480.463 222.257 472.733C224.086 460.772 228.105 449.212 234.387 438.874C245.784 420.119 264.721 403.025 286.387 397.765L297.058 191.317Z"/>
	<path fill="#148C9E" d="M-0 524.782L140.948 587.92L185.127 607.45C190.208 609.703 196.581 611.458 201.214 614.343C175.473 620.466 154.769 633.928 140.798 656.651C127.283 678.631 123.413 705.286 129.406 730.357C131.852 740.588 136.399 750.037 141.285 759.292L0 759.094L-0 524.782Z"/>
	<path fill="#F6B532" d="M221.021 605.408L326.181 605.464L424.772 605.515L424.461 649.601L447.763 644.772L443.997 738.607C435.522 747.188 429.81 755.163 424.745 766.165C422.696 774.08 419.691 781.703 418.981 789.912C421.988 796.279 424.061 802.374 424.924 809.421L388.161 809.534L319.253 809.439C313.975 810.06 308.004 809.514 302.661 809.518L268.721 809.54L231.182 809.604C224.217 809.603 216.627 810.245 209.738 809.548C186.294 803.212 168.891 793 152.56 774.816L141.285 759.292C136.399 750.037 131.852 740.588 129.406 730.357C123.413 705.286 127.283 678.631 140.798 656.651C154.769 633.928 175.473 620.466 201.214 614.343L221.072 613.038L221.021 605.408Z"/>
	<path fill="#E37E0E" d="M220.778 758.976L221.032 721.093C221.835 735.117 221.33 749.485 221.289 763.546C221.27 770.226 220.712 777.282 221.941 783.86C223.651 793.016 227.312 801.206 231.182 809.604C224.217 809.603 216.627 810.245 209.738 809.548C186.294 803.212 168.891 793 152.56 774.816L180.519 754.302L184.981 758.889L220.778 758.976Z"/>
	<path fill="#22478F" d="M184.981 758.889L220.778 758.976L220.897 776.172C206.762 772.402 196.068 768.86 184.981 758.889Z"/>
	<path fill="#148C9E" d="M180.519 754.302C170.159 742 161.555 728.678 160.472 712.106C159.329 694.623 164.546 678.863 176.387 665.786C188.191 652.749 204.092 647.681 221.17 646.718L221.032 721.093L220.778 758.976L184.981 758.889L180.519 754.302Z"/>
	<path fill="#F6B532" d="M221.072 613.038L221.17 646.718C204.092 647.681 188.191 652.749 176.387 665.786C164.546 678.863 159.329 694.623 160.472 712.106C161.555 728.678 170.159 742 180.519 754.302L152.56 774.816L141.285 759.292C136.399 750.037 131.852 740.588 129.406 730.357C123.413 705.286 127.283 678.631 140.798 656.651C154.769 633.928 175.473 620.466 201.214 614.343L221.072 613.038Z"/>
	<path fill="#E37E0E" d="M326.181 605.464L424.772 605.515L424.461 649.601L447.763 644.772L443.997 738.607C435.522 747.188 429.81 755.163 424.745 766.165C422.696 774.08 419.691 781.703 418.981 789.912C421.988 796.279 424.061 802.374 424.924 809.421L388.161 809.534L319.253 809.439C313.975 810.06 308.004 809.514 302.661 809.518L268.721 809.54C267.832 804.198 267.584 798.731 267.785 793.319C268.434 775.829 279.23 755.691 295.312 747.8C302.308 744.367 309.842 743.085 315.665 737.538C325.634 728.04 326.09 716.619 326.347 703.756L326.181 605.464Z"/>
	<path fill="#148C9E" d="M424.461 649.601L447.763 644.772L443.997 738.607C435.522 747.188 429.81 755.163 424.745 766.165C424.046 762.209 424.465 757.799 424.479 753.778L424.49 731.799L424.461 649.601Z"/>
	<path fill="#F1614F" d="M326.347 703.756C328.773 698.449 330.372 690.247 334.875 686.483C342.527 685.948 348.132 689.012 354.647 692.684C371.96 699.547 385.65 714.904 392.966 731.804C397.811 742.993 401.425 757.084 400.163 769.331C408.535 775.184 413.115 781.853 418.981 789.912C421.988 796.279 424.061 802.374 424.924 809.421L388.161 809.534L319.253 809.439C313.975 810.06 308.004 809.514 302.661 809.518L268.721 809.54C267.832 804.198 267.584 798.731 267.785 793.319C268.434 775.829 279.23 755.691 295.312 747.8C302.308 744.367 309.842 743.085 315.665 737.538C325.634 728.04 326.09 716.619 326.347 703.756Z"/>
	<path fill="#CA403F" d="M354.647 692.684C371.96 699.547 385.65 714.904 392.966 731.804C397.811 742.993 401.425 757.084 400.163 769.331C408.535 775.184 413.115 781.853 418.981 789.912C421.988 796.279 424.061 802.374 424.924 809.421L388.161 809.534L319.253 809.439C323.321 807.073 327.756 805.574 331.875 803.315C337.421 800.273 342.728 796.149 347.482 791.979C361.245 779.907 371.562 761.332 372.608 742.844C373.752 722.597 368.169 707.707 354.647 692.684Z"/>
	<path fill="#982D29" d="M400.163 769.331C408.535 775.184 413.115 781.853 418.981 789.912C421.988 796.279 424.061 802.374 424.924 809.421L388.161 809.534C394.405 796.027 398.349 784.138 400.163 769.331Z"/>
	<path fill="#F6EBD5" d="M969.864 195.026L971.268 195.808C974.105 199.246 975.416 203.647 977.192 207.686L988.678 234.625L1078.67 450.346L1028.66 450.188L989.293 663.185L987.482 665.749C983.102 671.395 978.421 677.028 974.72 683.15C962.149 703.947 957.577 726.021 957.691 750.057L956.64 747.217C951.273 745.34 944.939 748.496 939.622 745.584C937.763 750.806 940.887 759.239 938.154 763.474L910.277 763.45L902.368 754.897C885.043 737.505 860.499 725.403 835.673 725.342L832.689 725.02C809.409 723.8 790.012 728.939 772.434 744.681L755.554 761.5C743.44 777.448 735.586 794.89 732.297 814.721L612.09 814.72L583.115 814.637C577.974 814.616 572.057 815.163 567.036 814.051C566.426 812.808 565.669 811.603 564.675 810.627C561.343 807.357 549.81 808.756 545.14 808.861L509.513 809.092C503.376 809.135 496.652 808.668 490.586 809.352L424.924 809.421C424.061 802.374 421.988 796.279 418.981 789.912C419.691 781.703 422.696 774.08 424.745 766.165C429.81 755.163 435.522 747.188 443.997 738.607L447.763 644.772L459.196 342.521L463.214 221.919L463.917 204.009C464.027 201.142 463.75 197.872 464.933 195.241L503.739 234.687C506.494 237.417 512.512 244.758 516.045 245.352L921.112 245.35C921.494 245.254 922.15 245.121 922.539 244.931C926.178 243.158 968.197 198.721 969.864 195.026Z"/>
	<path fill="#783F19" d="M562.225 761.499L755.554 761.5C743.44 777.448 735.586 794.89 732.297 814.721L612.09 814.72L583.115 814.637C577.974 814.616 572.057 815.163 567.036 814.051C566.426 812.808 565.669 811.603 564.675 810.627C561.343 807.357 549.81 808.756 545.14 808.861C547.59 805.026 550.6 801.546 552.833 797.579C559.362 785.977 561.004 774.475 562.225 761.499Z"/>
	<path fill="#F1614F" d="M498.022 716.432C512.65 716.19 526.771 716.764 541.291 718.515C553.416 719.977 565.28 722.33 577.5 723.23L577.875 723.883L576.724 724.959C567.215 736.076 562.868 746.816 562.225 761.499C561.004 774.475 559.362 785.977 552.833 797.579C550.6 801.546 547.59 805.026 545.14 808.861L509.513 809.092C503.376 809.135 496.652 808.668 490.586 809.352L424.924 809.421C424.061 802.374 421.988 796.279 418.981 789.912C419.691 781.703 422.696 774.08 424.745 766.165C429.81 755.163 435.522 747.188 443.997 738.607C460.585 726.865 477.456 718.108 498.022 716.432Z"/>
	<path fill="#CA403F" d="M490.586 809.352C487.802 807.86 482.689 808.535 479.459 808.532L450.359 808.599C459.46 793.674 472.217 782.694 486.343 772.669C500.436 762.666 515.164 753.416 530.712 745.835L576.724 724.959C567.215 736.076 562.868 746.816 562.225 761.499C561.004 774.475 559.362 785.977 552.833 797.579C550.6 801.546 547.59 805.026 545.14 808.861L509.513 809.092C503.376 809.135 496.652 808.668 490.586 809.352Z"/>
	<path fill="#A75E1F" d="M464.933 195.241L503.739 234.687C506.494 237.417 512.512 244.758 516.045 245.352L498.022 716.432C477.456 718.108 460.585 726.865 443.997 738.607L447.763 644.772L459.196 342.521L463.214 221.919L463.917 204.009C464.027 201.142 463.75 197.872 464.933 195.241Z"/>
	<path fill="#F6B532" d="M554.148 467.075L557.846 298.077L876.521 297.687L879.922 464.235L874.146 459.383L827.758 492.349C820.261 497.496 812.663 503.61 804.798 508.056C802.231 507.656 799.434 505.225 797.111 503.988C793.574 502.107 789.785 500.671 786.069 499.185L779.077 499.318C775.802 511.042 770.719 520.047 759.833 526.281C750.571 531.585 739.856 532.551 729.644 529.681C720.861 527.212 712.734 520.903 708.342 512.913L706.613 509.286C704.076 504.425 702.595 499.513 702.41 493.996C702.031 482.691 707.762 470.641 716.763 463.805C719.393 461.808 722.604 460.981 724.865 458.534L725.198 458.155C724.835 456.24 724.347 454.712 723.467 452.972C715.927 463.877 707.415 472.036 693.83 474.493C683.337 476.391 672.047 473.605 663.364 467.518C660.363 465.414 658.006 462.765 655.627 460.004C652.706 456.131 650.565 452.153 648.544 447.751L646.539 443.587L647.49 441.661L621.214 413.251C616.157 416.504 611.31 421.458 606.503 425.223L554.148 467.075Z"/>
	<path fill="#2B5832" d="M871.483 396.777L873.716 397.972C872.609 402.59 858.652 411.297 854.172 414.048C839.324 423.164 821.488 427.824 804.238 423.769C795.143 421.631 786.545 415.979 781.744 407.899L780.635 405.889C780.286 404.071 780.298 402.674 780.512 400.839C781.105 401.521 781.582 401.879 782.434 402.207C785.853 403.525 790.424 403.978 794.064 404.456C813.114 406.959 831.016 401.849 849.711 399.588C856.283 398.793 865.637 399.608 871.483 396.777Z"/>
	<path fill="#096332" d="M780.525 400.041L781.143 398.959C787.88 388.907 799.623 382.647 811.211 380.358C831.593 376.332 854.684 385.545 871.483 396.777C865.637 399.608 856.283 398.793 849.711 399.588C831.016 401.849 813.114 406.959 794.064 404.456C790.424 403.978 785.853 403.525 782.434 402.207C781.582 401.879 781.105 401.521 780.512 400.839L780.525 400.041Z"/>
	<path fill="#783F19" d="M727.205 385.055C740.039 386.002 757.029 385.218 768.082 392.385C775.974 384.329 820.45 340.953 828.535 340.208C830.291 341.672 830.582 341.764 831.083 343.959L773.676 394.982C775.57 396.634 778.07 399.47 780.525 400.041L780.512 400.839C780.298 402.674 780.286 404.071 780.635 405.889L769.877 399.011C767.539 401.356 762.949 405.172 762.113 408.357C761.295 411.473 761.972 417.069 761.97 420.415L762.249 429.735L761.729 432.579C760.296 433.419 757.298 434.674 756.348 435.921C749.586 442.352 746.064 447.085 744.567 456.564C738.951 456.616 733.85 456.791 728.352 458.143L726.375 459.041L725.198 458.155C724.835 456.24 724.347 454.712 723.467 452.972L724.391 451.985C724.433 448.839 724.949 445.962 725.569 442.89L745.465 419.306C751.851 411.675 758.487 404.186 763.931 395.837C754.733 388.422 738.555 391.214 727.601 388.342L726.636 388.083L727.205 385.055Z"/>
	<path fill="#FBE061" d="M728.352 458.143C728.365 455.695 727.702 450.641 728.402 448.495C729.637 444.709 736.03 438.64 738.708 435.456L755.041 415.063C755.744 422.132 754.901 428.816 756.348 435.921C749.586 442.352 746.064 447.085 744.567 456.564C738.951 456.616 733.85 456.791 728.352 458.143Z"/>
	<path fill="#2B5832" d="M605.909 348.329C614.952 347.344 623.461 346.119 632.611 346.312C653.21 346.746 675.329 353.771 692.629 364.903C700.565 370.009 707.643 376.229 715.417 381.526C718.722 383.777 722.444 385.482 725.702 387.707C726.09 387.971 726.202 388.11 726.495 388.413C725.913 389.593 725.282 390.966 724.424 391.971C720.971 396.017 713.632 396.74 708.665 397.209C686.02 399.351 670.738 384.657 654.606 371.455C643.895 362.69 629.701 353.164 615.747 351.347C609.911 350.587 603.929 351.202 598.104 351.781C599.744 350.346 603.793 349.206 605.909 348.329Z"/>
	<path fill="#477F3A" d="M605.909 348.329C632.134 333.967 659.723 324.23 689.675 333.009C703.828 337.157 715.25 344.786 722.445 357.935C726.889 366.056 728.75 375.866 727.205 385.055L726.636 388.083L726.495 388.413C726.202 388.11 726.09 387.971 725.702 387.707C722.444 385.482 718.722 383.777 715.417 381.526C707.643 376.229 700.565 370.009 692.629 364.903C675.329 353.771 653.21 346.746 632.611 346.312C623.461 346.119 614.952 347.344 605.909 348.329Z"/>
	<path fill="#CA403F" d="M647.49 441.661C650.131 435.543 650 429.268 653.573 423.1C658.777 414.116 667.524 408.846 677.438 406.444C686.632 404.216 698.031 406.397 705.982 411.254C714.216 415.897 720.986 423.76 723.609 432.947C724.523 436.146 725.248 439.574 725.569 442.89C724.949 445.962 724.433 448.839 724.391 451.985L723.467 452.972C715.927 463.877 707.415 472.036 693.83 474.493C683.337 476.391 672.047 473.605 663.364 467.518C660.363 465.414 658.006 462.765 655.627 460.004C652.706 456.131 650.565 452.153 648.544 447.751L646.539 443.587L647.49 441.661Z"/>
	<path fill="#F9928D" d="M668.069 415.226C668.737 415.16 669.441 415.054 670.107 415.222C671.964 415.691 673.33 416.418 674.264 418.09C675.661 420.59 674.928 424.418 673.987 426.964C672.554 430.838 669.275 433.391 665.625 435.001C664.453 435.098 663.55 435.196 662.407 434.833C660.9 434.354 659.634 432.45 659.163 431.032C658.092 427.809 659.08 423.47 660.703 420.628C662.49 417.499 664.65 416.162 668.069 415.226Z"/>
	<path fill="#982D29" d="M705.982 411.254C714.216 415.897 720.986 423.76 723.609 432.947C724.523 436.146 725.248 439.574 725.569 442.89C724.949 445.962 724.433 448.839 724.391 451.985L723.467 452.972C715.927 463.877 707.415 472.036 693.83 474.493C683.337 476.391 672.047 473.605 663.364 467.518C660.363 465.414 658.006 462.765 655.627 460.004L658.753 461.312C668.771 465.232 679.965 464.19 689.672 459.906C697.964 456.248 704.696 448.718 707.913 440.273C711.704 430.325 710.206 420.69 705.982 411.254Z"/>
	<path fill="#CA403F" d="M762.249 429.735L763.125 431.915C774.836 427.249 783.604 426.084 795.695 430.624L795.881 430.839C805.166 434.976 812.059 441.643 815.809 451.235C819.097 459.646 818.546 469.678 814.894 477.871C811.006 486.595 803.145 493.487 794.255 496.828L786.069 499.185L779.077 499.318C775.802 511.042 770.719 520.047 759.833 526.281C750.571 531.585 739.856 532.551 729.644 529.681C720.861 527.212 712.734 520.903 708.342 512.913L706.613 509.286C704.076 504.425 702.595 499.513 702.41 493.996C702.031 482.691 707.762 470.641 716.763 463.805C719.393 461.808 722.604 460.981 724.865 458.534L725.198 458.155L726.375 459.041L728.352 458.143C733.85 456.791 738.951 456.616 744.567 456.564C746.064 447.085 749.586 442.352 756.348 435.921C757.298 434.674 760.296 433.419 761.729 432.579L762.249 429.735Z"/>
	<path fill="#F9928D" d="M758.677 441.483L759.221 441.323C762.073 440.698 763.777 441.084 766.125 442.637C767.668 445.046 767.69 448.377 767.098 451.119C766.232 455.124 764.371 457.652 760.875 459.801C759.853 459.899 758.89 459.955 757.878 459.728C755.823 459.268 754.053 457.837 752.936 456.093C751.88 454.441 751.962 450.849 752.475 448.938C753.388 445.538 755.75 443.212 758.677 441.483Z"/>
	<path fill="#F9928D" d="M717.994 470.74C719.561 470.372 721.081 470.843 722.625 471.156C723.325 471.856 724.534 472.751 724.897 473.658C726.103 476.67 725.475 480.746 724.15 483.634C722.62 486.969 720.927 488.942 717.375 490.217C716.106 490.283 714.976 489.838 713.762 489.495C712.582 488.48 711.36 487.391 710.734 485.931C709.746 483.626 709.885 479.449 710.898 477.175C712.359 473.897 714.752 472.032 717.994 470.74Z"/>
	<path fill="#982D29" d="M795.881 430.839C805.166 434.976 812.059 441.643 815.809 451.235C819.097 459.646 818.546 469.678 814.894 477.871C811.006 486.595 803.145 493.487 794.255 496.828L786.069 499.185L779.077 499.318C775.802 511.042 770.719 520.047 759.833 526.281C750.571 531.585 739.856 532.551 729.644 529.681C720.861 527.212 712.734 520.903 708.342 512.913L706.613 509.286C716.451 515.511 725.433 517.454 736.935 514.759C746.727 512.465 755.33 506.027 760.533 497.485C766.759 487.264 766.189 474.6 763.465 463.455C771.953 470.249 775.634 476.578 779.005 486.942L785.126 483.389C793.95 477.772 799.34 469.208 801.53 459.093C803.911 448.089 801.769 440.088 795.881 430.839Z"/>
	<path fill="#7FB652" d="M554.148 467.075L606.503 425.223C611.31 421.458 616.157 416.504 621.214 413.251L647.49 441.661L646.539 443.587L648.544 447.751C650.565 452.153 652.706 456.131 655.627 460.004C658.006 462.765 660.363 465.414 663.364 467.518C672.047 473.605 683.337 476.391 693.83 474.493C707.415 472.036 715.927 463.877 723.467 452.972C724.347 454.712 724.835 456.24 725.198 458.155L724.865 458.534C722.604 460.981 719.393 461.808 716.763 463.805C707.762 470.641 702.031 482.691 702.41 493.996C702.595 499.513 704.076 504.425 706.613 509.286L708.342 512.913C712.734 520.903 720.861 527.212 729.644 529.681C739.856 532.551 750.571 531.585 759.833 526.281C770.719 520.047 775.802 511.042 779.077 499.318L786.069 499.185C789.785 500.671 793.574 502.107 797.111 503.988C799.434 505.225 802.231 507.656 804.798 508.056C803.436 510.551 803.27 565.774 804.362 570.149L804.698 571.025L805.802 709.747C810.031 709.776 815.336 709.19 819.399 710.238L616.453 709.872L549.641 710.188L550.463 661.503L554.148 467.075Z"/>
	<path fill="#A75E1F" d="M643.479 467.936C643.221 459.154 643.702 451.964 646.539 443.587L648.544 447.751L645.565 468.755L643.479 467.936Z"/>
	<path fill="#982D29" d="M651.534 472.247C658.738 477.497 664.582 484.606 666.042 493.67C667.666 503.75 664.982 512.728 658.954 520.924C653.262 528.663 643.968 534.026 634.477 535.463C624.09 537.035 613.175 534.547 604.783 528.181C602.229 526.243 599.747 523.868 597.987 521.174C604.214 522.648 610.309 523.295 616.7 522.754C626.794 521.899 636.307 517.352 642.735 509.433C651.843 498.212 652.903 486.038 651.534 472.247Z"/>
	<path fill="#CA403F" d="M597.987 521.174L595.513 517.439C590.807 509.666 589.451 499.665 591.686 490.878C593.873 482.279 599.45 474.721 607.125 470.223C618.462 463.578 631.298 464.659 643.479 467.936L645.565 468.755C647.658 469.807 649.704 470.761 651.534 472.247C652.903 486.038 651.843 498.212 642.735 509.433C636.307 517.352 626.794 521.899 616.7 522.754C610.309 523.295 604.214 522.648 597.987 521.174Z"/>
	<path fill="#F9928D" d="M612.299 473.741C613.313 473.786 614.395 473.831 615.375 474.114C616.966 474.573 618.764 475.645 619.504 477.181C620.677 479.618 620.237 482.258 619.192 484.66C617.804 487.851 615.568 489.611 612.375 490.795C610.989 491.253 609.652 490.892 608.25 490.667C606.988 489.733 605.594 488.777 605.06 487.229C604.015 484.201 604.461 480.929 605.993 478.175C607.453 475.552 609.533 474.572 612.299 473.741Z"/>
	<path fill="#2F73D7" d="M550.463 661.503L673.341 564.235L730.217 622.701L646.056 687.965L627.375 701.914C623.746 704.473 619.623 706.755 616.453 709.872L549.641 710.188L550.463 661.503Z"/>
	<path fill="#22478F" d="M730.217 622.701C731.843 620.468 799.849 568.015 801.375 567.718L804.362 570.149L804.698 571.025L805.802 709.747C810.031 709.776 815.336 709.19 819.399 710.238L616.453 709.872C619.623 706.755 623.746 704.473 627.375 701.914L646.056 687.965L730.217 622.701Z"/>
	<path fill="#A75E1F" d="M969.864 195.026L971.268 195.808C974.105 199.246 975.416 203.647 977.192 207.686L988.678 234.625L1078.67 450.346L1028.66 450.188L989.293 663.185L987.482 665.749C983.102 671.395 978.421 677.028 974.72 683.15C962.149 703.947 957.577 726.021 957.691 750.057L956.64 747.217C951.273 745.34 944.939 748.496 939.622 745.584C937.763 750.806 940.887 759.239 938.154 763.474L910.277 763.45L902.368 754.897C885.043 737.505 860.499 725.403 835.673 725.342L832.689 725.02L834.281 724.272C830.364 720.141 827.382 715.221 824.464 710.363L819.399 710.238C815.336 709.19 810.031 709.776 805.802 709.747L804.698 571.025L804.362 570.149C803.27 565.774 803.436 510.551 804.798 508.056C812.663 503.61 820.261 497.496 827.758 492.349L874.146 459.383L879.922 464.235L880.271 464.685L929.899 515.601L930.541 515.376L930.893 510.084L928.146 432.222L925.134 339.264L923.087 274.105L922.323 256.026C922.143 252.526 922.257 248.676 921.112 245.35C921.494 245.254 922.15 245.121 922.539 244.931C926.178 243.158 968.197 198.721 969.864 195.026Z"/>
	<path fill="#148C9E" d="M971.268 195.808C974.105 199.246 975.416 203.647 977.192 207.686L988.678 234.625L1078.67 450.346L1028.66 450.188L989.293 663.185L987.482 665.749C986.361 658.546 986.577 650.837 986.384 643.563L985.259 609.043L979.771 463.913L974.842 312.943L971.268 195.808Z"/>
	<path fill="#D0B997" d="M804.798 508.056C812.663 503.61 820.261 497.496 827.758 492.349L874.146 459.383L879.922 464.235L880.271 464.685L929.899 515.601L930.541 515.376L930.893 510.084C932.384 526.6 932.014 543.839 932.576 560.46L935.935 665.412L937.772 731.804C938.034 742.069 939.129 753.249 938.154 763.474L910.277 763.45L902.368 754.897C885.043 737.505 860.499 725.403 835.673 725.342L832.689 725.02L834.281 724.272C830.364 720.141 827.382 715.221 824.464 710.363L819.399 710.238C815.336 709.19 810.031 709.776 805.802 709.747L804.698 571.025L804.362 570.149C803.27 565.774 803.436 510.551 804.798 508.056Z"/>
	<path fill="#153163" d="M804.698 571.025L857.857 626.144C867.136 618.52 874.985 608.9 884.912 602.161L888.477 710.366L824.464 710.363L819.399 710.238C815.336 709.19 810.031 709.776 805.802 709.747L804.698 571.025Z"/>
	<path fill="#477F3A" d="M804.798 508.056C812.663 503.61 820.261 497.496 827.758 492.349L874.146 459.383L879.922 464.235L880.271 464.685L884.912 602.161C874.985 608.9 867.136 618.52 857.857 626.144L804.698 571.025L804.362 570.149C803.27 565.774 803.436 510.551 804.798 508.056Z"/>
	<path fill="#153163" d="M1248.72 450.314L1291.67 450.26L1329.97 450.329L1366.84 450.203L1435.9 757.687L1536 757.77L1536 889.56L1536 936.081L1536 1024L-0 1024L0 936.859L0 759.094L141.285 759.292L152.56 774.816C168.891 793 186.294 803.212 209.738 809.548C216.627 810.245 224.217 809.603 231.182 809.604L268.721 809.54L302.661 809.518C308.004 809.514 313.975 810.06 319.253 809.439L388.161 809.534L424.924 809.421L490.586 809.352C496.652 808.668 503.376 809.135 509.513 809.092L545.14 808.861C549.81 808.756 561.343 807.357 564.675 810.627C565.669 811.603 566.426 812.808 567.036 814.051C572.057 815.163 577.974 814.616 583.115 814.637L612.09 814.72L732.297 814.721C735.586 794.89 743.44 777.448 755.554 761.5L772.434 744.681C790.012 728.939 809.409 723.8 832.689 725.02L835.673 725.342C860.499 725.403 885.043 737.505 902.368 754.897L910.277 763.45L938.154 763.474C940.887 759.239 937.763 750.806 939.622 745.584C944.939 748.496 951.273 745.34 956.64 747.217L957.691 750.057C957.577 726.021 962.149 703.947 974.72 683.15C978.421 677.028 983.102 671.395 987.482 665.749L989.293 663.185L1028.66 450.188L1078.67 450.346L1112.54 450.311L1193.86 450.343L1248.72 450.314Z"/>
	<path fill="#0E1D3F" d="M887.394 907.928C892.516 912.682 897.186 917.665 902.773 921.897C925.261 938.93 953.124 945.498 981 944.49C1010.34 943.428 1038.29 931.064 1060.27 911.93L1061.04 912.114C1067.42 913.59 1074.07 913.925 1080.53 914.995C1100.93 918.369 1120.75 924.551 1138.06 936.071L1142.96 941.229C1145.76 944.751 1147.28 948.964 1146.61 953.483C1145.86 958.512 1141.45 962.913 1137.49 965.748C1128.12 972.437 1116.15 976.415 1105.11 979.433C1066.88 989.884 1022.83 991.225 983.86 984.17C974.122 982.407 964.243 980.318 954.75 977.492C949.691 975.986 943.568 972.895 938.516 972.282C934.977 971.853 930.996 972.541 927.416 972.718L909.22 972.916C888.607 972.794 867.153 971.125 846.797 967.792C824.941 964.213 783.781 956.538 770.586 937.873L768.447 934.903C767.778 932.851 767.382 930.871 767.47 928.702C767.73 922.28 771.987 918.33 776.445 914.272C789.597 923.077 803.672 929.389 819.371 932.14C846.066 936.818 872.032 931.32 894.244 915.778C891.834 913.505 889.577 911.355 887.783 908.547L887.394 907.928Z"/>
	<path fill="#22478F" d="M1074.86 888.983L1536 889.56L1536 936.081L1138.06 936.071C1120.75 924.551 1100.93 918.369 1080.53 914.995C1074.07 913.925 1067.42 913.59 1061.04 912.114L1060.27 911.93C1066.79 904.994 1071.04 897.656 1074.86 888.983Z"/>
	<path fill="#0E1D3F" d="M1435.9 757.687L1536 757.77L1536 889.56L1074.86 888.983C1077.09 883.533 1078.3 877.536 1079.41 871.77L1091.85 872.388L1261.29 873.272L1300.12 873.268C1305.51 873.265 1312.6 874.067 1317.81 872.843C1322.1 869.442 1327.76 866.788 1332.52 864.008L1367.56 844.215C1375.65 842.729 1385.62 843.748 1393.92 843.707L1455.17 843.517L1435.9 757.687Z"/>
	<path fill="#F6B532" d="M755.554 761.5L772.434 744.681C790.012 728.939 809.409 723.8 832.689 725.02L835.673 725.342C860.499 725.403 885.043 737.505 902.368 754.897L910.277 763.45L938.154 763.474C940.887 759.239 937.763 750.806 939.622 745.584C944.939 748.496 951.273 745.34 956.64 747.217L957.691 750.057L961.24 774.327L969.096 772.9C986.384 772.243 1002.48 773.552 1018.77 779.971C1022.68 781.51 1027.24 783.135 1030.41 785.974L1030.75 786.29C1040.65 789.895 1049.57 797.691 1057.4 804.532C1064.68 812.941 1074.52 823.692 1076.72 834.917C1072.99 840.064 1072.46 844.501 1073.47 850.81C1074.37 856.391 1077.14 861.435 1079.46 866.527L1079.41 871.77C1078.3 877.536 1077.09 883.533 1074.86 888.983C1071.04 897.656 1066.79 904.994 1060.27 911.93C1038.29 931.064 1010.34 943.428 981 944.49C953.124 945.498 925.261 938.93 902.773 921.897C897.186 917.665 892.516 912.682 887.394 907.928L887.783 908.547C889.577 911.355 891.834 913.505 894.244 915.778C872.032 931.32 846.066 936.818 819.371 932.14C803.672 929.389 789.597 923.077 776.445 914.272C755.975 898.929 740.45 877.129 734.863 851.98C731.601 839.506 729.86 827.558 732.297 814.721C735.586 794.89 743.44 777.448 755.554 761.5Z"/>
	<path fill="#FAD613" d="M938.154 763.474C940.887 759.239 937.763 750.806 939.622 745.584C944.939 748.496 951.273 745.34 956.64 747.217L957.691 750.057L961.24 774.327L969.096 772.9C986.384 772.243 1002.48 773.552 1018.77 779.971C1022.68 781.51 1027.24 783.135 1030.41 785.974L1030.75 786.29C1035.1 794.142 1036.89 799.932 1034.32 808.775C1031.3 819.157 1024.36 827.341 1016.89 834.815C1002.56 849.156 985.993 860.265 968.12 869.725C947.307 880.741 919.242 887.246 896.235 880.231C885.621 876.994 877.46 871.684 869.903 863.626C869.107 856.668 869.837 849.105 871.828 842.388C879.746 815.674 898.014 799.531 921.719 786.566C919.192 778.609 914.583 770.58 910.277 763.45L938.154 763.474Z"/>
	<path fill="#783F19" d="M938.154 763.474C940.887 759.239 937.763 750.806 939.622 745.584C944.939 748.496 951.273 745.34 956.64 747.217L957.691 750.057L961.24 774.327C947.474 776.735 934.348 780.528 921.719 786.566C919.192 778.609 914.583 770.58 910.277 763.45L938.154 763.474Z"/>
	<path fill="#FBE061" d="M942.416 798.427C949.027 798.094 955.523 798.257 961.304 801.945C964.303 803.858 966.455 806.652 967.125 810.199C968.117 815.454 965.958 820.863 962.971 825.124C954.827 836.741 942.561 842.539 928.995 844.882C922.733 845.61 913.893 845.232 908.531 841.491C905.55 839.411 903.163 836.226 902.525 832.615C901.625 827.523 903.5 822.003 906.506 817.885C914.777 806.556 928.941 800.301 942.416 798.427Z"/>
	<path fill="#FAD613" d="M755.554 761.5L772.434 744.681C790.012 728.939 809.409 723.8 832.689 725.02L835.673 725.342C860.499 725.403 885.043 737.505 902.368 754.897L910.277 763.45C914.583 770.58 919.192 778.609 921.719 786.566C898.014 799.531 879.746 815.674 871.828 842.388C869.837 849.105 869.107 856.668 869.903 863.626C870.275 877.52 875.436 890.706 883.235 902.095C884.313 903.669 885.634 906.473 886.997 907.652L887.394 907.928L887.783 908.547C889.577 911.355 891.834 913.505 894.244 915.778C872.032 931.32 846.066 936.818 819.371 932.14C803.672 929.389 789.597 923.077 776.445 914.272C755.975 898.929 740.45 877.129 734.863 851.98C731.601 839.506 729.86 827.558 732.297 814.721C735.586 794.89 743.44 777.448 755.554 761.5Z"/>
	<path fill="#E37E0E" d="M835.673 725.342C860.499 725.403 885.043 737.505 902.368 754.897L910.277 763.45C914.583 770.58 919.192 778.609 921.719 786.566C898.014 799.531 879.746 815.674 871.828 842.388C869.837 849.105 869.107 856.668 869.903 863.626C870.275 877.52 875.436 890.706 883.235 902.095C884.313 903.669 885.634 906.473 886.997 907.652L887.394 907.928L887.783 908.547C889.577 911.355 891.834 913.505 894.244 915.778C872.032 931.32 846.066 936.818 819.371 932.14C803.672 929.389 789.597 923.077 776.445 914.272C755.975 898.929 740.45 877.129 734.863 851.98C736.813 854.22 738.113 857.504 739.675 860.085C743.84 866.97 750.382 873.019 757.519 876.698C770.446 883.361 786.606 883.385 800.227 878.908C827.167 870.052 850.401 848.933 863.093 823.701C872.555 804.891 875.374 780.215 868.6 760.059C864.597 748.147 857.158 737.608 846.525 730.727C843.169 728.556 839.258 727.122 835.673 725.342Z"/>
	<path fill="#F6B532" d="M816.479 729.463C826.792 728.719 836.119 731.197 844.83 736.802C855.359 743.578 862.854 756.764 865.387 768.824C869.46 788.213 864.218 813.091 853.339 829.613C837.932 853.012 815.905 869.725 788.268 875.387C776.001 877.046 763.741 875.33 753.651 867.652C744.13 860.407 738.784 846.868 737.438 835.293C734.418 809.343 745.948 781.381 761.976 761.436C775.67 744.395 794.576 731.969 816.479 729.463Z"/>
	<path fill="#FAD613" d="M800.934 760.849C806.006 760.191 810.988 760.224 815.582 762.813C819.892 765.242 822.692 769.752 823.967 774.426C826.666 784.322 823.43 794.805 818.368 803.381C812.551 813.234 803.241 820.714 792.2 823.577C787.16 824.031 781.969 824.066 777.328 821.804C773.327 819.854 770.077 816.065 768.729 811.824C765.803 802.611 768.287 791.62 772.809 783.294C779.075 771.755 788.477 764.461 800.934 760.849Z"/>
	<path fill="#F6B532" d="M782.762 815.529C782.14 815.316 781.592 815.112 781.013 814.797C777.467 812.873 774.996 810.397 773.842 806.451C771.759 799.326 774.492 791.565 778.053 785.406C782.515 777.688 789.859 771.457 798.622 769.313C803.928 768.014 807.286 767.981 811.977 770.916C801.405 771.781 793.11 775.252 786.168 783.566C780.803 789.993 778.185 798.495 779.115 806.806C779.37 809.086 780.208 810.862 781.297 812.856L782.762 815.529Z"/>
	<path fill="#D85A04" d="M811.977 770.916C815.516 773.673 817.308 775.323 817.922 779.968C819.052 788.516 815.143 797.752 809.899 804.315C805.556 809.749 798.369 815.37 791.252 816.181C788.555 816.488 785.542 816.144 782.935 815.434L782.762 815.529L781.297 812.856C780.208 810.862 779.37 809.086 779.115 806.806C778.185 798.495 780.803 789.993 786.168 783.566C793.11 775.252 801.405 771.781 811.977 770.916Z"/>
	<path fill="#22478F" d="M0 759.094L141.285 759.292L152.56 774.816C168.891 793 186.294 803.212 209.738 809.548C216.627 810.245 224.217 809.603 231.182 809.604L268.721 809.54L302.661 809.518C308.004 809.514 313.975 810.06 319.253 809.439L388.161 809.534L424.924 809.421L490.586 809.352C496.652 808.668 503.376 809.135 509.513 809.092L545.14 808.861C549.81 808.756 561.343 807.357 564.675 810.627C565.669 811.603 566.426 812.808 567.036 814.051C572.057 815.163 577.974 814.616 583.115 814.637L612.09 814.72L732.297 814.721C729.86 827.558 731.601 839.506 734.863 851.98C740.45 877.129 755.975 898.929 776.445 914.272C771.987 918.33 767.73 922.28 767.47 928.702C767.382 930.871 767.778 932.851 768.447 934.903C764.803 936.238 759.418 935.555 755.468 935.558L728.162 935.549L629.369 935.483L374.089 936.049L91.0212 935.874C79.3837 935.859 3.67421 934.676 -0 936.859L0 759.094Z"/>
	<path fill="#0E1D3F" d="M254.853 851.955L253.463 852.661C239.293 851.042 201.453 847.53 192.194 837.043C192.003 835.141 191.71 834.247 193.125 832.695C194.993 830.648 198.174 829.589 200.714 828.64C207.267 826.193 213.995 824.083 220.97 823.315C231.541 833.815 242.531 843.552 254.853 851.955Z"/>
	<path fill="#0E1D3F" d="M684.03 895.489C694.539 897.109 714.52 898.821 722.205 906.596C722.138 907.504 722.367 908.078 721.637 908.688C704.62 922.898 611.506 926.039 587.429 923.181L585.852 922.922L585.709 913.512L586.605 911.381C588.999 906.45 595.718 904.691 600.531 902.929C604.926 903.053 608.85 903.074 613.127 904.189C620.237 906.042 626.484 909.394 633.836 910.637C652.748 913.835 668.994 906.153 684.03 895.489Z"/>
	<path fill="#7FB652" d="M594.223 878.458C600.123 864.667 608.79 855.989 622.721 850.24C654.153 837.269 679.019 853.5 707.338 865.307L703.488 869.718C697.761 879.129 692.194 887.935 684.03 895.489C668.994 906.153 652.748 913.835 633.836 910.637C626.484 909.394 620.237 906.042 613.127 904.189C608.85 903.074 604.926 903.053 600.531 902.929C595.718 904.691 588.999 906.45 586.605 911.381L585.709 913.512C579.887 910.666 577.464 907.691 574.222 902.114L573.74 900.985C572.622 898.066 572.898 895.099 574.356 892.343C576.738 887.843 581.162 891.539 584.977 890.369C590.075 888.805 592.234 882.829 594.223 878.458Z"/>
	<path fill="#5BA04E" d="M600.531 902.929C610.673 892.257 626.632 890.609 640.357 888.642C649.23 887.37 657.96 885.941 666.629 883.595C679.219 880.187 691.557 874.927 703.488 869.718C697.761 879.129 692.194 887.935 684.03 895.489C668.994 906.153 652.748 913.835 633.836 910.637C626.484 909.394 620.237 906.042 613.127 904.189C608.85 903.074 604.926 903.053 600.531 902.929Z"/>
	<path fill="#0E1D3F" d="M545.14 808.861C549.81 808.756 561.343 807.357 564.675 810.627C565.669 811.603 566.426 812.808 567.036 814.051C565.507 818.716 561.731 822.67 558.572 826.342C546.674 840.171 532.837 851.071 517.406 860.729C532.443 863.371 547.474 865.191 562.299 868.997L582.595 874.804C586.458 876.049 590.224 877.703 594.223 878.458C592.234 882.829 590.075 888.805 584.977 890.369C581.162 891.539 576.738 887.843 574.356 892.343C572.898 895.099 572.622 898.066 573.74 900.985L574.222 902.114C516.565 929.055 394.334 937.35 334.21 917.562C323.355 913.989 305.355 908.029 299.949 896.89C299.657 896.288 299.921 896.067 300.132 895.464L298.771 894.615C296.367 892.833 295.172 891.218 294.735 888.311C294.409 884.248 295.374 879.692 294.524 875.714C294.088 873.671 293.658 872.941 291.876 871.735C287.469 868.754 281.13 866.752 276.276 864.38C268.811 860.732 261.838 856.439 254.853 851.955C242.531 843.552 231.541 833.815 220.97 823.315L209.738 809.548C216.627 810.245 224.217 809.603 231.182 809.604L268.721 809.54L302.661 809.518C308.004 809.514 313.975 810.06 319.253 809.439L388.161 809.534L424.924 809.421L490.586 809.352C496.652 808.668 503.376 809.135 509.513 809.092L545.14 808.861Z"/>
	<path fill="#3CAEC2" d="M422.048 895.739C426.59 892.278 437.312 891.765 443.111 890.593L464.326 885.308C474.968 882.18 485.328 878.47 495.024 873.014C495.111 879.166 496.579 887.591 492.028 892.407C490.572 893.948 488.368 895.359 486.228 895.65C479.98 896.501 472.866 895.893 466.486 895.927L426.75 895.986L422.048 895.739Z"/>
	<path fill="#85D2F2" d="M545.14 808.861C549.81 808.756 561.343 807.357 564.675 810.627C565.669 811.603 566.426 812.808 567.036 814.051C565.507 818.716 561.731 822.67 558.572 826.342C546.674 840.171 532.837 851.071 517.406 860.729L495.024 873.014C485.328 878.47 474.968 882.18 464.326 885.308L443.111 890.593C437.312 891.765 426.59 892.278 422.048 895.739C418.48 896.385 413.769 895.946 410.078 896.004L383.292 896.188L329.404 896.328C320.478 896.339 308.687 897.729 300.132 895.464L298.771 894.615C296.367 892.833 295.172 891.218 294.735 888.311C295.499 888.692 295.898 888.743 296.754 888.652C356.592 882.291 418.213 863.337 467.529 828.094C475.395 822.472 484.404 816.888 490.586 809.352C496.652 808.668 503.376 809.135 509.513 809.092L545.14 808.861Z"/>
	<path fill="#F6EBD5" d="M424.924 809.421L490.586 809.352C484.404 816.888 475.395 822.472 467.529 828.094C418.213 863.337 356.592 882.291 296.754 888.652C295.898 888.743 295.499 888.692 294.735 888.311C294.409 884.248 295.374 879.692 294.524 875.714C294.088 873.671 293.658 872.941 291.876 871.735C287.469 868.754 281.13 866.752 276.276 864.38C268.811 860.732 261.838 856.439 254.853 851.955C242.531 843.552 231.541 833.815 220.97 823.315L209.738 809.548C216.627 810.245 224.217 809.603 231.182 809.604L268.721 809.54L302.661 809.518C308.004 809.514 313.975 810.06 319.253 809.439L388.161 809.534L424.924 809.421Z"/>
	<path fill="#C4CFB0" d="M1248.72 450.314L1291.67 450.26L1329.97 450.329L1366.84 450.203L1435.9 757.687L1455.17 843.517L1393.92 843.707C1385.62 843.748 1375.65 842.729 1367.56 844.215L1332.52 864.008C1327.76 866.788 1322.1 869.442 1317.81 872.843C1312.6 874.067 1305.51 873.265 1300.12 873.268L1261.29 873.272L1091.85 872.388L1079.41 871.77L1079.46 866.527C1077.14 861.435 1074.37 856.391 1073.47 850.81C1072.46 844.501 1072.99 840.064 1076.72 834.917C1074.52 823.692 1064.68 812.941 1057.4 804.532C1049.57 797.691 1040.65 789.895 1030.75 786.29L1030.41 785.974C1027.24 783.135 1022.68 781.51 1018.77 779.971C1002.48 773.552 986.384 772.243 969.096 772.9L961.24 774.327L957.691 750.057C957.577 726.021 962.149 703.947 974.72 683.15C978.421 677.028 983.102 671.395 987.482 665.749L989.293 663.185L1028.66 450.188L1078.67 450.346L1112.54 450.311L1193.86 450.343L1248.72 450.314Z"/>
	<path fill="#783F19" d="M1075.49 624.007C1079.08 610.842 1083.9 600.942 1092.93 590.6L1108.54 602.704C1101.94 608.986 1096.29 615.75 1092.18 623.931C1089.5 629.762 1087.85 635.644 1086.43 641.878C1085.24 647.112 1084.51 652.525 1081.68 657.176C1079.63 658.11 1078.11 658.127 1075.88 658.003C1074.8 657.378 1073.9 657.049 1073.2 655.977C1072.2 654.427 1072.44 651.918 1072.45 650.139C1072.47 641.522 1073.46 632.386 1075.49 624.007Z"/>
	<path fill="#A75E1F" d="M1179.08 663.372C1202.53 689.223 1214.54 720.202 1212.85 755.305C1211.35 786.638 1196.79 816.411 1173.61 837.435C1156.63 852.839 1135.43 864.259 1112.86 868.797C1106.24 870.13 1097.96 869.787 1091.85 872.388L1079.41 871.77L1079.46 866.527C1077.14 861.435 1074.37 856.391 1073.47 850.81C1072.46 844.501 1072.99 840.064 1076.72 834.917C1074.52 823.692 1064.68 812.941 1057.4 804.532C1095.25 782.533 1126.56 746.805 1150.57 710.677L1179.08 663.372Z"/>
	<path fill="#2B5832" d="M1076.72 834.917C1083.42 831.188 1090.55 829.813 1098.12 831.866C1102.35 833.012 1107.05 835.113 1109.28 839.08C1110.99 842.129 1111.07 845.833 1110.11 849.15C1108.07 856.267 1101.53 862.336 1095.12 865.642C1091.62 867.446 1086.5 869.347 1082.66 868.091C1081.52 867.719 1080.48 867.15 1079.46 866.527C1077.14 861.435 1074.37 856.391 1073.47 850.81C1072.46 844.501 1072.99 840.064 1076.72 834.917Z"/>
	<path fill="#8F9C86" d="M1291.67 450.26L1329.97 450.329C1329.84 461.988 1331.41 474.034 1332.25 485.677L1339 567.34L1367.56 844.215L1332.52 864.008C1327.76 866.788 1322.1 869.442 1317.81 872.843L1291.67 450.26Z"/>
	<path fill="#727C5E" d="M1329.97 450.329L1366.84 450.203L1435.9 757.687L1455.17 843.517L1393.92 843.707C1385.62 843.748 1375.65 842.729 1367.56 844.215L1339 567.34L1332.25 485.677C1331.41 474.034 1329.84 461.988 1329.97 450.329Z"/>
	<path fill="#F6B532" d="M1092.18 623.931C1124.21 627.443 1156.67 639.266 1179.08 663.372L1150.57 710.677C1126.56 746.805 1095.25 782.533 1057.4 804.532C1049.57 797.691 1040.65 789.895 1030.75 786.29L1030.41 785.974C1027.24 783.135 1022.68 781.51 1018.77 779.971C1002.48 773.552 986.384 772.243 969.096 772.9L961.24 774.327L957.691 750.057C957.577 726.021 962.149 703.947 974.72 683.15C978.421 677.028 983.102 671.395 987.482 665.749L989.293 663.185C1013.58 640.646 1041.83 625.725 1075.49 624.007C1073.46 632.386 1072.47 641.522 1072.45 650.139C1072.44 651.918 1072.2 654.427 1073.2 655.977C1073.9 657.049 1074.8 657.378 1075.88 658.003C1078.11 658.127 1079.63 658.11 1081.68 657.176C1084.51 652.525 1085.24 647.112 1086.43 641.878C1087.85 635.644 1089.5 629.762 1092.18 623.931Z"/>
	<path fill="#E37E0E" d="M1092.18 623.931C1124.21 627.443 1156.67 639.266 1179.08 663.372L1150.57 710.677C1126.56 746.805 1095.25 782.533 1057.4 804.532C1049.57 797.691 1040.65 789.895 1030.75 786.29L1030.41 785.974C1027.24 783.135 1022.68 781.51 1018.77 779.971C1002.48 773.552 986.384 772.243 969.096 772.9C972.699 770.398 977.733 769.155 981.855 767.592L1001.98 759.511C1027.17 749.37 1052.62 738.837 1076.49 725.849C1085.81 720.773 1095.28 715.698 1103.73 709.231C1111.06 703.628 1119.79 696.33 1120.92 686.582C1121.46 681.907 1119.57 677.386 1116.68 673.81C1109.19 664.549 1093.29 658.467 1081.68 657.176C1084.51 652.525 1085.24 647.112 1086.43 641.878C1087.85 635.644 1089.5 629.762 1092.18 623.931Z"/>
</svg>
